<svg width="60" height="60" viewBox="0 0 60 60" fill="none" xmlns="http://www.w3.org/2000/svg">
<g clip-path="url(#clip0_143_900)">
<path fill-rule="evenodd" clip-rule="evenodd" d="M46.6966 26.0202C46.9613 26.099 47.112 26.3774 47.0331 26.6421L46.2869 29.1481L46.2861 29.1507C46.0028 30.0832 46.0411 31.0232 46.3338 31.8104C46.6186 32.5374 47.1166 32.9884 47.7124 33.1586C47.9779 33.2345 48.1317 33.5112 48.0559 33.7767C47.98 34.0423 47.7033 34.196 47.4378 34.1202C46.5028 33.8531 45.7839 33.1518 45.4009 32.1705L45.3981 32.1634L45.3982 32.1634C45.0245 31.1617 44.9847 29.9955 45.3289 28.8614L46.0747 26.3567C46.1535 26.092 46.432 25.9414 46.6966 26.0202Z" fill="black"/>
<path fill-rule="evenodd" clip-rule="evenodd" d="M46.0155 21.9228C46.0925 21.6617 46.3643 21.5102 46.6269 21.582L52.5207 23.1937C54.6961 23.8007 55.9942 25.9984 55.3595 28.1336L55.3589 28.1356L54.9274 29.5658C54.9273 29.5661 54.9275 29.5655 54.9274 29.5658C54.5413 30.8623 53.9731 32.115 53.2655 33.2822C53.2526 33.3035 53.238 33.3239 53.2221 33.343L53.221 33.3443L53.2148 33.3519C53.209 33.359 53.1999 33.3703 53.1879 33.3854C53.1638 33.4158 53.1282 33.4616 53.0842 33.5207C52.9959 33.6391 52.8749 33.8095 52.7458 34.0149C52.4831 34.433 52.2072 34.9647 52.088 35.4821L52.0867 35.4878C51.945 36.0713 51.8748 36.542 51.8401 36.863C51.8228 37.0235 51.8143 37.1465 51.8102 37.2273C51.8081 37.2678 51.8071 37.2977 51.8066 37.3164L51.8062 37.3362L51.8062 37.3388C51.8062 37.3387 51.8062 37.3388 51.8062 37.3388C51.8061 37.6148 51.5823 37.8388 51.3062 37.8388C51.0301 37.8388 50.8062 37.6149 50.8062 37.3388L51.3062 37.3388C50.8062 37.3388 50.8062 37.3389 50.8062 37.3388L50.8062 37.3367L50.8062 37.3335L50.8063 37.3238L50.8069 37.2915C50.8076 37.2642 50.8089 37.2255 50.8115 37.1762C50.8165 37.0774 50.8265 36.9356 50.8459 36.7555C50.8848 36.3959 50.9618 35.883 51.1142 35.2546C51.2703 34.5798 51.6124 33.9392 51.8991 33.4829C52.045 33.2507 52.1817 33.0582 52.2824 32.923C52.3329 32.8553 52.3746 32.8017 52.4042 32.7643C52.4134 32.7527 52.4215 32.7426 52.4282 32.7342C53.0867 31.6428 53.6122 30.4788 53.969 29.2804L53.9695 29.2787L54.401 27.8487C54.4011 27.8483 54.4012 27.848 54.4013 27.8476C54.8654 26.2843 53.9255 24.6246 52.2531 24.1572C52.2527 24.1571 52.2523 24.157 52.2519 24.1569L46.8359 22.6759L46.464 23.9361C46.2604 24.6234 46.3367 25.1704 46.4714 25.5402C46.5398 25.7278 46.6225 25.8681 46.6898 25.957C46.7162 25.9919 46.7375 26.0153 46.7514 26.0291C46.9653 26.1318 47.0817 26.3759 47.0163 26.6127C46.9427 26.8789 46.6674 27.0351 46.4012 26.9616C46.2616 26.923 46.1555 26.8379 46.0973 26.7862C46.0259 26.7228 45.9568 26.6456 45.8922 26.5603C45.7625 26.3888 45.6329 26.1599 45.5318 25.8826C45.3279 25.3227 45.2373 24.5566 45.505 23.6529C45.5049 23.653 45.505 23.6528 45.505 23.6529L46.0155 21.9228Z" fill="black"/>
<path fill-rule="evenodd" clip-rule="evenodd" d="M33.7477 28.0718C34.0217 28.0376 34.2715 28.2319 34.3058 28.506L34.7062 31.712L36.804 35.513C36.9997 35.881 37.367 36.1287 37.7867 36.1873L44.1279 37.0825C45.5452 36.476 47.0764 36.1431 48.6285 36.1229C49.9664 36.1012 51.2614 36.5606 52.2958 37.4332C53.5281 38.4628 54.2378 39.9714 54.2807 41.5816C54.281 41.5916 54.281 41.6016 54.2806 41.6116L53.8683 54.0022C53.8591 54.2782 53.6279 54.4945 53.3519 54.4853C53.0759 54.4761 52.8596 54.2449 52.8688 53.969L53.2807 41.5937C53.2412 40.2665 52.6558 39.0367 51.6538 38.1999L51.6518 38.1982C50.8014 37.4805 49.7406 37.1048 48.6441 37.1227L48.6424 37.1228C47.1798 37.1418 45.7342 37.4647 44.4001 38.0546C44.3147 38.0924 44.2204 38.1055 44.1279 38.0924L37.6483 37.1777C37.6482 37.1777 37.6484 37.1777 37.6483 37.1777C36.9304 37.0773 36.2776 36.6501 35.923 35.9861L33.7843 32.111C33.7536 32.0554 33.7337 31.9945 33.7259 31.9314L33.3135 28.6299C33.2793 28.3559 33.4736 28.106 33.7477 28.0718Z" fill="black"/>
<path fill-rule="evenodd" clip-rule="evenodd" d="M30.8593 28.9502C31.1315 28.9042 31.3895 29.0877 31.4355 29.36L33.1435 39.4806C33.2737 40.2017 33.7245 40.799 34.3601 41.1048L44.3365 45.9181C44.5852 46.0381 44.6895 46.337 44.5695 46.5857C44.4495 46.8344 44.1506 46.9387 43.9019 46.8187L33.9266 42.0059C32.992 41.5563 32.3433 40.6828 32.1588 39.6549L32.1579 39.6497L30.4494 29.5264C30.4035 29.2541 30.587 28.9961 30.8593 28.9502Z" fill="black"/>
<path fill-rule="evenodd" clip-rule="evenodd" d="M33.8761 25.8858C34.0943 25.7165 34.4084 25.7561 34.5777 25.9743L39.7667 32.6612L47.1201 36.1105C47.3701 36.2278 47.4777 36.5255 47.3604 36.7755C47.2431 37.0255 46.9454 37.1331 46.6954 37.0159L39.2331 33.5155C39.1615 33.4819 39.0989 33.4318 39.0505 33.3693L33.7876 26.5873C33.6183 26.3692 33.6579 26.0551 33.8761 25.8858Z" fill="black"/>
<path fill-rule="evenodd" clip-rule="evenodd" d="M41.8967 44.7757C42.1722 44.7955 42.3794 45.0349 42.3596 45.3103L41.7312 54.0414C41.7113 54.3169 41.472 54.5241 41.1966 54.5043C40.9211 54.4844 40.7139 54.2451 40.7337 53.9696L41.3621 45.2385C41.382 44.9631 41.6213 44.7559 41.8967 44.7757Z" fill="black"/>
<path fill-rule="evenodd" clip-rule="evenodd" d="M15.7595 22.5292C16.03 22.4734 16.2945 22.6473 16.3504 22.9177L16.8806 25.4833C17.1148 26.6262 17.0136 27.7913 16.5705 28.7564C16.1462 29.6834 15.4047 30.3696 14.4725 30.5684C14.2025 30.626 13.9368 30.4537 13.8793 30.1836C13.8217 29.9136 13.9939 29.6479 14.264 29.5904C14.8241 29.4709 15.3394 29.0435 15.6613 28.3399C16.0035 27.5947 16.0989 26.6504 15.9012 25.6853C15.9012 25.6852 15.9012 25.6855 15.9012 25.6853L15.3711 23.1201C15.3152 22.8497 15.4891 22.5851 15.7595 22.5292Z" fill="black"/>
<path fill-rule="evenodd" clip-rule="evenodd" d="M16.5294 18.1467C16.6408 18.2202 16.7181 18.3352 16.7442 18.4661L17.0972 20.2338C17.0973 20.2342 17.0974 20.2346 17.0975 20.2351C17.2855 21.155 17.1443 21.9102 16.909 22.4524C16.7923 22.7212 16.6513 22.9404 16.513 23.1028C16.4443 23.1834 16.3709 23.2563 16.2953 23.3152C16.2345 23.3627 16.1196 23.4437 15.9714 23.471C15.6998 23.521 15.4391 23.3414 15.3891 23.0698C15.3453 22.832 15.4775 22.6026 15.6934 22.5156C15.7068 22.5035 15.7268 22.4836 15.7518 22.4542C15.8222 22.3717 15.9119 22.2379 15.9916 22.0542C16.149 21.6917 16.263 21.1447 16.1175 20.4343L16.1171 20.432L15.8624 19.1569L10.6633 20.2463C10.663 20.2464 10.6636 20.2462 10.6633 20.2463C9.06692 20.5871 8.02165 22.173 8.35826 23.7924L8.35901 23.796L8.65381 25.269C8.89822 26.5067 9.31098 27.7092 9.85613 28.8383C9.86221 28.8477 9.86956 28.8591 9.87805 28.8725C9.90327 28.9123 9.93869 28.9692 9.98137 29.041C10.0666 29.1842 10.1816 29.3875 10.3024 29.6309C10.5406 30.1108 10.817 30.777 10.9164 31.4593L10.9175 31.4671C10.9963 32.0759 11.0362 32.4238 11.0564 32.6214C11.0666 32.7202 11.072 32.7833 11.0749 32.8237C11.0764 32.844 11.0773 32.8595 11.0779 32.8717L11.0785 32.8885L11.0786 32.8961L11.0787 32.8999L11.0787 32.9017L11.0787 32.9032C11.0787 32.9034 11.0787 32.9037 10.5787 32.9037L11.0787 32.9032C11.0787 33.1793 10.8548 33.4037 10.5787 33.4037C10.3066 33.4037 10.0853 33.1864 10.0788 32.9159C10.0787 32.9132 10.0783 32.9069 10.0775 32.896C10.0756 32.8686 10.0712 32.8161 10.0617 32.7235C10.0427 32.5387 10.0042 32.2015 9.92626 31.5996C9.8484 31.0699 9.62457 30.5145 9.40669 30.0755C9.29926 29.8591 9.197 29.6783 9.12205 29.5524C9.08465 29.4896 9.05426 29.4407 9.03368 29.4083C9.0234 29.3921 9.01558 29.38 9.01059 29.3723L9.00528 29.3642L9.00448 29.363C8.99175 29.344 8.98026 29.324 8.97026 29.3034C8.38335 28.094 7.93701 26.8006 7.67288 25.4634C7.67284 25.4632 7.67292 25.4636 7.67288 25.4634L7.3788 23.994C6.93116 21.8354 8.32116 19.7232 10.4548 19.2683L10.4565 19.2679L16.1514 18.0746C16.282 18.0472 16.4181 18.0732 16.5294 18.1467Z" fill="black"/>
<path fill-rule="evenodd" clip-rule="evenodd" d="M10.9557 32.576C11.1367 32.7846 11.1144 33.1004 10.9059 33.2814C10.2372 33.8619 9.1354 34.9772 8.12714 35.9984C6.93637 37.2236 6.24039 38.8186 6.14847 40.527C6.14845 40.5274 6.14843 40.5277 6.14841 40.5281L5.48084 54.0105C5.46719 54.2863 5.23253 54.4988 4.95673 54.4851C4.68093 54.4715 4.46841 54.2368 4.48207 53.961L5.14984 40.4745C5.25449 38.5244 6.05044 36.6996 7.41151 35.2999L7.41417 35.2971L7.43003 35.2811C8.42062 34.2778 9.54849 33.1355 10.2504 32.5262C10.4589 32.3452 10.7747 32.3675 10.9557 32.576Z" fill="black"/>
<path fill-rule="evenodd" clip-rule="evenodd" d="M30.0232 24.2708C30.2657 24.4029 30.3551 24.7066 30.2229 24.9491L26.4514 31.8687L26.4244 31.9027L26.0332 31.5913C26.4244 31.9027 26.4244 31.9026 26.4244 31.9027L26.3722 31.9681L26.2241 32.1532C26.096 32.3132 25.9115 32.543 25.6859 32.8227C25.2346 33.3818 24.6184 34.1404 23.9589 34.938C22.6539 36.5161 21.1387 38.2969 20.4169 38.9444C20.2113 39.1288 19.8952 39.1116 19.7108 38.9061C19.5264 38.7005 19.5436 38.3844 19.7491 38.2C20.402 37.6144 21.8619 35.9047 23.1882 34.3007C23.8445 33.5071 24.458 32.7517 24.9077 32.1946C25.1324 31.9161 25.3161 31.6873 25.4436 31.5281L25.5907 31.3442L25.615 31.3137L29.3449 24.4705C29.4771 24.2281 29.7807 24.1386 30.0232 24.2708Z" fill="black"/>
<path fill-rule="evenodd" clip-rule="evenodd" d="M28.7244 19.7581C28.9547 19.9105 29.0179 20.2207 28.8655 20.451L23.5868 28.4302L17.8482 32.2847C17.6189 32.4386 17.3083 32.3776 17.1543 32.1484C17.0004 31.9192 17.0614 31.6085 17.2906 31.4546L22.8632 27.7116L28.0315 19.8992C28.1839 19.6689 28.4941 19.6057 28.7244 19.7581Z" fill="black"/>
<path fill-rule="evenodd" clip-rule="evenodd" d="M31.0908 17.709C31.0908 17.4328 31.3147 17.209 31.5908 17.209V17.709C31.5908 17.209 31.5911 17.209 31.5914 17.209L31.592 17.209L31.5933 17.209L31.5961 17.209L31.6032 17.2091L31.6223 17.2096C31.6372 17.2102 31.6566 17.2112 31.6798 17.213C31.7263 17.2166 31.789 17.2234 31.8644 17.2363C32.015 17.2621 32.219 17.3125 32.4487 17.4113C32.914 17.6115 33.4692 18.0045 33.8918 18.7559C33.9318 18.8264 33.9863 18.9174 34.0494 19.0229C34.1913 19.2599 34.377 19.5701 34.5406 19.8857C34.7841 20.3553 35.0279 20.9227 35.1122 21.503C35.198 22.0933 35.1225 22.7364 34.6755 23.286C34.2386 23.8231 33.5109 24.1905 32.4684 24.3858C32.197 24.4366 31.9357 24.2578 31.8849 23.9864C31.834 23.715 32.0128 23.4538 32.2842 23.4029C33.2055 23.2303 33.6708 22.9364 33.8997 22.6549C34.1185 22.3859 34.1817 22.0533 34.1226 21.6467C34.0621 21.2301 33.8776 20.7794 33.6529 20.346C33.5016 20.0543 33.3531 19.8068 33.2196 19.5844C33.1487 19.4663 33.082 19.3552 33.0214 19.2483L33.0205 19.2467L33.0205 19.2467C32.7165 18.7059 32.3393 18.4528 32.0535 18.3299C31.9076 18.2671 31.7815 18.2367 31.6959 18.222C31.6532 18.2147 31.6212 18.2115 31.6025 18.21C31.5932 18.2093 31.5874 18.209 31.5853 18.209C31.5852 18.209 31.5852 18.209 31.5852 18.209M31.0908 17.709C31.0908 17.9832 31.3116 18.2059 31.5852 18.209L31.0908 17.709Z" fill="black"/>
<path fill-rule="evenodd" clip-rule="evenodd" d="M29.6673 24.2235C29.9358 24.1589 30.2058 24.3241 30.2704 24.5926L31.4094 29.3261C31.474 29.5946 31.3087 29.8646 31.0402 29.9292C30.7718 29.9938 30.5017 29.8285 30.4371 29.5601L29.2982 24.8266C29.2336 24.5581 29.3988 24.2881 29.6673 24.2235Z" fill="black"/>
<path fill-rule="evenodd" clip-rule="evenodd" d="M33.2454 23.3385C33.5085 23.2546 33.7898 23.3999 33.8737 23.663L35.2876 28.0981C35.3281 28.2254 35.3161 28.3635 35.2542 28.4819C35.1923 28.6002 35.0856 28.6888 34.9579 28.728L31.0697 29.9213C30.8057 30.0023 30.526 29.854 30.445 29.59C30.364 29.326 30.5123 29.0463 30.7763 28.9653L34.1813 27.9203L32.9209 23.9667C32.8371 23.7036 32.9823 23.4223 33.2454 23.3385Z" fill="black"/>
<path fill-rule="evenodd" clip-rule="evenodd" d="M38.2306 6.12817L38.3427 6.61894C38.7125 8.2366 38.6368 9.51384 38.2494 10.556C37.8624 11.5972 37.1836 12.3517 36.44 12.9558C35.8957 13.3979 35.2886 13.7793 34.7332 14.1282C34.5457 14.246 34.3641 14.3601 34.1929 14.4716C33.4838 14.933 32.9392 15.3553 32.625 15.8636L31.7744 15.3378C32.2163 14.6229 32.9334 14.098 33.6474 13.6334C33.847 13.5035 34.0465 13.3782 34.2447 13.2536C34.7857 12.9136 35.3165 12.5801 35.8095 12.1796C36.4675 11.645 37.0075 11.0272 37.3121 10.2076C37.5813 9.48316 37.6818 8.56031 37.4677 7.33546L34.2586 8.09211L34.0291 7.1188L38.2306 6.12817Z" fill="black"/>
<path fill-rule="evenodd" clip-rule="evenodd" d="M18.1604 11.8537L21.3765 11.0954L21.147 10.1221L16.9521 11.1111L17.0628 11.5952C17.4326 13.2129 18.0558 14.3271 18.8583 15.0915C19.6602 15.8552 20.6001 16.2303 21.5317 16.4414C22.2111 16.5954 22.9208 16.6676 23.5697 16.7336C23.7915 16.7561 24.0063 16.778 24.2103 16.8021C25.0478 16.9012 25.7179 17.0388 26.2175 17.3556L26.753 16.511C26.0449 16.0621 25.1711 15.9088 24.3278 15.809C24.0893 15.7808 23.853 15.7568 23.6184 15.7329C22.9869 15.6686 22.3677 15.6055 21.7527 15.4662C20.9292 15.2795 20.1766 14.966 19.548 14.3673C18.9913 13.8372 18.4997 13.0525 18.1604 11.8537Z" fill="black"/>
<path fill-rule="evenodd" clip-rule="evenodd" d="M34.2855 5.59155L34.396 6.08392C35.2062 9.6944 34.5711 13.2124 32.8563 15.521L32.8555 15.5221C32.3594 16.1861 32.0713 16.9585 32.0713 17.7288H31.0713C31.0713 16.7094 31.4506 15.7319 32.054 14.9241C33.486 12.9958 34.1183 10.0026 33.5217 6.79736L21.5165 9.60746C22.3641 12.7425 24.231 15.154 26.3605 16.25C27.553 16.8649 28.4861 17.9315 28.7985 19.2864C28.7985 19.2862 28.7986 19.2867 28.7985 19.2864L28.9751 20.0414L28.0013 20.2691L27.8246 19.5133L27.8242 19.5117C27.5866 18.4804 26.8701 17.638 25.9029 17.1392C23.3491 15.8248 21.2517 12.9399 20.421 9.34905L20.3086 8.86318L34.2855 5.59155Z" fill="black"/>
<path fill-rule="evenodd" clip-rule="evenodd" d="M10.6504 42.9498C10.9237 42.9895 11.1131 43.2431 11.0735 43.5164L9.54176 54.0773C9.50213 54.3506 9.24845 54.54 8.97517 54.5003C8.70189 54.4607 8.51248 54.207 8.55212 53.9337L10.0838 43.3729C10.1235 43.0996 10.3771 42.9102 10.6504 42.9498Z" fill="black"/>
<path fill-rule="evenodd" clip-rule="evenodd" d="M20.057 38.0727C20.3327 38.0583 20.568 38.2702 20.5823 38.546L21.3875 53.9796C21.4019 54.2553 21.19 54.4905 20.9142 54.5049C20.6384 54.5193 20.4032 54.3074 20.3888 54.0317L19.5837 38.5981C19.5693 38.3223 19.7812 38.0871 20.057 38.0727Z" fill="black"/>
</g>
<defs>
<clipPath id="clip0_143_900">
<rect width="52" height="50" fill="white" transform="translate(4 5)"/>
</clipPath>
</defs>
</svg>
