<svg width="60" height="60" viewBox="0 0 60 60" fill="none" xmlns="http://www.w3.org/2000/svg">
<g clip-path="url(#clip0_143_941)">
<path fill-rule="evenodd" clip-rule="evenodd" d="M5.5 14.64C5.5 9.53717 10.053 5.5 15.56 5.5C21.0664 5.5 25.6214 9.53712 25.6 14.6421L25.5998 14.6553L29.3536 18.4664L29.3562 18.4691L29.3736 18.4864C29.5189 18.6317 29.5605 18.8511 29.4785 19.0396C29.3964 19.228 29.2075 19.347 29.0022 19.3397L24.2553 19.1701C22.5186 21.9281 19.2756 23.78 15.56 23.78C10.053 23.78 5.5 19.7428 5.5 14.64ZM27.7816 18.2955L24.7238 15.1909C24.6143 15.0797 24.563 14.9239 24.585 14.7694L24.5856 14.7652L24.5875 14.7511L24.59 14.7323L24.5934 14.7041C24.5972 14.6724 24.5989 14.6523 24.5996 14.644V14.644L24.5999 14.6407C24.6 14.6395 24.6 14.6393 24.6 14.64L24.6 14.6379C24.6186 10.1829 20.6136 6.5 15.56 6.5C10.507 6.5 6.5 10.1828 6.5 14.64C6.5 19.0972 10.507 22.78 15.56 22.78C19.0497 22.78 22.0416 20.988 23.5482 18.4079C23.6411 18.2489 23.8138 18.1537 23.9978 18.1603L27.7816 18.2955ZM39.5221 12.3271L39.5232 12.3275L44.3411 13.9668C44.522 14.0283 44.652 14.1876 44.6761 14.3771L44.18 14.4401C44.6761 14.3771 44.676 14.3768 44.6761 14.3771L44.6762 14.3783L44.6764 14.3797L44.6768 14.3833L44.6779 14.3931C44.6788 14.4009 44.6798 14.4112 44.6809 14.4237C44.6832 14.4486 44.6858 14.4827 44.6878 14.5248C44.6917 14.6086 44.6935 14.725 44.6854 14.8637C44.6695 15.1383 44.6144 15.5155 44.4504 15.9026C44.2847 16.2939 44.006 16.6984 43.5479 17.0065C43.2004 17.2403 42.7694 17.4054 42.2423 17.4787C42.2398 17.8137 42.1924 18.1832 42.1292 18.5236C42.022 19.1012 41.8472 19.7091 41.6544 20.1286L41.6508 20.1366C41.0938 21.295 40.1317 22.1808 38.7245 22.4127C38.2131 22.5035 37.7139 22.3837 37.3726 22.2644C37.196 22.2026 37.0478 22.1361 36.943 22.0846C36.8904 22.0587 36.848 22.0363 36.8177 22.0198C36.8026 22.0115 36.7904 22.0046 36.7815 21.9995L36.7704 21.9931L36.7668 21.991L36.7654 21.9902C36.7654 21.9902 36.7644 21.9895 37.0201 21.5599L36.7644 21.9895C36.5271 21.8483 36.4492 21.5414 36.5905 21.3041C36.7315 21.0672 37.0378 20.9892 37.2749 21.1297L37.278 21.1315L37.2977 21.1425C37.3164 21.1527 37.3458 21.1683 37.3841 21.1871C37.4611 21.225 37.5717 21.2746 37.7026 21.3204C37.9754 21.4158 38.2846 21.4757 38.5518 21.4278L38.5592 21.4264C39.5886 21.2577 40.3048 20.6256 40.7475 19.7073C40.8943 19.3864 41.0485 18.8665 41.146 18.3412C41.2079 18.0076 41.2391 17.712 41.2424 17.4853C41.105 17.4693 40.94 17.446 40.7531 17.412C40.1981 17.3111 39.4433 17.1147 38.6437 16.7309C38.3947 16.6114 38.2898 16.3127 38.4093 16.0637C38.5288 15.8148 38.8275 15.7098 39.0764 15.8293C39.7768 16.1655 40.4419 16.3391 40.932 16.4282C41.1764 16.4726 41.3754 16.4957 41.5111 16.5077C41.5789 16.5136 41.6306 16.5168 41.6642 16.5184L41.6957 16.5198L41.7063 16.5198C42.32 16.5041 42.7225 16.3566 42.9897 16.1768C43.2591 15.9956 43.4254 15.7588 43.5296 15.5126C43.6357 15.2622 43.6755 15.0057 43.6871 14.8059L43.6874 14.8006L39.199 13.2735L39.1969 13.2727C39.1116 13.2433 39.0258 13.2184 38.9398 13.1978L39.5221 12.3271ZM38.9396 13.1978L39.5221 12.3271C37.5791 11.657 35.4557 12.6994 34.7868 14.6587L34.1472 16.5174C34.1395 16.54 34.1333 16.5631 34.1289 16.5866L33.8089 18.2666L33.8085 18.2687C33.7397 18.6382 33.7082 19.116 33.6779 19.5736V19.5736L33.6779 19.5738C33.67 19.6934 33.6622 19.8117 33.6539 19.9262C33.6106 20.5198 33.5526 21.0227 33.4319 21.3445C33.4162 21.3864 33.4061 21.4302 33.4021 21.4748L34.6811 19.563L34.6809 19.5659L33.4015 21.4789C33.4003 21.4865 33.3978 21.5009 33.393 21.5195C33.3829 21.5589 33.366 21.6045 33.3407 21.6442C33.317 21.6814 33.2894 21.7086 33.2539 21.7273C33.2202 21.745 33.1508 21.7703 33.0185 21.7616C31.6179 21.6407 30.1857 21.5608 28.4625 21.9127C26.7391 22.2647 24.7547 23.0418 22.219 24.5937C21.009 25.3345 20.6158 26.8675 21.2801 28.0977L21.8201 29.0977C21.9513 29.3407 22.2546 29.4313 22.4976 29.3001C22.7406 29.1689 22.8312 28.8655 22.7 28.6225L22.16 27.6225C21.7443 26.8527 21.9911 25.9058 22.7411 25.4465C25.2054 23.9384 27.081 23.2155 28.6626 22.8925C30.2425 22.5698 31.5591 22.6394 32.937 22.7583L32.9452 22.7589C33.2405 22.7795 33.5002 22.7276 33.7193 22.6123C33.9369 22.4979 34.0855 22.3363 34.1844 22.181C34.2816 22.0282 34.3334 21.8776 34.3614 21.7688C34.3745 21.718 34.383 21.6738 34.3886 21.6391C34.5523 21.1673 34.6111 20.5482 34.6512 19.999C34.6612 19.8619 34.6701 19.7284 34.6787 19.5993L34.6809 19.5659L38.9398 13.1978L38.9396 13.1978ZM38.9396 13.1978C37.5968 12.8775 36.1949 13.6285 35.7333 14.9816L35.7328 14.9828L35.1045 16.8089L34.7916 18.4516L34.7914 18.4526C34.7362 18.7497 34.7099 19.1309 34.6811 19.563L38.9396 13.1978ZM39.1872 24.1268C39.3712 23.9209 39.6873 23.9031 39.8932 24.0871C40.8575 24.9488 41.8269 25.9968 42.5059 27.3335L42.5092 27.3401L47.9723 38.9267C48.0901 39.1765 47.9831 39.4744 47.7333 39.5922C47.4835 39.71 47.1856 39.603 47.0678 39.3532L41.611 27.78C41.0101 26.5997 40.141 25.6496 39.2269 24.8328C39.021 24.6488 39.0032 24.3327 39.1872 24.1268ZM21.9032 33.504C22.1345 31.446 23.9852 29.9928 26.0358 30.2232L26.0389 30.2236L31.4088 30.8603L31.5119 31.1549C31.5118 31.1547 31.5119 31.1549 31.04 31.3201L31.5119 31.1549L31.5123 31.156L31.5128 31.1574L31.5139 31.1608L31.5171 31.1702C31.5196 31.1776 31.5227 31.1874 31.5264 31.1994C31.5338 31.2233 31.5435 31.2562 31.5542 31.2968C31.5756 31.378 31.6017 31.4915 31.6229 31.6289C31.6648 31.9007 31.69 32.2812 31.6111 32.694C31.5313 33.1112 31.344 33.5651 30.9612 33.9622C30.6703 34.2638 30.2832 34.5154 29.7826 34.6968C29.8491 35.0226 29.8815 35.3919 29.8923 35.7394C29.9106 36.3242 29.8703 36.9546 29.7679 37.4097L29.7671 37.413C29.4767 38.6643 28.723 39.7316 27.3904 40.2624C27.0138 40.422 26.6105 40.44 26.3201 40.44C26.0439 40.44 25.8201 40.2161 25.8201 39.94C25.8201 39.6638 26.0439 39.44 26.3201 39.44C26.588 39.44 26.8216 39.4182 27.0031 39.3404L27.0157 39.335L27.0158 39.3352C27.9989 38.9453 28.5633 38.1747 28.7926 37.1886C28.87 36.8437 28.9095 36.3049 28.8928 35.7706C28.8824 35.4362 28.8508 35.1413 28.8069 34.916C28.672 34.9301 28.5104 34.9428 28.3264 34.9497C27.764 34.9711 26.9857 34.9392 26.1201 34.7255C25.8521 34.6593 25.6884 34.3883 25.7546 34.1202C25.8208 33.8521 26.0918 33.6885 26.3599 33.7547C27.1143 33.941 27.796 33.9691 28.2886 33.9505C28.5343 33.9411 28.7312 33.9202 28.8642 33.9022C28.9307 33.8931 28.9811 33.8848 29.0135 33.8791C29.0285 33.8764 29.0396 33.8743 29.0466 33.8729L29.059 33.8702C29.6561 33.7276 30.0181 33.4995 30.2413 33.268C30.466 33.0351 30.5787 32.7689 30.6289 32.5062C30.68 32.239 30.6652 31.9795 30.6346 31.7813L30.6337 31.7754L25.9242 31.217L25.9227 31.2168C24.414 31.0481 23.0656 32.1145 22.8969 33.6159L22.6754 35.5694L22.6734 35.581L22.6733 35.582L22.6719 35.591L22.6695 35.6084L22.6661 35.6349C22.6612 35.6752 22.6548 35.7365 22.6495 35.8147C22.6389 35.9718 22.6333 36.1936 22.6534 36.4481C22.6945 36.9655 22.8383 37.5704 23.2143 38.0527L23.2208 38.0609L23.2269 38.0695C23.3773 38.28 23.4941 38.5609 23.4569 38.8953L23.4556 38.9072L23.3754 39.4088C23.3433 39.6708 23.1992 40.1716 22.8675 40.6217C22.5209 41.0922 21.9502 41.5272 21.098 41.5398C19.8524 41.7257 18.7617 42.5033 18.1605 43.6167L15.5215 48.5548C14.4205 50.6259 15.9064 53.2455 18.1786 53.5H28.9379L29.3842 52.14L27.6837 51.1094C26.7236 50.5452 25.671 50.1884 24.5819 50.0567L20.7017 49.6174L22.3301 46.2618C22.4507 46.0134 22.7498 45.9097 22.9983 46.0303C23.2467 46.1508 23.3504 46.45 23.2298 46.6984L22.2183 48.7827L24.6999 49.0637C25.9291 49.212 27.1149 49.6147 28.1935 50.2491L28.1991 50.2525L29.7042 51.1647L31.9992 44.171C31.4569 43.3076 30.7726 42.7662 30.2098 42.4366C29.9093 42.2607 29.6452 42.1462 29.4591 42.0764C29.3662 42.0416 29.2933 42.0181 29.2456 42.0038C29.2217 41.9967 29.2043 41.9919 29.1938 41.9891L29.1839 41.9865L29.1829 41.9862L29.1827 41.9862C28.915 41.9216 28.7498 41.6526 28.8135 41.3845C28.8773 41.1159 29.1468 40.9498 29.4155 41.0137L29.3028 41.4879C29.4155 41.0137 29.4157 41.0137 29.4159 41.0138L29.4164 41.0139L29.4175 41.0141L29.4203 41.0148L29.428 41.0167L29.452 41.023C29.4717 41.0282 29.4988 41.0358 29.5326 41.0459C29.6002 41.0662 29.6945 41.0967 29.8101 41.14C30.0409 41.2266 30.358 41.3646 30.7151 41.5736C31.2327 41.8768 31.838 42.3316 32.3843 42.9974L32.625 42.264C32.6923 42.0587 32.884 41.9199 33.1001 41.9199H50.6801C50.8404 41.9199 50.991 41.9968 51.085 42.1266C51.179 42.2565 51.2051 42.4235 51.1551 42.5758L47.5703 53.5H54.5V54.5H19.6008C19.5561 54.5131 19.5089 54.5201 19.46 54.5201H18.54C18.3999 54.5201 18.2616 54.5133 18.1255 54.5H5.5V53.5H15.7792C14.2748 52.2313 13.621 49.9989 14.6385 48.0854L14.639 48.0844L17.279 43.1444L17.28 43.1426C18.0337 41.746 19.4093 40.7677 20.9903 40.545L21.025 40.5401H21.06C21.5468 40.5401 21.8543 40.3111 22.0625 40.0285C22.285 39.7265 22.3717 39.3869 22.3831 39.2849L22.3844 39.273L22.4637 38.7774C22.4644 38.7633 22.4626 38.7498 22.4578 38.7342C22.4519 38.7155 22.4403 38.6899 22.4179 38.6575C21.88 37.9619 21.7053 37.1418 21.6566 36.5271C21.6317 36.2141 21.6386 35.9422 21.6518 35.7474C21.6584 35.6497 21.6666 35.5705 21.6734 35.5143C21.6768 35.4862 21.6799 35.4637 21.6823 35.4475L21.6843 35.4338L21.9032 33.504ZM33.4622 42.9199L29.9904 53.4999H46.5179L49.9897 42.9199H33.4622ZM39.2512 32.8942L37.6048 39.4222C37.5373 39.69 37.2655 39.8523 36.9977 39.7848C36.73 39.7173 36.5676 39.4455 36.6352 39.1777L38.3544 32.3609C38.5461 31.562 39.5725 31.4623 39.9687 32.1227L39.9739 32.1314L43.7588 39.0603C43.8912 39.3026 43.802 39.6064 43.5597 39.7388C43.3173 39.8711 43.0136 39.782 42.8812 39.5397L39.2512 32.8942ZM10.9615 15.9615C11.5987 15.9615 12.1153 15.4449 12.1153 14.8077C12.1153 14.1704 11.5987 13.6538 10.9615 13.6538C10.3242 13.6538 9.80762 14.1704 9.80762 14.8077C9.80762 15.4449 10.3242 15.9615 10.9615 15.9615ZM16.9232 14.8077C16.9232 15.4449 16.4066 15.9615 15.7693 15.9615C15.1321 15.9615 14.6155 15.4449 14.6155 14.8077C14.6155 14.1704 15.1321 13.6538 15.7693 13.6538C16.4066 13.6538 16.9232 14.1704 16.9232 14.8077ZM20.5769 15.9615C21.2142 15.9615 21.7308 15.4449 21.7308 14.8077C21.7308 14.1704 21.2142 13.6538 20.5769 13.6538C19.9397 13.6538 19.4231 14.1704 19.4231 14.8077C19.4231 15.4449 19.9397 15.9615 20.5769 15.9615Z" fill="black"/>
</g>
<defs>
<clipPath id="clip0_143_941">
<rect width="50" height="50" fill="white" transform="translate(5 5)"/>
</clipPath>
</defs>
</svg>
