<svg width="60" height="60" viewBox="0 0 60 60" fill="none" xmlns="http://www.w3.org/2000/svg">
<g clip-path="url(#clip0_143_924)">
<path fill-rule="evenodd" clip-rule="evenodd" d="M26.3961 20.5103C26.6705 20.5414 26.8677 20.789 26.8367 21.0634L26.0967 27.5982L26.0963 27.6015C26.0443 28.034 26.0773 28.4771 26.1692 28.9379L27.1667 33.4631C27.349 34.2036 27.0871 34.9847 26.5002 35.483L18.9364 43.2355L19.7924 48.1394C19.8399 48.4114 19.6578 48.6704 19.3858 48.7179C19.1138 48.7654 18.8548 48.5834 18.8073 48.3113L17.8633 42.9034L25.8208 34.7474L25.8415 34.7302C26.1572 34.4697 26.2867 34.0656 26.1948 33.6984L26.1914 33.6847L25.1895 29.1389C25.0821 28.6027 25.0356 28.0487 25.1032 27.484L25.843 20.9509C25.8741 20.6765 26.1217 20.4792 26.3961 20.5103Z" fill="black"/>
<path fill-rule="evenodd" clip-rule="evenodd" d="M32.2099 27.4242C32.4846 27.452 32.6848 27.6973 32.657 27.972L31.9377 35.0799C31.8446 36.3059 31.1882 37.4157 30.1731 38.0991L19.3276 46.5809C19.1101 46.751 18.7958 46.7126 18.6257 46.4951C18.4556 46.2776 18.494 45.9633 18.7115 45.7932L29.5865 37.2883L29.6024 37.2777C30.376 36.7623 30.8725 35.922 30.9409 34.999L30.9419 34.9856L31.6621 27.8713C31.6899 27.5966 31.9352 27.3964 32.2099 27.4242Z" fill="black"/>
<path fill-rule="evenodd" clip-rule="evenodd" d="M32.0824 29.3042L37.1545 29.9452L37.1665 29.9473C37.6434 30.0314 38.118 30.3408 38.3361 30.8349L42.0013 38.8726H46.6197V39.8726H41.3582L37.4217 31.2398C37.36 31.0991 37.2004 30.9721 37.0032 30.934L31.957 30.2963L32.0824 29.3042Z" fill="black"/>
<path fill-rule="evenodd" clip-rule="evenodd" d="M35.4806 24.6941L39.7784 25.5729C39.7788 25.573 39.7792 25.5731 39.7796 25.5732C40.9652 25.8106 41.9317 26.7084 42.2619 27.8868L42.2619 27.8868L45.4419 39.2377L44.479 39.5075L41.299 28.1566C41.299 28.1566 41.299 28.1566 41.299 28.1566C41.0693 27.3369 40.3963 26.7162 39.5825 26.5536L39.5803 26.5531L39.5803 26.5531L35.2803 25.6738L35.4806 24.6941Z" fill="black"/>
<path fill-rule="evenodd" clip-rule="evenodd" d="M27.864 15.3747L27.8715 15.3671C27.8807 15.358 27.8957 15.3432 27.9164 15.3237C27.9577 15.2847 28.0214 15.2267 28.1058 15.1566C28.2748 15.0161 28.5243 14.8284 28.8404 14.6453C29.4753 14.2775 30.3556 13.941 31.3854 14.012L31.4542 13.0144C30.164 12.9255 29.0843 13.3484 28.3392 13.78C27.9653 13.9965 27.6698 14.2186 27.4664 14.3877C27.3644 14.4725 27.285 14.5445 27.2298 14.5966C27.2022 14.6227 27.1806 14.6438 27.1652 14.6592L27.1468 14.6778L27.1412 14.6836L27.1392 14.6856L27.1385 14.6864C27.1383 14.6865 27.1379 14.687 27.4998 15.032L27.1385 14.6864L19.2918 23.3266C18.672 23.9929 18.3062 24.8635 18.2604 25.7784L18.167 27.9491L18.9027 28.3575L26.5426 22.5442L25.937 21.7484L19.2146 26.8635L19.2592 25.8284C19.2592 25.8278 19.2592 25.8272 19.2593 25.8267C19.2938 25.1446 19.5671 24.498 20.0256 24.0059L27.864 15.3747Z" fill="black"/>
<path fill-rule="evenodd" clip-rule="evenodd" d="M34.0598 15.3714C34.2807 15.2056 34.5941 15.2503 34.7599 15.4711C34.9982 15.7886 35.1368 16.2714 35.2286 16.7273C35.3251 17.2066 35.3864 17.7483 35.4259 18.25C35.4656 18.7537 35.4841 19.2278 35.4926 19.5752C35.4951 19.6763 35.4968 19.7668 35.4979 19.8445L38.5549 17.7386C38.5547 17.7387 38.5552 17.7384 38.5549 17.7386C39.5025 17.0816 40.7928 17.319 41.4495 18.2621C42.0761 19.1509 41.9235 20.3643 41.078 21.0532L35.3619 25.8261C35.3616 25.8263 35.3614 25.8266 35.3611 25.8268C34.3479 26.6784 32.7622 26.3146 32.274 25.0452L30.8747 21.49C30.7736 21.233 30.8999 20.9427 31.1569 20.8416C31.4138 20.7404 31.7041 20.8668 31.8052 21.1237L33.2069 24.685C33.4395 25.292 34.2118 25.487 34.7181 25.0609L34.7195 25.0597L40.4448 20.2791C40.8763 19.9289 40.9629 19.3065 40.6316 18.8375L40.6294 18.8344C40.2859 18.3402 39.6168 18.2189 39.125 18.5602L39.1236 18.5611L35.9078 20.7765C35.411 21.1314 34.6953 20.9009 34.5192 20.2852L34.4996 20.2164L34.5 20.145L34.5 20.1431L34.5 20.1364L34.5 20.1086C34.5 20.0838 34.4999 20.047 34.4996 19.9996C34.4988 19.9047 34.4971 19.7675 34.4929 19.5999C34.4846 19.2642 34.4669 18.809 34.429 18.3285C34.391 17.846 34.3336 17.3485 34.2483 16.9248C34.1582 16.4776 34.0518 16.1936 33.9601 16.0714C33.7943 15.8506 33.839 15.5372 34.0598 15.3714Z" fill="black"/>
<path fill-rule="evenodd" clip-rule="evenodd" d="M12.4672 27.3809C12.2955 27.2093 12.017 27.2093 11.8453 27.3809L6.61267 32.6093C6.44092 32.7809 6.44092 33.0591 6.61267 33.2308L13.1605 39.7733C13.3322 39.945 13.6107 39.945 13.7825 39.7733L19.015 34.5449C19.1868 34.3733 19.1868 34.0951 19.015 33.9235L12.4672 27.3809ZM11.1379 26.6741C11.7003 26.1121 12.6122 26.1121 13.1746 26.6741L19.7224 33.2166C20.2849 33.7786 20.2849 34.6898 19.7224 35.2518L14.4898 40.4802C13.9274 41.0421 13.0155 41.0421 12.4531 40.4802L5.90528 33.9376C5.34285 33.3756 5.34285 32.4644 5.90528 31.9025L11.1379 26.6741Z" fill="black"/>
<path fill-rule="evenodd" clip-rule="evenodd" d="M17.4264 27.3161C17.1617 27.0515 16.758 27.0515 16.4933 27.3161L14.8133 28.9948L14.1064 28.2874L15.7864 26.6087C16.4417 25.954 17.478 25.954 18.1333 26.6087L19.7933 28.2674C20.4487 28.9223 20.4487 29.9585 19.7933 30.6135L18.1133 32.2921L17.4064 31.5847L19.0864 29.9061C19.351 29.6417 19.351 29.2391 19.0864 28.9748L17.4264 27.3161Z" fill="black"/>
<path fill-rule="evenodd" clip-rule="evenodd" d="M17.0665 37.2083L9.18652 29.3346L9.89335 28.6272L17.7733 36.5009L17.0665 37.2083Z" fill="black"/>
<path fill-rule="evenodd" clip-rule="evenodd" d="M36.982 8.50027C37.2563 8.46815 37.5046 8.66445 37.5368 8.93871C37.6538 9.93813 37.5675 11.0378 37.2213 11.9305C36.8757 12.8216 36.2227 13.6045 35.1705 13.711C34.8958 13.7388 34.6505 13.5386 34.6227 13.2638C34.5949 12.9891 34.7951 12.7438 35.0698 12.716C35.5977 12.6626 36.0146 12.2765 36.289 11.5689C36.5628 10.8629 36.6465 9.93411 36.5435 9.05503C36.5114 8.78077 36.7077 8.53239 36.982 8.50027Z" fill="black"/>
<path fill-rule="evenodd" clip-rule="evenodd" d="M34.1437 6.49614C33.2598 6.40756 32.4145 7.0706 32.2741 7.9745L32.1343 8.87261C32.0205 9.63127 32.0019 10.3881 32.0774 11.1241L32.0779 11.1288L32.0782 11.1321L32.0789 11.1403L32.0816 11.1706C32.0838 11.1968 32.087 11.2346 32.0907 11.2821C32.0981 11.377 32.1077 11.5111 32.1167 11.6688C32.1345 11.9806 32.1502 12.3935 32.14 12.7816C32.1383 13.0244 32.0559 13.2769 31.9985 13.4308C31.9663 13.517 31.9344 13.5916 31.9105 13.6448C31.8984 13.6716 31.8882 13.6934 31.8807 13.7091L31.8716 13.728L31.8688 13.7338L31.8678 13.7357L31.8673 13.7368C31.8673 13.7368 31.8672 13.737 31.42 13.5133L31.8673 13.7368C31.7437 13.9837 31.4432 14.084 31.1963 13.9604C30.9496 13.837 30.8495 13.537 30.9726 13.2902L30.9734 13.2885L30.9782 13.2785C30.9828 13.269 30.9897 13.2541 30.9983 13.235C31.0157 13.1964 31.0388 13.1424 31.0616 13.0812C31.1135 12.942 31.14 12.8285 31.14 12.7739V12.7603C31.1495 12.4107 31.1355 12.0268 31.1183 11.7257C31.1098 11.5761 31.1007 11.4492 31.0937 11.3599C31.0903 11.3153 31.0873 11.2801 31.0853 11.2564L31.0829 11.2297L31.0824 11.2235C30.9983 10.4021 31.0197 9.56153 31.1456 8.72283L31.146 8.72014L31.286 7.82105C31.2859 7.82111 31.286 7.82098 31.286 7.82105C31.5054 6.40857 32.8172 5.35369 34.2514 5.50194L34.262 5.50304L38.262 6.00275C38.3956 6.01943 38.5168 6.08925 38.5982 6.19643C38.6796 6.30361 38.7144 6.43908 38.6946 6.57223L38.5338 7.65709C38.4374 8.25867 38.1811 8.70176 37.9118 8.99675C37.7786 9.14269 37.6391 9.25588 37.5091 9.33474C37.4447 9.37383 37.3752 9.40901 37.3036 9.4345C37.2488 9.45405 37.1292 9.49186 36.9894 9.47189C36.716 9.43287 36.526 9.17963 36.565 8.90626C36.5971 8.68204 36.7732 8.51393 36.9863 8.48225C36.9876 8.48148 36.9889 8.48067 36.9903 8.47982C37.0323 8.45438 37.099 8.40396 37.1732 8.32258C37.3186 8.16329 37.4819 7.8978 37.5459 7.50166L37.6304 6.93163L34.1437 6.49614Z" fill="black"/>
<path fill-rule="evenodd" clip-rule="evenodd" d="M40.4004 38.8726H54.5004V54.5009H40.4004V38.8726ZM41.4004 39.8726V53.5009H53.5004V39.8726H41.4004Z" fill="black"/>
<path fill-rule="evenodd" clip-rule="evenodd" d="M14.2002 48.6248H28.3002V54.5009H14.2002V48.6248ZM15.2002 49.6248V53.5009H27.3002V49.6248H15.2002Z" fill="black"/>
<path fill-rule="evenodd" clip-rule="evenodd" d="M27.2998 43.7485H41.3998V54.5007H27.2998V43.7485ZM28.2998 44.7485V53.5007H40.3998V44.7485H28.2998Z" fill="black"/>
<path fill-rule="evenodd" clip-rule="evenodd" d="M5.5 53.5007H15.2V54.5007H5.5V53.5007Z" fill="black"/>
</g>
<defs>
<clipPath id="clip0_143_924">
<rect width="50" height="50" fill="white" transform="translate(5 5)"/>
</clipPath>
</defs>
</svg>
