<svg width="60" height="60" viewBox="0 0 60 60" fill="none" xmlns="http://www.w3.org/2000/svg">
<g clip-path="url(#clip0_143_881)">
<path fill-rule="evenodd" clip-rule="evenodd" d="M5.62901 38.6657C5.8686 37.5524 6.25518 36.4578 6.7705 35.4336L7.6638 35.8831C7.18612 36.8324 6.82789 37.8473 6.60629 38.8777L6.60555 38.8811C6.3862 39.8676 7.02533 40.8794 8.11332 41.145C8.64253 41.2678 9.18175 41.297 9.69932 41.2217L15.5704 40.3708L15.7138 41.3605L9.84318 42.2113C9.84311 42.2114 9.84325 42.2113 9.84318 42.2113C9.191 42.3061 8.52486 42.2675 7.8843 42.1185L7.87947 42.1173C6.30894 41.7356 5.28207 40.2305 5.62901 38.6657Z" fill="black"/>
<path fill-rule="evenodd" clip-rule="evenodd" d="M17.9275 24.6147C18.0116 24.8777 17.8666 25.1591 17.6036 25.2432L13.7192 26.4855C13.0877 26.6875 12.57 27.103 12.2625 27.6363C12.2623 27.6366 12.2621 27.6369 12.262 27.6372L9.47839 32.5193C9.34161 32.7592 9.03627 32.8428 8.79638 32.706C8.55649 32.5693 8.4729 32.2639 8.60967 32.024L11.3954 27.1381C11.8329 26.3786 12.5566 25.8074 13.4146 25.533L17.299 24.2907C17.562 24.2066 17.8434 24.3517 17.9275 24.6147Z" fill="black"/>
<path fill-rule="evenodd" clip-rule="evenodd" d="M27.8445 37.3872L28.8378 37.5028L28.4654 40.7015C28.4654 40.7016 28.4654 40.7014 28.4654 40.7015C28.3099 42.0525 28.2957 44.0907 28.3223 45.812C28.3355 46.6683 28.3587 47.4385 28.3786 47.9948C28.3885 48.2728 28.3976 48.4972 28.4042 48.6519C28.4075 48.7292 28.4102 48.7891 28.412 48.8296L28.4141 48.8754L28.4148 48.8898L27.9155 48.9148C27.416 48.939 27.416 48.9389 27.416 48.9389L27.4153 48.9225L27.4131 48.8752C27.4112 48.8338 27.4084 48.7729 27.4051 48.6945C27.3984 48.5378 27.3892 48.3111 27.3792 48.0305C27.3591 47.4694 27.3358 46.6921 27.3224 45.8275C27.2958 44.1072 27.3082 42.0094 27.472 40.5865L27.8445 37.3872Z" fill="black"/>
<path fill-rule="evenodd" clip-rule="evenodd" d="M11.4707 48.9168L11.7013 41.344L12.7008 41.3744L12.4702 48.9472L11.4707 48.9168Z" fill="black"/>
<path fill-rule="evenodd" clip-rule="evenodd" d="M49.8103 31.6763L52.3324 31.8066C52.7982 31.8329 53.2285 32.0921 53.4731 32.4831L53.4766 32.4888L54.415 34.0348C55.018 35.0039 54.2427 36.1412 53.191 36.1412H52.6778L50.9396 37.9621H49.4682L40.7936 43.3987C40.7934 43.3988 40.7939 43.3986 40.7936 43.3987C40.1088 43.8304 39.3385 44.0975 38.5246 44.155C37.1135 44.2672 35.7364 43.7974 34.7107 42.8529C34.191 42.3905 33.7543 41.8417 33.3973 41.2648L33.3951 41.2612L30.081 35.8031C29.8726 35.4752 29.7037 35.1331 29.5482 34.8181L29.543 34.8075C29.4207 34.5599 29.5224 34.26 29.77 34.1378C30.0176 34.0155 30.3174 34.1172 30.4397 34.3648C30.6012 34.6921 30.7493 34.9909 30.9274 35.2705L30.9332 35.2795L34.2487 40.7404C34.5647 41.2507 34.9424 41.7211 35.3784 42.1084L35.3854 42.1147C36.2034 42.8693 37.3068 43.2492 38.4474 43.158L38.4522 43.1576C39.0916 43.1128 39.7044 42.9032 40.2603 42.5528L40.2614 42.5521L49.1807 36.9621H50.5117L52.2499 35.1412H53.191C53.5573 35.1412 53.7037 34.7834 53.5653 34.5619L53.5617 34.5563L52.6238 33.0111C52.549 32.8931 52.413 32.8131 52.277 32.805C52.2767 32.805 52.2773 32.8051 52.277 32.805L50.1866 32.697L47.5798 35.165L42.8432 36.645C42.8426 36.6452 42.842 36.6454 42.8414 36.6456C42.6281 36.7135 42.4039 36.7313 42.187 36.7022L38.0816 36.5146L38.0713 36.5137C37.3644 36.452 36.6691 36.527 35.9824 36.7126L35.8996 36.7444L35.8816 36.7498C35.0441 37.0009 34.1232 36.481 33.9847 35.5819L33.8437 34.6857C33.7086 33.9161 34.2126 33.2222 34.9453 33.0453L36.9339 32.5513C37.5816 32.396 38.2522 32.5515 38.7605 32.9506L38.7642 32.9535L42.0862 35.6124C42.2004 35.7063 42.3775 35.744 42.5386 35.6925L42.5417 35.6915L47.0605 34.2796L49.8103 31.6763ZM40.5005 35.6241L38.1477 35.5166C37.3055 35.4445 36.4868 35.5374 35.6945 35.7546L35.6707 35.7611L35.5793 35.7962C35.2876 35.8744 35.0117 35.6824 34.973 35.4293L34.8308 34.5254L34.829 34.5147C34.7904 34.3004 34.9231 34.079 35.1807 34.0172L37.169 33.5233C37.5133 33.4413 37.8699 33.5236 38.1413 33.7358L40.5005 35.6241Z" fill="black"/>
<path fill-rule="evenodd" clip-rule="evenodd" d="M44.4602 11.3789L44.5735 13.662C44.5735 13.6617 44.5735 13.6623 44.5735 13.662C44.6237 14.6008 44.3558 15.3274 44.0261 15.8275C43.8626 16.0753 43.6828 16.2697 43.5166 16.4084C43.4338 16.4774 43.349 16.5372 43.2656 16.5833C43.1963 16.6216 43.0784 16.6788 42.9404 16.689C42.665 16.7093 42.4253 16.5026 42.405 16.2272C42.3866 15.978 42.5541 15.7581 42.7901 15.7034C42.8082 15.6925 42.8377 15.6725 42.876 15.6405C42.9647 15.5665 43.0797 15.4461 43.1912 15.277C43.4112 14.9433 43.6132 14.4271 43.575 13.7156L43.5748 13.7136L43.5109 12.425L37.9095 12.6906C37.9093 12.6906 37.9098 12.6906 37.9095 12.6906C36.1572 12.7803 34.8527 14.1837 34.9424 15.8054L34.9425 15.8074L35.1199 19.2619C35.1665 20.1863 35.5706 21.0548 36.2437 21.7006L36.4067 21.857L36.3145 24.0246L31.6636 26.7127C31.6631 26.713 31.6626 26.7134 31.662 26.7137C31.1622 27.0078 30.7294 27.3777 30.3781 27.8068C30.2031 28.0204 29.8881 28.0518 29.6744 27.8768C29.4608 27.7019 29.4294 27.3868 29.6044 27.1732C30.0331 26.6497 30.5575 26.2031 31.1567 25.8507L31.16 25.8488L35.3387 23.4336L35.3887 22.2584C34.6335 21.4597 34.1771 20.421 34.1212 19.3127L33.9439 15.8606C33.9439 15.8603 33.9439 15.8599 33.9439 15.8596C33.8214 13.636 35.6033 11.8068 37.8587 11.6919L37.8604 11.6918L44.4602 11.3789Z" fill="black"/>
<path fill-rule="evenodd" clip-rule="evenodd" d="M53.3937 38.8777C53.1721 37.8473 52.8139 36.8324 52.3362 35.8831L53.2295 35.4336C53.7448 36.4578 54.1314 37.5524 54.371 38.6657C54.7179 40.2305 53.691 41.7356 52.1205 42.1173L52.1157 42.1185C51.4751 42.2675 50.8092 42.3062 50.157 42.2114C50.1569 42.2114 50.1571 42.2114 50.157 42.2114L44.2861 41.3605L44.4296 40.3708L50.3004 41.2217C50.818 41.297 51.3574 41.2678 51.8866 41.145C52.9746 40.8794 53.6138 39.8676 53.3944 38.8811L53.3937 38.8777Z" fill="black"/>
<path fill-rule="evenodd" clip-rule="evenodd" d="M42.3378 24.246C42.447 23.9924 42.7411 23.8753 42.9947 23.9845L46.6108 25.5415C47.439 25.8185 48.1356 26.3686 48.569 27.1212L48.5698 27.1225L51.3722 32.0236C51.5093 32.2633 51.4261 32.5687 51.1864 32.7058C50.9467 32.8429 50.6412 32.7597 50.5041 32.52L47.7025 27.6203C47.7024 27.6201 47.7026 27.6205 47.7025 27.6203C47.3949 27.0866 46.8936 26.6864 46.2774 26.4845L46.256 26.4775L42.5993 24.903C42.3456 24.7938 42.2286 24.4996 42.3378 24.246Z" fill="black"/>
<path fill-rule="evenodd" clip-rule="evenodd" d="M31.5345 40.7015L31.1621 37.5028L32.1554 37.3872L32.5279 40.5865C32.6916 42.0094 32.7041 44.1072 32.6775 45.8275C32.6641 46.6921 32.6407 47.4694 32.6207 48.0305C32.6107 48.3111 32.6015 48.5378 32.5948 48.6945C32.5914 48.7729 32.5887 48.8338 32.5868 48.8752L32.5846 48.9225L32.5839 48.9389C32.5839 48.9389 32.5839 48.939 32.0844 48.9148L31.585 48.8906L31.5857 48.8754L31.5879 48.8296C31.5897 48.7891 31.5924 48.7292 31.5957 48.6519C31.6023 48.4972 31.6114 48.2728 31.6213 47.9948C31.6412 47.4385 31.6644 46.6683 31.6776 45.812C31.7042 44.0907 31.69 42.0525 31.5345 40.7015C31.5345 40.7016 31.5345 40.7014 31.5345 40.7015Z" fill="black"/>
<path fill-rule="evenodd" clip-rule="evenodd" d="M47.9748 48.9761L47.3008 41.4033L48.2968 41.3147L48.9708 48.8875L47.9748 48.9761Z" fill="black"/>
<path fill-rule="evenodd" clip-rule="evenodd" d="M42.8768 15.674C43.1525 15.6596 43.3878 15.8714 43.4023 16.1472L43.5443 18.8551C43.604 20.0965 43.1652 21.2994 42.2943 22.2309C41.7115 22.8664 40.9545 23.303 40.147 23.5298C39.8812 23.6044 39.6051 23.4494 39.5305 23.1836C39.4558 22.9177 39.6108 22.6417 39.8767 22.567C40.5227 22.3856 41.113 22.0401 41.5587 21.5535L41.5623 21.5495C42.2509 20.8139 42.5918 19.8738 42.5455 18.9042L42.4036 16.1995C42.3892 15.9238 42.601 15.6885 42.8768 15.674Z" fill="black"/>
<path fill-rule="evenodd" clip-rule="evenodd" d="M14.3869 11.3618L20.9885 11.6748C23.2486 11.79 25.0056 13.6225 24.9034 15.839L24.9033 15.8416L24.7259 19.2961C24.7259 19.296 24.7259 19.2961 24.7259 19.2961C24.6698 20.3915 24.2113 21.4283 23.4582 22.2383L23.507 23.385L28.8173 25.8189L28.8356 25.8292C30.8235 26.9512 31.8714 29.1331 31.458 31.3257C31.458 31.3259 31.4581 31.3254 31.458 31.3257L31.2631 32.3797C31.0391 33.5798 30.5912 34.7442 29.9385 35.8003C29.9382 35.8009 29.9378 35.8015 29.9374 35.8021L26.6228 41.2613L26.6205 41.2649C26.2636 41.8417 25.8268 42.3905 25.3071 42.853C24.2814 43.7975 22.9042 44.2673 21.4931 44.1551C20.6792 44.0975 19.9097 43.8308 19.2248 43.3991C19.2246 43.399 19.225 43.3993 19.2248 43.3991L10.5497 37.9621H9.07827L7.34006 36.1413H6.8268C5.77516 36.1413 4.99986 35.0039 5.60282 34.0348L6.54472 32.4832C6.78926 32.0921 7.21962 31.8329 7.68546 31.8066L7.68784 31.8065L10.2076 31.6763L12.957 34.2793L17.7004 35.7522C17.7225 35.7466 17.7453 35.7425 17.7685 35.7399L21.2573 32.9336C21.7656 32.5345 22.4362 32.379 23.0839 32.5344L23.0878 32.5353L25.0704 33.0279C25.0711 33.028 25.0718 33.0282 25.0724 33.0284C25.8052 33.2052 26.3093 33.8991 26.1742 34.6687L26.0333 35.5639C26.0333 35.5642 26.0332 35.5646 26.0332 35.565C25.8947 36.464 24.9737 36.9839 24.1362 36.7328L24.1182 36.7274L24.0355 36.6957C23.3487 36.51 22.6534 36.4351 21.9465 36.4967L21.9394 36.4974L17.9802 36.7286C17.8029 36.7735 17.6118 36.773 17.4254 36.7139C17.4246 36.7136 17.4238 36.7134 17.423 36.7131L12.4384 35.1653L9.83125 32.6971L7.74181 32.805C7.74144 32.8051 7.74107 32.8051 7.7407 32.8051C7.60473 32.8132 7.46888 32.8932 7.39405 33.0111L6.45261 34.562C6.31413 34.7834 6.46058 35.1413 6.8268 35.1413H7.76795L9.50615 36.9621H10.8372L19.7575 42.5528C20.3134 42.9033 20.9262 43.1128 21.5656 43.1577L21.5704 43.1581C22.711 43.2493 23.8145 42.8694 24.6325 42.1148L24.6394 42.1084C25.0754 41.7211 25.4531 41.2507 25.7691 40.7404C25.7695 40.7398 25.7698 40.7392 25.7702 40.7386L29.0848 35.2797L29.0869 35.2762C29.675 34.325 30.0782 33.2772 30.2798 32.1979M30.2798 32.1979L30.4749 31.1428L30.4752 31.141C30.8052 29.3922 29.9803 27.633 28.3619 26.7102L22.5339 24.039L22.4405 21.8433L22.5993 21.6875C23.2777 21.0215 23.6808 20.1507 23.7272 19.2449L23.9045 15.7929C23.9045 15.7924 23.9045 15.7919 23.9045 15.7915C23.9789 14.1628 22.6858 12.763 20.9384 12.6736C20.9381 12.6736 20.9387 12.6736 20.9384 12.6736L15.3362 12.408L15.2723 13.6965L15.2722 13.6983C15.2338 14.4197 15.4366 14.9401 15.6559 15.2726C15.7671 15.4413 15.881 15.5593 15.9673 15.6299C15.9992 15.6559 16.024 15.6728 16.0401 15.6826C16.27 15.7276 16.4435 15.9302 16.4435 16.1733C16.4435 16.4494 16.2196 16.6733 15.9435 16.6733C15.7921 16.6733 15.6634 16.6146 15.5924 16.5776C15.5055 16.5324 15.4182 16.4726 15.3344 16.404C15.1657 16.2661 14.9848 16.0715 14.821 15.8231C14.4906 15.3219 14.2234 14.5919 14.2735 13.646C14.2735 13.6463 14.2736 13.6457 14.2735 13.646L14.3869 11.3618M19.4898 35.6387L21.8669 35.4999C22.7102 35.4273 23.5301 35.5202 24.3233 35.7376L24.3472 35.7442L24.4385 35.7793C24.7303 35.8575 25.0061 35.6654 25.0449 35.4124L25.0452 35.4104L25.1888 34.4977C25.2273 34.2834 25.0947 34.0621 24.8372 34.0003L24.8332 33.9993L22.8506 33.5068C22.8501 33.5066 22.8495 33.5065 22.849 33.5064C22.5048 33.4244 22.1483 33.5065 21.8769 33.7186L19.4898 35.6387Z" fill="black"/>
<path fill-rule="evenodd" clip-rule="evenodd" d="M15.9698 15.674C16.2455 15.6885 16.4573 15.9238 16.4429 16.1995L16.301 18.9042C16.2547 19.8738 16.5956 20.8139 17.2842 21.5496L17.2878 21.5535L17.2878 21.5535C17.7335 22.0401 18.3238 22.3856 18.9698 22.567C19.2357 22.6417 19.3907 22.9177 19.316 23.1836C19.2414 23.4494 18.9653 23.6044 18.6995 23.5298C17.892 23.303 17.135 22.8664 16.5522 22.2309C15.6814 21.2994 15.2425 20.0965 15.3023 18.8551L15.3024 18.8529L15.3024 18.8529L15.4443 16.1472C15.4587 15.8714 15.694 15.6596 15.9698 15.674Z" fill="black"/>
<path fill-rule="evenodd" clip-rule="evenodd" d="M23.3131 23.3197C23.5298 23.4908 23.5668 23.8052 23.3957 24.022L21.5674 26.3382C21.4197 26.5236 21.3501 26.767 21.3722 26.9959L22.0636 33.2895C22.0938 33.564 21.8957 33.8109 21.6212 33.8411C21.3467 33.8712 21.0998 33.6732 21.0696 33.3987L20.3773 27.097C20.3292 26.6123 20.4722 26.1084 20.7846 25.7159L22.6108 23.4024C22.7819 23.1856 23.0963 23.1486 23.3131 23.3197Z" fill="black"/>
<path fill-rule="evenodd" clip-rule="evenodd" d="M17.1945 24.3214C17.4313 24.1795 17.7384 24.2564 17.8804 24.4933L18.6979 25.8574C18.8907 26.1839 18.9661 26.4726 18.941 26.7894C18.9298 26.9309 18.8995 27.0643 18.8691 27.1832C18.8539 27.2423 18.8406 27.2916 18.8275 27.3403C18.8104 27.4033 18.7937 27.4652 18.7737 27.546L17.5878 33.7276C17.5358 33.9988 17.2738 34.1765 17.0026 34.1245C16.7314 34.0725 16.5537 33.8104 16.6057 33.5392L17.7965 27.3324L17.7995 27.32C17.8211 27.2321 17.8472 27.1347 17.8689 27.0538C17.8814 27.0073 17.8924 26.9662 17.9002 26.9356C17.9269 26.8311 17.9398 26.7645 17.9441 26.7103C17.95 26.6359 17.9456 26.5505 17.8376 26.3673L17.0226 25.0073C16.8807 24.7705 16.9576 24.4634 17.1945 24.3214Z" fill="black"/>
<path fill-rule="evenodd" clip-rule="evenodd" d="M35.4056 23.4162C35.5691 23.1936 35.882 23.1457 36.1046 23.3092L38.6755 25.1975C38.6757 25.1976 38.6759 25.1977 38.6761 25.1979C39.1786 25.5655 39.4658 26.1415 39.4658 26.7583V33.8035C39.4658 34.0797 39.2419 34.3035 38.9658 34.3035C38.6896 34.3035 38.4658 34.0797 38.4658 33.8035V26.7583C38.4658 26.4564 38.3275 26.1817 38.0854 26.0048L38.0845 26.0041L35.5126 24.1152C35.2901 23.9517 35.2422 23.6388 35.4056 23.4162Z" fill="black"/>
<path fill-rule="evenodd" clip-rule="evenodd" d="M43.168 24.1081C43.3534 24.3127 43.3378 24.6289 43.1332 24.8144L42.1831 25.6752C42.1578 25.7019 42.1052 25.79 42.0818 26.0059C42.0593 26.213 42.0714 26.4664 42.1037 26.7345L43.2894 33.2718C43.3387 33.5435 43.1584 33.8037 42.8867 33.853C42.615 33.9023 42.3548 33.7219 42.3055 33.4502L41.1145 26.8844L41.1128 26.8701C41.0753 26.5647 41.0528 26.2193 41.0876 25.8981C41.121 25.5903 41.216 25.2172 41.4935 24.9509L41.4986 24.946L42.4617 24.0733C42.6663 23.8879 42.9825 23.9035 43.168 24.1081Z" fill="black"/>
</g>
<defs>
<clipPath id="clip0_143_881">
<rect width="50" height="38" fill="white" transform="translate(5 11)"/>
</clipPath>
</defs>
</svg>
