<svg width="307" height="56" viewBox="0 0 307 56" fill="none" xmlns="http://www.w3.org/2000/svg">
<g clip-path="url(#clip0_3_2246)">
<path d="M254.32 37.7572V34.0303C261.232 33.6144 265.54 31.719 265.54 31.719V34.6221H258.036V39.6207H265.54V41.8601H271.763V11.7727C271.763 10.709 270.369 9.84521 268.647 9.84521C266.926 9.84521 265.54 10.709 265.54 11.7727L265.516 26.1366C265.516 26.1366 259.806 28.4639 253.159 28.7918C246.881 29.0957 240.058 28.8718 240.058 28.8718V34.0943H246.937C247.353 34.0943 247.73 34.0943 248.098 34.0783V37.7492H254.32V37.7572Z" fill="#1A1A1A"/>
<path d="M77.9365 37.9652C77.9365 36.9015 76.5431 36.0377 74.8213 36.0377C73.0995 36.0377 71.7061 36.9015 71.7061 37.9652V49.7298H98.0295V44.3873H77.9285V37.9652H77.9365Z" fill="#1A1A1A"/>
<path d="M126.524 21.9218C127.381 20.5782 127.869 19.0106 127.869 17.3311C127.869 12.3725 123.665 8.34167 118.227 8.34167C112.79 8.34167 108.625 12.3725 108.625 17.3311C108.625 19.0106 109.09 20.5702 109.907 21.8978V27.8241H101.025V32.9986H135.79V27.8241H126.524V21.9298V21.9218ZM118.227 13.7961C120.229 13.7961 121.927 15.2997 121.927 17.3311C121.927 19.3625 120.197 20.8581 118.227 20.8581C116.257 20.8581 114.527 19.3225 114.527 17.3311C114.527 15.3397 116.257 13.7961 118.227 13.7961ZM116.049 27.8161V26.0566C116.746 26.2006 117.475 26.2726 118.235 26.2726C118.996 26.2726 119.701 26.1926 120.39 26.0486V27.8081H116.049V27.8161Z" fill="#1A1A1A"/>
<path d="M76.4873 25.5767C76.4873 25.5767 77.7847 27.7601 80.0511 29.9115C82.1973 31.9429 85.777 33.6784 85.777 33.6784L88.7882 28.9358C88.7882 28.9358 84.6158 27.0323 81.901 23.4013C79.6987 20.4582 79.6026 16.7472 79.6026 13.932V11.7727C79.6026 10.709 78.2091 9.84521 76.4873 9.84521C74.7656 9.84521 73.3721 10.709 73.3721 11.7727V13.932C73.3721 16.7472 73.268 20.4582 71.0737 23.4013C68.3589 27.0243 64.1865 28.9358 64.1865 28.9358L67.1977 33.6784C67.1977 33.6784 70.7774 31.9509 72.9236 29.9115C75.19 27.7601 76.4873 25.5847 76.4873 25.5767Z" fill="#1A1A1A"/>
<path d="M95.1631 9.84521C93.4413 9.84521 92.0479 10.709 92.0479 11.7727V40.6044H98.2703V11.7727C98.2703 10.709 96.8769 9.84521 95.1551 9.84521H95.1631Z" fill="#1A1A1A"/>
<path d="M190.935 27.1283L199.504 27.1683C199.504 27.1683 199.576 11.9167 199.576 11.8287C199.576 10.765 198.191 9.89327 196.477 9.88527C194.755 9.88527 193.346 10.733 193.346 11.7967V14.0361L182.887 13.9881V11.7487C182.903 10.685 181.509 9.8133 179.795 9.8053C178.074 9.8053 176.68 10.6531 176.672 11.7168L176.6 27.0564L184.713 27.0964V28.9038L169.857 28.8399L169.833 34.0144L204.389 34.1663L204.413 28.9918L190.927 28.9278V27.1204L190.935 27.1283ZM182.847 21.8739L182.863 19.1706L193.321 19.2186L193.305 21.9218L182.847 21.8739Z" fill="#1A1A1A"/>
<path d="M176.615 40.6524H193.257V49.7298H199.527V35.3899H176.615V40.6524Z" fill="#1A1A1A"/>
<path d="M217.506 27.7521C222.751 27.7521 226.804 23.7612 226.804 18.8506C226.804 13.94 222.751 9.90918 217.506 9.90918C212.26 9.90918 208.24 13.916 208.24 18.8506C208.24 23.7852 212.188 27.7521 217.506 27.7521ZM217.506 15.3396C219.436 15.3396 221.078 16.8352 221.078 18.8506C221.078 20.866 219.412 22.3616 217.506 22.3616C215.6 22.3616 213.934 20.8341 213.934 18.8506C213.934 16.8672 215.6 15.3396 217.506 15.3396Z" fill="#1A1A1A"/>
<path d="M251.935 27.7521C257.18 27.7521 261.24 23.7612 261.24 18.8506C261.24 13.94 257.18 9.90918 251.935 9.90918C246.689 9.90918 242.669 13.916 242.669 18.8506C242.669 23.7852 246.617 27.7521 251.935 27.7521ZM251.935 15.3396C253.873 15.3396 255.506 16.8352 255.506 18.8506C255.506 20.866 253.841 22.3616 251.935 22.3616C250.029 22.3616 248.371 20.8341 248.371 18.8506C248.371 16.8672 250.037 15.3396 251.935 15.3396Z" fill="#1A1A1A"/>
<path d="M118.227 33.4865C112.813 33.4865 108.625 37.5173 108.625 42.4679C108.625 47.4185 112.717 51.4173 118.227 51.4173C123.737 51.4173 127.869 47.4025 127.869 42.4679C127.869 37.5333 123.665 33.4865 118.227 33.4865ZM118.227 46.0029C116.257 46.0029 114.527 44.4673 114.527 42.4759C114.527 40.4845 116.257 38.9489 118.227 38.9489C120.197 38.9489 121.927 40.4525 121.927 42.4759C121.927 44.4993 120.197 46.0029 118.227 46.0029Z" fill="#1A1A1A"/>
<path d="M254.32 41.2122C254.32 40.1485 252.927 39.2848 251.205 39.2848C249.483 39.2848 248.09 40.1485 248.09 41.2122V49.7378H271.754V44.3953H254.312V41.2202L254.32 41.2122Z" fill="#1A1A1A"/>
<path d="M164.787 9.84528C163.065 9.84528 161.68 10.709 161.68 11.7727L161.656 33.2546C161.656 33.2546 157.451 35.1181 151.942 35.1181V32.2949C155.481 31.0072 157.836 27.8881 157.836 24.1452C157.836 22.4177 157.195 20.5942 156.154 19.2266H159.229V14.0041H151.782V11.7967C151.782 11.7967 151.782 11.7727 151.782 11.7647C151.782 10.701 150.388 9.83728 148.666 9.83728C146.944 9.83728 145.551 10.701 145.551 11.7647V14.0041H137.647V19.2266H140.914C139.905 20.6182 139.288 22.4497 139.288 24.1452C139.288 29.6876 143.853 31.959 145.719 32.4948L145.703 35.39H136.237V40.6125L142.86 40.5725C158.02 40.5725 161.68 38.5731 161.68 38.5731V43.2357H167.902V11.7727C167.902 10.709 166.509 9.84528 164.787 9.84528ZM148.538 27.5602C146.528 27.5602 145.055 26.0007 145.055 24.1132C145.055 22.2257 146.528 20.6262 148.538 20.6262C150.548 20.6262 152.022 22.2097 152.022 24.1132C152.022 26.0167 150.596 27.5602 148.538 27.5602Z" fill="#1A1A1A"/>
<path d="M303.884 9.84528C302.163 9.84528 300.769 10.709 300.769 11.7727L300.745 33.2546C300.745 33.2546 296.541 35.1181 291.031 35.1181V32.2949C294.571 31.0072 296.925 27.8881 296.925 24.1452C296.925 22.4177 296.284 20.5942 295.243 19.2266H298.311V14.0041H290.863V11.7967C290.863 11.7967 290.863 11.7727 290.863 11.7647C290.863 10.701 289.469 9.83728 287.748 9.83728C286.026 9.83728 284.632 10.701 284.632 11.7647V14.0041H276.728V19.2266H279.995C278.986 20.6182 278.37 22.4497 278.37 24.1452C278.37 29.6876 282.935 31.959 284.801 32.4948L284.784 35.39H274.55V40.6125L281.942 40.5805C297.101 40.5805 300.761 38.5651 300.761 38.5651V43.2277H306.984V11.7727C306.984 10.709 305.59 9.84528 303.868 9.84528H303.884ZM287.635 27.5602C285.625 27.5602 284.152 26.0007 284.152 24.1132C284.152 22.2257 285.625 20.6262 287.635 20.6262C289.646 20.6262 291.119 22.2097 291.119 24.1132C291.119 26.0167 289.694 27.5602 287.635 27.5602Z" fill="#1A1A1A"/>
<path d="M234.228 9.84521C232.506 9.84521 231.113 10.709 231.113 11.7727L231.089 26.1366C231.089 26.1366 226.428 28.4639 219.781 28.7918C213.502 29.0957 206.423 28.8718 206.423 28.8718V34.0943L211.42 34.0543C212.693 34.0543 213.23 34.0383 214.359 34.0223V43.2437H220.582V33.7904C227.981 33.3425 231.121 31.727 231.121 31.727V43.2357H237.343V11.7727C237.343 10.709 235.95 9.84521 234.236 9.84521H234.228Z" fill="#1A1A1A"/>
<path d="M55.9621 27.4241C55.9461 26.6803 55.8981 25.9445 55.818 25.2087C55.7459 24.473 55.6338 23.7452 55.5056 23.0174C55.3695 22.2976 55.2334 21.5858 55.0412 20.874C54.849 20.1622 54.6488 19.4504 54.4005 18.7546C54.1522 18.0588 53.888 17.347 53.5917 16.6752C53.2953 16.0034 52.975 15.3236 52.6226 14.6758C52.2703 14.0279 51.9179 13.3881 51.5095 12.7723C50.8928 11.8526 50.4204 11.1648 49.7957 10.389C49.2271 9.67718 48.9789 9.41326 48.7306 9.14134C48.6105 9.00538 48.0979 8.43754 48.0419 8.42154C47.9378 8.34956 47.7936 8.36556 47.6975 8.45353C47.5934 8.5575 47.6014 8.72546 47.6975 8.84542C47.8817 9.08535 48.146 9.38927 48.4503 9.87713C48.6986 10.269 50.8848 13.1082 51.7818 17.8668C52.4545 21.4658 52.4224 26.2724 49.8998 31.303C45.311 40.4444 34.9562 44.7632 25.4503 42.1239V42.1079C29.7188 42.4758 33.9552 40.1885 35.8612 36.0936C38.3117 30.8471 36.0374 24.6169 30.7919 22.1696C25.5384 19.7223 19.2999 21.9937 16.8574 27.2402C14.9434 31.335 15.9124 36.0457 18.9395 39.0768L19.0997 39.2287V39.2527C10.8431 33.9103 7.20731 23.3533 10.9792 13.876C13.0614 8.64548 16.6331 5.4224 19.7644 3.52694C23.9127 1.03165 27.4844 0.767729 27.9489 0.69575C28.5175 0.599777 28.9179 0.591779 29.2223 0.575784C29.3744 0.575784 29.5026 0.471814 29.5186 0.319857C29.5186 0.183896 29.4385 0.0719279 29.3184 0.039937C29.2623 0.00794615 28.5015 0.00794615 28.3173 0.00794615C27.9489 0.00794615 27.5886 -5.15678e-05 26.6756 0.0479347C25.6826 0.103919 24.8497 0.207889 23.7526 0.359846C23.0158 0.463816 22.3111 0.62377 21.5903 0.791722C20.8696 0.959674 20.1568 1.17561 19.4521 1.39955C18.7473 1.62348 18.0426 1.89541 17.3619 2.17533C16.6812 2.45525 16.0165 2.77516 15.3598 3.11106C14.7031 3.44696 14.0865 3.81486 13.4538 4.19075C12.8212 4.57464 12.2045 4.98252 11.6119 5.4144C11.0113 5.84628 10.4267 6.30215 9.85808 6.78201C9.28948 7.26187 8.74492 7.76573 8.21636 8.29358C7.68781 8.82143 7.17528 9.37327 6.69478 9.94111C6.20627 10.5169 5.74178 11.1088 5.29332 11.7246C4.84485 12.3404 4.42842 12.9802 4.03601 13.6361C3.63559 14.2999 3.26721 14.9797 2.92285 15.6755C2.57849 16.3793 2.25815 17.0911 1.96985 17.8189C-3.37171 31.367 2.62654 46.5786 15.4079 52.9928L16.9615 53.7206C16.9695 53.7206 17.7463 54.0405 17.7463 54.0405C31.0482 59.303 46.4082 53.6486 52.975 40.6523C53.3274 39.9565 53.6557 39.2367 53.944 38.5169C54.2323 37.7971 54.4966 37.0694 54.7288 36.3336C54.9531 35.6058 55.1533 34.87 55.3215 34.1182C55.4816 33.3824 55.6178 32.6386 55.7219 31.8868C55.826 31.1431 55.8981 30.3993 55.9381 29.6555C55.9781 28.9117 55.9942 28.1679 55.9781 27.4241" fill="#EF8200"/>
</g>
<defs>
<clipPath id="clip0_3_2246">
<rect width="307" height="56" fill="white"/>
</clipPath>
</defs>
</svg>
