<svg width="336" height="56" viewBox="0 0 336 56" fill="none" xmlns="http://www.w3.org/2000/svg">
<g clip-path="url(#clip0_3_2170)">
<path d="M46.0001 0.644904C45.9696 0.538266 45.7919 0 45.1571 0H25.1048C23.9724 0 22.8604 0.299601 21.8804 0.863257L3.22442 11.6337C1.23391 12.7813 0 14.9242 0 17.2194V38.7653C0 41.0707 1.22883 43.1984 3.22442 44.3511L8.31241 47.2862C8.75418 47.5401 9.29243 47.5401 9.7342 47.2862L20.9054 40.7914C21.205 40.6188 21.205 40.1872 20.9054 40.0145L12.593 35.2158V20.835L12.8368 20.6268L23.5713 14.4266L45.5938 1.62495C46.1422 1.30504 46.0254 0.751542 46.0001 0.644904Z" fill="#00489D"/>
<path d="M50.2144 38.7755V17.2347C50.2144 14.9293 48.9856 12.8016 46.99 11.6489L41.902 8.71386C41.4603 8.45996 40.922 8.45996 40.4802 8.71386L29.309 15.2086C29.0094 15.3813 29.0094 15.8129 29.309 15.9855L37.6214 20.7842V35.1702L37.3777 35.3784L26.6432 41.5786L4.62061 54.3802C4.0722 54.7001 4.18899 55.2536 4.21438 55.3602C4.24485 55.4669 4.42257 56.0051 5.0573 56.0051H25.1097C26.242 56.0051 27.3541 55.7055 28.3341 55.1419L46.99 44.3715C48.9805 43.2238 50.2144 41.0809 50.2144 38.7857V38.7755Z" fill="#00A3A3"/>
<path d="M15.8174 23.3333V32.7225C15.8174 32.9916 16.1068 33.1592 16.3404 33.0272L25.0946 27.9593V17.6917L16.0459 22.9372C15.9037 23.0185 15.8174 23.1708 15.8174 23.3333Z" fill="#00A3A3"/>
<path d="M34.3719 23.3333V32.7225C34.3719 32.9916 34.0825 33.1592 33.8489 33.0272L25.0947 27.9593V17.6917L34.1434 22.9372C34.2856 23.0185 34.3719 23.1708 34.3719 23.3333Z" fill="#00489D"/>
<path d="M78.4678 8.8103H75.1875V26.0704H78.4678V17.6003H81.7074V14.3758H78.4678V8.8103Z" fill="#00489D"/>
<path d="M62.6448 23.1962C63.4319 23.5263 64.2748 23.6939 65.1583 23.6939C66.0419 23.6939 66.8848 23.5263 67.6719 23.1962C68.4589 22.8662 69.1647 22.4295 69.7639 21.881C70.3428 21.3174 70.815 20.6623 71.1603 19.9209C71.5056 19.1796 71.6833 18.3823 71.6833 17.5546C71.6833 16.7269 71.5107 15.9347 71.1705 15.1984C70.9521 14.7617 70.6881 14.3504 70.3885 13.9746H72.7598V11.1665H66.9457V8.34314H63.3659V11.1665H57.2471V13.9746H59.9231C59.6235 14.3504 59.3696 14.7617 59.1716 15.1984C58.811 15.9347 58.6333 16.7269 58.6333 17.5546C58.6333 18.3823 58.811 19.1796 59.1563 19.9209C59.5067 20.6623 59.9739 21.3174 60.5578 21.8861C61.157 22.4295 61.8577 22.8712 62.6448 23.1962ZM61.7765 17.5495C61.7765 16.6507 62.1116 15.8636 62.7768 15.2086C63.442 14.5535 64.2443 14.2184 65.1634 14.2184C66.0825 14.2184 66.8848 14.5535 67.55 15.2086C68.2152 15.8636 68.5503 16.6507 68.5503 17.5495C68.5503 18.4483 68.2152 19.2405 67.55 19.8905C66.8899 20.5455 66.0825 20.8807 65.1634 20.8807C64.2443 20.8807 63.442 20.5455 62.7768 19.8905C62.1116 19.2354 61.7765 18.4483 61.7765 17.5495Z" fill="#00489D"/>
<path d="M63.6604 24.8669H60.3496V33.3523H79.2696V30.4324H63.6604V24.8669Z" fill="#00489D"/>
<path d="M104.705 9.4502H85.1804V12.37H101.429V19.0019H83.7129V21.8659H93.3151V24.6181H84.9062V27.5634H101.429V33.6519H104.705V24.6181H96.57V21.8659H106.172V19.0019H104.705V9.4502Z" fill="#00489D"/>
<path d="M109.315 22.7799H118.918V23.7142C118.674 23.7802 118.44 23.8564 118.227 23.9427C117.496 24.2423 116.851 24.6435 116.308 25.131C115.764 25.6388 115.323 26.2329 115.008 26.8981C114.688 27.5684 114.525 28.2895 114.525 29.0461C114.525 29.8027 114.688 30.5238 115.008 31.1941C115.328 31.8644 115.764 32.4585 116.313 32.9663C116.856 33.4538 117.496 33.8499 118.217 34.1393C118.943 34.4338 119.725 34.5811 120.548 34.5811C121.37 34.5811 122.157 34.4338 122.878 34.1393C123.599 33.8448 124.239 33.4538 124.788 32.9663C125.331 32.4585 125.773 31.8644 126.088 31.1992C126.407 30.5289 126.57 29.8078 126.57 29.0512C126.57 28.2946 126.407 27.5786 126.088 26.9032C125.768 26.2329 125.331 25.6388 124.783 25.131C124.239 24.6435 123.604 24.2423 122.888 23.9427C122.64 23.8412 122.401 23.765 122.167 23.7091V22.7799H131.775V19.8905H109.315V22.7799ZM120.548 31.7578C119.755 31.7578 119.065 31.4835 118.506 30.9504C117.948 30.4172 117.663 29.7773 117.663 29.041C117.663 28.3047 117.948 27.6649 118.506 27.1317C119.07 26.5934 119.755 26.3243 120.548 26.3243C121.34 26.3243 122.025 26.5934 122.589 27.1317C123.153 27.6649 123.432 28.3098 123.432 29.041C123.432 29.7723 123.147 30.4172 122.589 30.9504C122.025 31.4886 121.34 31.7578 120.548 31.7578Z" fill="#00489D"/>
<path d="M111.996 19.1135L120.547 13.3094L128.997 19.0475L129.098 19.1135L130.982 16.7726L123.833 12.0653H130.53V9.22668H110.559V12.0653H117.262L110.234 16.6964L110.112 16.7726L111.92 19.017L111.996 19.1135Z" fill="#00489D"/>
<path d="M146.15 13.7207L154.107 23.8056L154.183 23.902L156.58 22.14L156.692 22.0638L146.252 8.97277L146.15 8.84583L135.669 21.9572L135.583 22.0638L138.178 23.902L146.15 13.7207Z" fill="#00489D"/>
<path d="M147.805 20.9111H144.5V28.3301H134.923V31.2448H157.382V28.3301H147.805V20.9111Z" fill="#00489D"/>
<path d="M171.523 17.321H174.113V25.9028H177.282V8.8103H174.113V14.4316H171.523V9.25716H168.329V12.9387H164.216V9.25716H161.022V23.054H171.523V17.321ZM164.216 20.1901V15.7722H168.329V20.1901H164.216Z" fill="#00489D"/>
<path d="M166.182 24.8669H162.876V33.3523H183.233V30.4324H166.182V24.8669Z" fill="#00489D"/>
<path d="M182.71 8.8103H179.485V25.9028H182.71V8.8103Z" fill="#00489D"/>
<path d="M201.584 14.2539V11.4153H195.745V8.56152H192.216V11.4153H186.102V14.2539H191.952L185.833 27.6852L185.782 27.8071L188.504 28.9902L188.621 29.0461L194.008 16.93L199.345 28.9242L199.396 29.0461L202.062 27.8579L202.184 27.8071L196.009 14.2539H201.584Z" fill="#00489D"/>
<path d="M204.037 16.5644H199.665V19.4842H204.037V33.601H207.317V8.8103H204.037V16.5644Z" fill="#00489D"/>
<path d="M212.202 12.37H221.5V27.9543H224.78V9.41968H212.202V12.37Z" fill="#00489D"/>
<path d="M232.92 8.8103H229.64V33.5959H232.92V8.8103Z" fill="#00489D"/>
<path d="M255.298 25.0344H243.213V22.9321H239.988V33.408H258.517V22.9321H255.293V25.0344H255.298ZM243.218 30.544V27.873H255.303V30.544H243.218Z" fill="#00489D"/>
<path d="M255.242 13.8528H251.017C250.946 13.604 250.85 13.3501 250.733 13.1012C250.377 12.3192 249.885 11.6134 249.265 11.0142C248.646 10.415 247.91 9.94274 247.077 9.61775C246.244 9.29276 245.345 9.12519 244.411 9.12519C243.477 9.12519 242.583 9.29276 241.745 9.61775C240.912 9.94782 240.171 10.4201 239.557 11.0142C238.937 11.6185 238.439 12.3192 238.089 13.1012C237.734 13.8883 237.551 14.7262 237.551 15.5895C237.551 16.4527 237.734 17.2906 238.089 18.0624C238.444 18.8394 238.937 19.5351 239.557 20.1393C240.171 20.7385 240.907 21.2108 241.745 21.5358C242.578 21.8658 243.477 22.0283 244.411 22.0283C245.345 22.0283 246.239 21.8608 247.077 21.5358C247.91 21.2108 248.646 20.7385 249.265 20.1393C249.885 19.5401 250.377 18.8343 250.733 18.0523C250.926 17.6308 251.068 17.1941 251.164 16.7472H255.247V22.2264H258.527V8.81543H255.247V13.8528H255.242ZM242.999 18.8749C242.552 18.682 242.156 18.4179 241.821 18.098C241.486 17.7831 241.217 17.4023 241.019 16.9656C240.826 16.5289 240.729 16.0668 240.729 15.5945C240.729 15.1223 240.826 14.6551 241.019 14.2235C241.217 13.7868 241.486 13.4059 241.821 13.086C242.156 12.7661 242.552 12.5071 242.999 12.3091C243.446 12.1161 243.918 12.0196 244.411 12.0196C244.903 12.0196 245.381 12.1161 245.823 12.3091C246.269 12.5071 246.665 12.7712 247.006 13.086C247.341 13.4059 247.61 13.7868 247.808 14.2184C248.001 14.6551 248.097 15.1172 248.097 15.5895C248.097 16.0617 248.001 16.5289 247.808 16.9605C247.615 17.3972 247.341 17.7781 247.006 18.0929C246.665 18.4179 246.269 18.6769 245.823 18.8698C244.939 19.2608 243.883 19.2608 242.994 18.8698L242.999 18.8749Z" fill="#00489D"/>
<path d="M268.657 21.2209C269.368 21.876 270.206 22.4041 271.145 22.7951C272.09 23.1861 273.105 23.3841 274.172 23.3841C275.238 23.3841 276.254 23.1861 277.198 22.7951C278.137 22.4041 278.975 21.876 279.686 21.2209C280.397 20.5659 280.966 19.7838 281.377 18.8952C281.788 18.0015 281.997 17.0417 281.997 16.0312C281.997 15.0207 281.788 14.0559 281.377 13.1672C280.966 12.2735 280.397 11.4966 279.686 10.8415C278.975 10.1865 278.137 9.65835 277.198 9.26734C276.254 8.87634 275.238 8.67322 274.172 8.67322C273.105 8.67322 272.09 8.87126 271.145 9.26734C270.201 9.65835 269.368 10.1865 268.657 10.8415C267.946 11.4966 267.377 12.2786 266.966 13.1672C266.555 14.0559 266.347 15.0207 266.347 16.0312C266.347 17.0417 266.555 18.0015 266.966 18.8952C267.377 19.7838 267.946 20.5659 268.657 21.2209ZM272.42 20.119C271.866 19.8905 271.379 19.5604 270.962 19.1491C270.551 18.7581 270.221 18.2909 269.977 17.7527C269.739 17.2144 269.617 16.6355 269.617 16.0363C269.617 15.4371 269.739 14.8531 269.977 14.3199C270.221 13.7817 270.551 13.3094 270.962 12.9184C271.374 12.5071 271.866 12.1821 272.415 11.9536C272.963 11.72 273.552 11.6032 274.161 11.6032C274.771 11.6032 275.36 11.72 275.913 11.9536C276.462 12.1821 276.954 12.5071 277.366 12.9235C277.777 13.3145 278.107 13.7867 278.346 14.3199C278.584 14.8531 278.711 15.432 278.711 16.0363C278.711 16.6406 278.589 17.2195 278.346 17.7527C278.107 18.2858 277.777 18.7581 277.36 19.1542C276.949 19.5655 276.457 19.8905 275.908 20.1241C274.801 20.5912 273.517 20.5912 272.41 20.1241L272.42 20.119Z" fill="#00489D"/>
<path d="M262.939 27.9238H267.504V33.601H270.759V27.9238H277.584V33.601H280.834V27.9238H285.399V25.0344H262.939V27.9238Z" fill="#00489D"/>
<path d="M301.424 20.2561H309.869V17.448H293.259V16.077H309.534V13.3501H293.259V12.0044H309.534V9.19629H290.009V20.2561H298.119V21.7948H288.542V24.6283H294.498C294.148 25.0447 293.853 25.5017 293.615 25.9892C293.259 26.7255 293.076 27.5278 293.076 28.3708C293.076 29.2137 293.259 30.0262 293.615 30.7777C293.975 31.5293 294.458 32.1945 295.052 32.7531C295.651 33.3167 296.362 33.7687 297.169 34.0936C297.972 34.4237 298.85 34.5862 299.764 34.5862C300.678 34.5862 301.556 34.4186 302.359 34.0936C303.166 33.7636 303.877 33.3116 304.476 32.7531C305.075 32.1945 305.558 31.5293 305.913 30.7777C306.274 30.0262 306.452 29.2137 306.452 28.3708C306.452 27.5278 306.269 26.7204 305.913 25.9892C305.675 25.4966 305.38 25.0396 305.035 24.6283H310.991V21.7948H301.414V20.2561H301.424ZM298.413 31.5648C297.982 31.3769 297.606 31.1281 297.291 30.8336C296.966 30.5086 296.707 30.1379 296.514 29.7215C296.321 29.3102 296.225 28.8582 296.225 28.3809C296.225 27.9036 296.321 27.4516 296.519 27.0352C296.712 26.6189 296.976 26.2431 297.291 25.9282C297.611 25.6236 297.987 25.3747 298.413 25.1919C298.84 25.0091 299.297 24.9126 299.774 24.9126C300.251 24.9126 300.708 25.0041 301.135 25.1919C301.562 25.3798 301.942 25.6286 302.257 25.9282C302.577 26.2431 302.836 26.6189 303.034 27.0403C303.227 27.4567 303.329 27.9036 303.329 28.3809C303.329 28.8582 303.232 29.3102 303.034 29.7215C302.841 30.143 302.577 30.5137 302.262 30.8336C301.947 31.1332 301.567 31.382 301.14 31.5699C300.292 31.9406 299.271 31.9406 298.418 31.5699L298.413 31.5648Z" fill="#00489D"/>
<path d="M319.694 30.5441V26.3345H316.389V33.4081H335.999V30.5441H319.694Z" fill="#00489D"/>
<path d="M319.959 26.0704H323.264V21.749H332.054V23.4552H327.073V26.1516H332.054V28.1422H335.334V8.81032H332.054V18.9409H327.408C327.789 18.494 328.114 17.9964 328.373 17.4683C328.728 16.7167 328.911 15.8941 328.911 15.0309C328.911 14.1676 328.728 13.3399 328.373 12.568C328.012 11.7962 327.52 11.1106 326.9 10.5318C326.281 9.9681 325.55 9.51616 324.727 9.18102C323.904 8.84587 323.021 8.67322 322.102 8.67322C321.183 8.67322 320.304 8.84587 319.476 9.18102C318.654 9.51616 317.923 9.97318 317.303 10.5368C316.689 11.1157 316.191 11.8013 315.836 12.5731C315.48 13.345 315.297 14.1778 315.297 15.0359C315.297 15.8941 315.48 16.7167 315.836 17.4734C316.09 18.0066 316.414 18.4991 316.8 18.946H313.886V21.7541H319.949V26.0755L319.959 26.0704ZM318.532 15.0359C318.532 14.5586 318.628 14.1067 318.821 13.6953C319.019 13.2739 319.278 12.9032 319.598 12.5833C319.918 12.2634 320.299 12.0095 320.736 11.8216C321.172 11.6337 321.634 11.5423 322.112 11.5423C322.589 11.5423 323.051 11.6388 323.488 11.8216C323.925 12.0095 324.305 12.2634 324.625 12.5833C324.945 12.9032 325.204 13.2789 325.397 13.6953C325.59 14.1117 325.692 14.5586 325.692 15.0359C325.692 15.5133 325.595 15.9652 325.397 16.3765C325.204 16.7929 324.945 17.1636 324.625 17.4886C324.305 17.8085 323.925 18.0624 323.488 18.2452C322.615 18.621 321.604 18.6159 320.736 18.2452C320.304 18.0624 319.923 17.8034 319.598 17.4886C319.278 17.1636 319.014 16.7929 318.821 16.3765C318.628 15.9601 318.532 15.5082 318.532 15.0359Z" fill="#00489D"/>
<path d="M60.3047 39.1005H61.5183V42.909H61.625L64.9612 39.1005H66.4846L63.2702 42.6957L66.4998 47.0831H65.0323L62.4679 43.5234L61.5183 44.6101V47.0831H60.3047V39.1005Z" fill="#00489D"/>
<path d="M67.9621 46.819C67.5406 46.56 67.2105 46.1994 66.982 45.7323C66.7484 45.2651 66.6367 44.7268 66.6367 44.1175C66.6367 43.5081 66.7535 42.9597 66.982 42.4925C67.2105 42.0253 67.5406 41.6648 67.9621 41.4058C68.3835 41.1468 68.8761 41.0199 69.4296 41.0199C69.9831 41.0199 70.4757 41.1468 70.8971 41.4058C71.3186 41.6648 71.6436 42.0253 71.8772 42.4925C72.1057 42.9597 72.2225 43.503 72.2225 44.1175C72.2225 44.7319 72.1057 45.2651 71.8772 45.7323C71.6487 46.1994 71.3186 46.56 70.8971 46.819C70.4757 47.0779 69.9882 47.2049 69.4296 47.2049C68.871 47.2049 68.3835 47.0779 67.9621 46.819ZM70.3183 45.9405C70.5569 45.7526 70.7397 45.4987 70.8565 45.1788C70.9733 44.8589 71.0343 44.5034 71.0343 44.1124C71.0343 43.7214 70.9733 43.3659 70.8565 43.046C70.7347 42.7261 70.5569 42.4722 70.3183 42.2843C70.0796 42.0964 69.7851 41.9999 69.4347 41.9999C69.0843 41.9999 68.7847 42.0964 68.546 42.2843C68.3074 42.4722 68.1246 42.7261 68.0027 43.046C67.8808 43.3659 67.8199 43.7214 67.8199 44.1175C67.8199 44.5135 67.8808 44.8639 68.0027 45.1838C68.1246 45.5038 68.3074 45.7577 68.546 45.9455C68.7847 46.1334 69.0843 46.2248 69.4347 46.2248C69.7851 46.2248 70.0796 46.1334 70.3183 45.9455V45.9405Z" fill="#00489D"/>
<path d="M73.3447 41.0961H74.4822V42.0507H74.5431C74.6142 41.8375 74.7259 41.6547 74.8782 41.4922C75.0255 41.3348 75.2032 41.2129 75.4063 41.1316C75.6094 41.0504 75.8278 41.0098 76.0614 41.0098C76.2391 41.0098 76.4067 41.0199 76.5641 41.0352V42.1574C76.4981 42.1422 76.4067 42.1269 76.2899 42.1117C76.1731 42.0965 76.0614 42.0863 75.9547 42.0863C75.6805 42.0863 75.4368 42.1422 75.2184 42.2589C75.0001 42.3707 74.8325 42.5332 74.7056 42.7414C74.5837 42.9496 74.5228 43.1781 74.5228 43.437V47.083H73.3447V41.0961Z" fill="#00489D"/>
<path d="M78.27 46.8241C77.8384 46.5702 77.5084 46.2147 77.2799 45.7526C77.0514 45.2905 76.9346 44.7472 76.9346 44.1328C76.9346 43.5183 77.0514 42.9851 77.2799 42.5129C77.5084 42.0406 77.8334 41.675 78.2497 41.416C78.6661 41.1571 79.1536 41.025 79.702 41.025C80.1844 41.025 80.6262 41.1317 81.0273 41.3399C81.4285 41.5481 81.7534 41.8781 81.9972 42.3301C82.2409 42.782 82.3628 43.3507 82.3628 44.0363V44.4527H77.5947V43.5742H81.2101C81.2101 43.2695 81.1492 43.0004 81.0273 42.7617C80.9054 42.523 80.7277 42.3351 80.5043 42.198C80.2809 42.0609 80.0168 41.9949 79.7274 41.9949C79.4126 41.9949 79.1282 42.0711 78.8845 42.2285C78.6407 42.3859 78.4528 42.589 78.3157 42.848C78.1837 43.107 78.1126 43.3863 78.1126 43.6859V44.3663C78.1126 44.7573 78.1837 45.0976 78.3208 45.3769C78.463 45.6561 78.661 45.8745 78.9149 46.0218C79.1688 46.169 79.4633 46.2452 79.8035 46.2452C80.0168 46.2452 80.2098 46.2147 80.3824 46.1589C80.5551 46.103 80.7023 46.0218 80.8191 45.9253C80.941 45.8237 81.0324 45.712 81.0984 45.5851H82.2917C82.2054 45.91 82.048 46.1944 81.8194 46.4432C81.596 46.687 81.3066 46.8799 80.9562 47.012C80.6058 47.144 80.2199 47.2151 79.7934 47.2151C79.2094 47.2151 78.7067 47.0881 78.2751 46.8342L78.27 46.8241Z" fill="#00489D"/>
<path d="M86.4199 44.4171C86.1102 44.4374 85.8411 44.4577 85.6075 44.473C85.2114 44.5034 84.9017 44.5948 84.6833 44.7472C84.465 44.8995 84.3583 45.123 84.3583 45.4073C84.3583 45.5952 84.404 45.7526 84.5005 45.8847C84.597 46.0167 84.729 46.1132 84.9017 46.1792C85.0743 46.2452 85.2673 46.2807 85.4907 46.2807C85.8004 46.2807 86.0746 46.2198 86.3082 46.0928C86.5418 45.9659 86.7195 45.8034 86.8414 45.5952C86.9633 45.387 87.0242 45.1636 87.0242 44.9249V43.0359C87.0242 42.8074 86.9734 42.6195 86.882 42.457C86.7906 42.2996 86.6535 42.1777 86.4707 42.0965C86.2879 42.0152 86.0645 41.9746 85.8004 41.9746C85.577 41.9746 85.379 42.0051 85.2114 42.0711C85.0438 42.1371 84.9017 42.2234 84.795 42.3402C84.6833 42.457 84.6122 42.589 84.5716 42.7363H83.3986C83.4392 42.4062 83.5611 42.1117 83.7693 41.8527C83.9775 41.5938 84.2619 41.3906 84.6173 41.2434C84.9727 41.0961 85.384 41.025 85.8461 41.025C86.232 41.025 86.5977 41.086 86.948 41.2028C87.2984 41.3195 87.5929 41.5328 87.8366 41.8477C88.0804 42.1574 88.2022 42.584 88.2022 43.1172V47.0932H87.0547V46.2757H87.009C86.9277 46.4432 86.8058 46.5956 86.6535 46.7378C86.5012 46.8799 86.3031 46.9967 86.0645 47.0881C85.8258 47.1795 85.5516 47.2252 85.2368 47.2252C84.856 47.2252 84.5107 47.1542 84.206 47.012C83.9013 46.8698 83.6576 46.6616 83.4799 46.3874C83.3021 46.1132 83.2158 45.7831 83.2158 45.4022C83.2158 44.7878 83.424 44.346 83.8455 44.082C84.2669 43.8179 84.8001 43.6605 85.4551 43.6148C85.6379 43.6046 85.8512 43.5894 86.0949 43.5742C86.3387 43.564 86.5723 43.5488 86.7855 43.5386C86.9277 43.5335 87.0293 43.5285 87.0953 43.5285L87.1105 44.3867C86.9683 44.3867 86.7449 44.407 86.4352 44.4273L86.4199 44.4171Z" fill="#00489D"/>
<path d="M96.4642 40.5782C96.322 40.4005 96.1291 40.2684 95.8904 40.177C95.6517 40.0856 95.3826 40.0399 95.078 40.0399C94.7581 40.0399 94.4788 40.0907 94.235 40.1923C93.9913 40.2938 93.8085 40.436 93.6765 40.6137C93.5444 40.7915 93.4784 40.9946 93.4784 41.218C93.4784 41.5582 93.6105 41.8172 93.8897 41.9949C94.1639 42.1777 94.5143 42.3199 94.9307 42.4266L95.7076 42.6297C96.1189 42.7312 96.4896 42.8683 96.8247 43.0359C97.1599 43.2035 97.4391 43.4422 97.6626 43.7468C97.886 44.0515 97.9977 44.4273 97.9977 44.8742C97.9977 45.321 97.8809 45.7323 97.6473 46.0878C97.4138 46.4433 97.0735 46.7175 96.6318 46.9155C96.1849 47.1135 95.6568 47.2151 95.0424 47.2151C94.428 47.2151 93.9354 47.1186 93.4988 46.9307C93.0621 46.7429 92.7168 46.4686 92.468 46.1183C92.2191 45.7679 92.082 45.3515 92.0566 44.8691H93.2702C93.2956 45.1484 93.387 45.382 93.5444 45.5749C93.7019 45.7679 93.9151 45.9101 94.1741 46.0065C94.4331 46.103 94.7225 46.1487 95.0424 46.1487C95.3826 46.1487 95.6822 46.0929 95.9513 45.9862C96.2205 45.8796 96.4287 45.7273 96.581 45.5343C96.7333 45.3413 96.8095 45.1128 96.8095 44.8589C96.8095 44.6355 96.7486 44.4527 96.6216 44.3003C96.4947 44.148 96.322 44.0261 96.1088 43.9246C95.8955 43.8281 95.6213 43.7367 95.2963 43.6504L94.3569 43.3965C93.6866 43.2137 93.1738 42.9496 92.8132 42.6094C92.4527 42.2641 92.275 41.8223 92.275 41.284C92.275 40.8321 92.3969 40.4309 92.6457 40.0856C92.8945 39.7403 93.2296 39.4712 93.6612 39.2782C94.0878 39.0853 94.5752 38.9888 95.1135 38.9888C95.6517 38.9888 96.124 39.0852 96.5454 39.2731C96.9669 39.461 97.297 39.7251 97.5305 40.0602C97.7641 40.3954 97.8911 40.7762 97.9012 41.2028H96.7283C96.7029 40.959 96.6165 40.7508 96.4744 40.5782H96.4642Z" fill="#00489D"/>
<path d="M100.735 39.1005L103.269 45.2854H103.36L105.889 39.1005H107.366V47.0831H106.209V41.3246H106.132L103.786 47.0729H102.827L100.481 41.3145H100.415V47.0881H99.252V39.1055H100.73L100.735 39.1005Z" fill="#00489D"/>
<path d="M108.945 39.1005H113.957V40.1465H110.159V42.5687H113.698V43.6097H110.159V46.0421H114.003V47.0881H108.95V39.1055L108.945 39.1005Z" fill="#00489D"/>
<path d="M118.279 42.1574C118.086 42.0203 117.832 41.9492 117.517 41.9492C117.293 41.9492 117.1 41.9847 116.923 42.0507C116.75 42.1218 116.613 42.2132 116.511 42.3402C116.41 42.462 116.364 42.5992 116.364 42.7515C116.364 42.9292 116.435 43.0816 116.588 43.2085C116.74 43.3355 116.979 43.437 117.299 43.5132L118.258 43.7315C118.807 43.8585 119.218 44.0565 119.487 44.3206C119.756 44.5846 119.893 44.9299 119.893 45.3514C119.893 45.712 119.797 46.0319 119.599 46.3112C119.401 46.5904 119.121 46.8088 118.751 46.9662C118.38 47.1236 117.948 47.2049 117.446 47.2049C116.974 47.2049 116.562 47.1389 116.217 47.0018C115.867 46.8647 115.592 46.6666 115.394 46.4026C115.191 46.1385 115.069 45.8237 115.019 45.4479H116.222C116.273 45.7221 116.4 45.9252 116.603 46.0623C116.806 46.1994 117.085 46.2655 117.441 46.2655C117.695 46.2655 117.918 46.2299 118.106 46.1639C118.294 46.0979 118.441 46.0014 118.543 45.8795C118.644 45.7577 118.695 45.6104 118.695 45.4479C118.695 45.2549 118.619 45.0924 118.471 44.9655C118.324 44.8385 118.091 44.7421 117.771 44.6659L116.836 44.4577C116.303 44.3409 115.892 44.1429 115.613 43.8636C115.333 43.5843 115.196 43.2339 115.196 42.8175C115.196 42.4671 115.293 42.1523 115.486 41.8832C115.679 41.6089 115.953 41.4007 116.303 41.2484C116.654 41.0961 117.06 41.0199 117.517 41.0199C117.974 41.0199 118.334 41.091 118.664 41.2281C118.994 41.3703 119.253 41.5683 119.446 41.8222C119.639 42.0812 119.751 42.3808 119.787 42.7261H118.654C118.598 42.4824 118.471 42.2894 118.284 42.1523L118.279 42.1574Z" fill="#00489D"/>
<path d="M124.676 46.9104C124.285 46.7175 123.985 46.4534 123.772 46.1132C123.559 45.773 123.452 45.3921 123.452 44.9656C123.452 44.6558 123.518 44.3714 123.65 44.1175C123.782 43.8636 123.96 43.6351 124.188 43.4269C124.417 43.2187 124.706 42.9902 125.067 42.7465L126.357 41.8324C126.509 41.7309 126.636 41.6293 126.732 41.5278C126.829 41.4262 126.91 41.3145 126.961 41.1926C127.017 41.0707 127.042 40.9336 127.042 40.7813C127.042 40.6543 127.007 40.5325 126.93 40.4106C126.854 40.2887 126.748 40.1872 126.616 40.111C126.479 40.0348 126.326 39.9942 126.154 39.9942C125.981 39.9942 125.813 40.0399 125.671 40.1262C125.529 40.2126 125.417 40.3294 125.336 40.4715C125.255 40.6137 125.214 40.761 125.214 40.9184C125.214 41.0758 125.25 41.2231 125.326 41.3805C125.402 41.5379 125.493 41.6953 125.61 41.8477C125.722 42 125.879 42.1981 126.082 42.4367L126.255 42.65L129.967 47.078H128.642L125.57 43.4777C125.483 43.3761 125.392 43.2644 125.295 43.1578C125.021 42.8379 124.808 42.5687 124.651 42.3555C124.493 42.1422 124.366 41.9137 124.265 41.6699C124.163 41.4262 124.112 41.1723 124.112 40.9032C124.112 40.5376 124.199 40.2075 124.366 39.9231C124.534 39.6388 124.772 39.4153 125.077 39.2528C125.382 39.0954 125.732 39.0142 126.133 39.0142C126.534 39.0142 126.875 39.0903 127.179 39.2477C127.479 39.4052 127.712 39.6134 127.875 39.8825C128.037 40.1516 128.119 40.4411 128.119 40.7559C128.119 41.0047 128.078 41.2332 127.992 41.4414C127.91 41.6496 127.789 41.8477 127.631 42.0305C127.474 42.2133 127.281 42.3859 127.052 42.5535L125.453 43.7316C125.26 43.8738 125.097 44.021 124.975 44.1734C124.854 44.3257 124.762 44.4628 124.706 44.5949C124.651 44.7269 124.62 44.8386 124.62 44.93C124.62 45.1585 124.681 45.3718 124.798 45.5648C124.915 45.7577 125.087 45.9151 125.3 46.0269C125.519 46.1436 125.768 46.1995 126.047 46.1995C126.443 46.1995 126.829 46.0827 127.195 45.8542C127.56 45.6206 127.86 45.2956 128.088 44.8792C128.317 44.4628 128.428 43.9855 128.428 43.4472H129.49C129.49 43.9296 129.439 44.346 129.332 44.7015C129.226 45.057 129.099 45.3464 128.941 45.5648C128.789 45.7831 128.616 45.9761 128.423 46.1436C128.367 46.1944 128.322 46.2351 128.291 46.2706C128.246 46.3112 128.2 46.3518 128.154 46.3925C127.89 46.6514 127.57 46.8444 127.195 46.9815C126.819 47.1186 126.433 47.1846 126.042 47.1846C125.519 47.1846 125.062 47.0882 124.671 46.8952L124.676 46.9104Z" fill="#00489D"/>
<path d="M137.594 40.5782C137.452 40.4005 137.259 40.2684 137.02 40.177C136.782 40.0856 136.512 40.0399 136.208 40.0399C135.888 40.0399 135.609 40.0907 135.365 40.1923C135.121 40.2938 134.938 40.436 134.806 40.6137C134.674 40.7915 134.608 40.9946 134.608 41.218C134.608 41.5582 134.74 41.8172 135.02 41.9949C135.294 42.1777 135.644 42.3199 136.061 42.4266L136.837 42.6297C137.249 42.7312 137.619 42.8683 137.955 43.0359C138.29 43.2035 138.569 43.4422 138.792 43.7468C139.016 44.0515 139.128 44.4273 139.128 44.8742C139.128 45.321 139.011 45.7323 138.777 46.0878C138.544 46.4433 138.203 46.7175 137.762 46.9155C137.315 47.1135 136.787 47.2151 136.172 47.2151C135.558 47.2151 135.065 47.1186 134.629 46.9307C134.192 46.7429 133.847 46.4686 133.598 46.1183C133.349 45.7679 133.212 45.3515 133.187 44.8691H134.4C134.426 45.1484 134.517 45.382 134.674 45.5749C134.832 45.7679 135.045 45.9101 135.304 46.0065C135.563 46.103 135.852 46.1487 136.172 46.1487C136.513 46.1487 136.812 46.0929 137.081 45.9862C137.35 45.8796 137.559 45.7273 137.711 45.5343C137.863 45.3413 137.939 45.1128 137.939 44.8589C137.939 44.6355 137.878 44.4527 137.751 44.3003C137.625 44.148 137.452 44.0261 137.239 43.9246C137.025 43.8281 136.751 43.7367 136.426 43.6504L135.487 43.3965C134.817 43.2137 134.304 42.9496 133.943 42.6094C133.583 42.2641 133.405 41.8223 133.405 41.284C133.405 40.8321 133.527 40.4309 133.776 40.0856C134.024 39.7403 134.36 39.4712 134.791 39.2782C135.218 39.0853 135.705 38.9888 136.243 38.9888C136.782 38.9888 137.254 39.0852 137.675 39.2731C138.097 39.461 138.427 39.7251 138.66 40.0602C138.894 40.3954 139.021 40.7762 139.031 41.2028H137.858C137.833 40.959 137.746 40.7508 137.604 40.5782H137.594Z" fill="#00489D"/>
<path d="M143.094 42.0356H139.818V41.0962H143.094V42.0356ZM141.875 39.6642V45.3211C141.875 45.5343 141.905 45.6968 141.971 45.8136C142.037 45.9304 142.119 46.0066 142.22 46.0523C142.322 46.098 142.444 46.1183 142.591 46.1183C142.692 46.1183 142.885 46.1081 143.175 46.0929V47.1085C142.962 47.1441 142.718 47.1593 142.444 47.1593C142.124 47.1593 141.834 47.0984 141.57 46.9816C141.306 46.8597 141.093 46.682 140.935 46.4433C140.778 46.2046 140.697 45.9101 140.697 45.5648V39.6642H141.875Z" fill="#00489D"/>
<path d="M147.136 44.4171C146.826 44.4374 146.552 44.4577 146.323 44.473C145.927 44.5034 145.617 44.5948 145.399 44.7472C145.181 44.8995 145.074 45.123 145.074 45.4073C145.074 45.5952 145.12 45.7526 145.216 45.8847C145.313 46.0167 145.445 46.1132 145.617 46.1792C145.79 46.2452 145.983 46.2807 146.206 46.2807C146.516 46.2807 146.79 46.2198 147.024 46.0928C147.258 45.9659 147.435 45.8034 147.557 45.5952C147.679 45.387 147.74 45.1636 147.74 44.9249V43.0359C147.74 42.8074 147.689 42.6195 147.598 42.457C147.506 42.2996 147.369 42.1777 147.187 42.0965C147.004 42.0152 146.78 41.9746 146.516 41.9746C146.293 41.9746 146.095 42.0051 145.927 42.0711C145.76 42.1371 145.617 42.2234 145.511 42.3402C145.399 42.457 145.328 42.589 145.287 42.7363H144.114C144.155 42.4062 144.277 42.1117 144.485 41.8527C144.693 41.5938 144.978 41.3906 145.333 41.2434C145.689 41.0961 146.1 41.025 146.562 41.025C146.948 41.025 147.313 41.086 147.664 41.2028C148.014 41.3195 148.309 41.5328 148.552 41.8477C148.796 42.1574 148.918 42.584 148.918 43.1172V47.0932H147.77V46.2757H147.725C147.644 46.4432 147.522 46.5956 147.369 46.7378C147.217 46.8799 147.019 46.9967 146.78 47.0881C146.542 47.1795 146.267 47.2252 145.953 47.2252C145.572 47.2252 145.226 47.1542 144.922 47.012C144.617 46.8698 144.373 46.6616 144.196 46.3874C144.018 46.1132 143.932 45.7831 143.932 45.4022C143.932 44.7878 144.14 44.346 144.561 44.082C144.983 43.8179 145.516 43.6605 146.171 43.6148C146.354 43.6046 146.567 43.5894 146.811 43.5742C147.054 43.564 147.288 43.5488 147.501 43.5386C147.644 43.5335 147.745 43.5285 147.811 43.5285L147.826 44.3867C147.684 44.3867 147.461 44.407 147.151 44.4273L147.136 44.4171Z" fill="#00489D"/>
<path d="M150.284 41.0961H151.422V42.0507H151.483C151.554 41.8375 151.665 41.6547 151.818 41.4922C151.965 41.3348 152.143 41.2129 152.346 41.1316C152.549 41.0504 152.767 41.0098 153.001 41.0098C153.179 41.0098 153.346 41.0199 153.504 41.0352V42.1574C153.438 42.1422 153.346 42.1269 153.229 42.1117C153.113 42.0965 153.001 42.0863 152.894 42.0863C152.62 42.0863 152.376 42.1422 152.158 42.2589C151.94 42.3707 151.772 42.5332 151.645 42.7414C151.523 42.9496 151.462 43.1781 151.462 43.437V47.083H150.284V41.0961Z" fill="#00489D"/>
<path d="M157.479 42.0356H154.204V41.0962H157.479V42.0356ZM156.256 39.6642V45.3211C156.256 45.5343 156.286 45.6968 156.352 45.8136C156.418 45.9304 156.499 46.0066 156.601 46.0523C156.702 46.098 156.824 46.1183 156.972 46.1183C157.073 46.1183 157.266 46.1081 157.555 46.0929V47.1085C157.342 47.1441 157.098 47.1593 156.824 47.1593C156.504 47.1593 156.215 47.0984 155.951 46.9816C155.687 46.8597 155.474 46.682 155.316 46.4433C155.159 46.2046 155.077 45.9101 155.077 45.5648V39.6642H156.256Z" fill="#00489D"/>
<path d="M162.379 41.0961H163.547V47.083H162.4V46.0471H162.339C162.247 46.2655 162.115 46.4584 161.948 46.626C161.78 46.7936 161.577 46.9256 161.343 47.0221C161.105 47.1186 160.846 47.1643 160.551 47.1643C160.16 47.1643 159.82 47.0779 159.52 46.9053C159.226 46.7326 158.992 46.4787 158.83 46.1385C158.662 45.7983 158.581 45.387 158.581 44.9096V41.1011H159.759V44.7675C159.759 45.0366 159.81 45.2702 159.917 45.4682C160.018 45.6713 160.165 45.8237 160.343 45.9354C160.526 46.042 160.734 46.0979 160.973 46.0979C161.211 46.0979 161.425 46.042 161.643 45.9252C161.856 45.8084 162.034 45.6409 162.171 45.4174C162.308 45.194 162.379 44.9198 162.379 44.5999V41.1011V41.0961Z" fill="#00489D"/>
<path d="M164.939 41.0961H166.086V42.066H166.183C166.183 42.066 166.198 42.0406 166.203 42.0304C166.208 42.0203 166.213 42.005 166.224 41.9949C166.325 41.8222 166.442 41.6648 166.569 41.5277C166.696 41.3906 166.868 41.2738 167.092 41.1722C167.315 41.0707 167.584 41.0199 167.904 41.0199C168.387 41.0199 168.818 41.1418 169.204 41.3906C169.585 41.6343 169.885 41.9898 170.098 42.457C170.311 42.9241 170.418 43.4726 170.418 44.1073C170.418 44.7421 170.311 45.2854 170.098 45.7577C169.885 46.2248 169.59 46.5854 169.209 46.8342C168.828 47.083 168.397 47.21 167.914 47.21C167.589 47.21 167.31 47.1541 167.082 47.0525C166.853 46.9459 166.675 46.824 166.549 46.6818C166.422 46.5397 166.305 46.3772 166.198 46.1944C166.198 46.1893 166.198 46.1842 166.188 46.1791C166.188 46.1791 166.188 46.169 166.178 46.1639H166.107V49.3376H164.929V41.1062L164.939 41.0961ZM166.279 45.194C166.401 45.5139 166.579 45.7577 166.813 45.9354C167.046 46.108 167.325 46.1994 167.656 46.1994C167.986 46.1994 168.28 46.108 168.519 45.9252C168.757 45.7424 168.935 45.4936 169.052 45.1737C169.174 44.8538 169.23 44.4932 169.23 44.087C169.23 43.6808 169.174 43.3253 169.052 43.0155C168.935 42.7058 168.757 42.457 168.519 42.2843C168.28 42.1066 167.991 42.0203 167.65 42.0203C167.31 42.0203 167.036 42.1066 166.802 42.2742C166.569 42.4417 166.391 42.6855 166.274 42.9952C166.152 43.305 166.092 43.6706 166.092 44.0921C166.092 44.5136 166.152 44.8792 166.274 45.1991L166.279 45.194Z" fill="#00489D"/>
<path d="M174.53 42.1574C174.338 42.0203 174.084 41.9492 173.769 41.9492C173.55 41.9492 173.352 41.9847 173.175 42.0507C173.002 42.1218 172.865 42.2132 172.763 42.3402C172.662 42.462 172.616 42.5992 172.616 42.7515C172.616 42.9292 172.687 43.0816 172.84 43.2085C172.992 43.3355 173.231 43.437 173.55 43.5132L174.51 43.7315C175.059 43.8585 175.47 44.0565 175.739 44.3206C176.008 44.5846 176.145 44.9299 176.145 45.3514C176.145 45.712 176.049 46.0319 175.851 46.3112C175.653 46.5904 175.373 46.8088 175.003 46.9662C174.632 47.1236 174.2 47.2049 173.698 47.2049C173.225 47.2049 172.814 47.1389 172.469 47.0018C172.118 46.8647 171.844 46.6666 171.646 46.4026C171.443 46.1385 171.321 45.8237 171.271 45.4479H172.474C172.525 45.7221 172.652 45.9252 172.855 46.0623C173.058 46.1994 173.337 46.2655 173.693 46.2655C173.947 46.2655 174.17 46.2299 174.358 46.1639C174.546 46.0979 174.693 46.0014 174.795 45.8795C174.896 45.7577 174.947 45.6104 174.947 45.4479C174.947 45.2549 174.871 45.0924 174.723 44.9655C174.576 44.8385 174.343 44.7421 174.023 44.6659L173.088 44.4577C172.555 44.3409 172.144 44.1429 171.865 43.8636C171.585 43.5843 171.448 43.2339 171.448 42.8175C171.448 42.4671 171.545 42.1523 171.738 41.8832C171.931 41.6089 172.205 41.4007 172.555 41.2484C172.906 41.0961 173.312 41.0199 173.769 41.0199C174.226 41.0199 174.586 41.091 174.916 41.2281C175.246 41.3703 175.505 41.5683 175.698 41.8222C175.891 42.0812 176.003 42.3808 176.039 42.7261H174.906C174.85 42.4824 174.723 42.2894 174.536 42.1523L174.53 42.1574Z" fill="#00489D"/>
<path d="M181.274 47.0831H180.061V39.1005H181.274V47.0831ZM180.68 47.0831V46.0218H182.589C183.188 46.0218 183.691 45.91 184.092 45.6815C184.493 45.453 184.798 45.123 184.996 44.6862C185.194 44.2495 185.296 43.7163 185.296 43.0816C185.296 42.4469 185.199 41.9238 185.001 41.4871C184.803 41.0555 184.509 40.7254 184.118 40.4969C183.727 40.2735 183.239 40.1618 182.66 40.1618H180.639V39.1005H182.737C183.513 39.1005 184.189 39.2579 184.752 39.5778C185.316 39.8926 185.748 40.3547 186.047 40.9539C186.347 41.5531 186.494 42.264 186.494 43.0867C186.494 43.9093 186.342 44.6304 186.042 45.2296C185.743 45.8288 185.301 46.2909 184.727 46.6108C184.153 46.9307 183.463 47.0881 182.66 47.0881H180.685L180.68 47.0831Z" fill="#00489D"/>
<path d="M187.708 40.0805C187.596 40.0145 187.505 39.9333 187.434 39.8266C187.362 39.72 187.332 39.6032 187.332 39.4813C187.332 39.3595 187.368 39.2376 187.434 39.1309C187.505 39.0243 187.591 38.938 187.708 38.877C187.819 38.8161 187.941 38.7856 188.078 38.7856C188.216 38.7856 188.332 38.8161 188.444 38.877C188.561 38.938 188.647 39.0243 188.713 39.1309C188.779 39.2376 188.815 39.3544 188.815 39.4813C188.815 39.6083 188.784 39.72 188.713 39.8266C188.647 39.9333 188.556 40.0196 188.444 40.0805C188.327 40.1465 188.205 40.177 188.078 40.177C187.952 40.177 187.825 40.1465 187.708 40.0805ZM187.479 41.0961H188.657V47.0831H187.479V41.0961Z" fill="#00489D"/>
<path d="M192.795 42.1574C192.602 42.0203 192.348 41.9492 192.033 41.9492C191.815 41.9492 191.617 41.9847 191.439 42.0507C191.267 42.1218 191.13 42.2132 191.028 42.3402C190.926 42.462 190.881 42.5992 190.881 42.7515C190.881 42.9292 190.952 43.0816 191.104 43.2085C191.257 43.3355 191.495 43.437 191.815 43.5132L192.775 43.7315C193.323 43.8585 193.735 44.0565 194.004 44.3206C194.273 44.5846 194.41 44.9299 194.41 45.3514C194.41 45.712 194.313 46.0319 194.115 46.3112C193.917 46.5904 193.638 46.8088 193.267 46.9662C192.897 47.1236 192.465 47.2049 191.962 47.2049C191.49 47.2049 191.079 47.1389 190.734 47.0018C190.383 46.8647 190.109 46.6666 189.911 46.4026C189.708 46.1385 189.586 45.8237 189.535 45.4479H190.739C190.789 45.7221 190.916 45.9252 191.119 46.0623C191.323 46.1994 191.602 46.2655 191.957 46.2655C192.211 46.2655 192.435 46.2299 192.622 46.1639C192.81 46.0979 192.958 46.0014 193.059 45.8795C193.161 45.7577 193.212 45.6104 193.212 45.4479C193.212 45.2549 193.135 45.0924 192.988 44.9655C192.841 44.8385 192.607 44.7421 192.287 44.6659L191.353 44.4577C190.82 44.3409 190.409 44.1429 190.129 43.8636C189.85 43.5843 189.713 43.2339 189.713 42.8175C189.713 42.4671 189.809 42.1523 190.002 41.8832C190.195 41.6089 190.469 41.4007 190.82 41.2484C191.17 41.0961 191.576 41.0199 192.033 41.0199C192.49 41.0199 192.851 41.091 193.181 41.2281C193.511 41.3703 193.77 41.5683 193.963 41.8222C194.156 42.0812 194.268 42.3808 194.303 42.7261H193.171C193.115 42.4824 192.988 42.2894 192.8 42.1523L192.795 42.1574Z" fill="#00489D"/>
<path d="M198.082 42.0356H194.807V41.0962H198.082V42.0356ZM196.863 39.6642V45.3211C196.863 45.5343 196.894 45.6968 196.96 45.8136C197.026 45.9304 197.107 46.0066 197.208 46.0523C197.31 46.098 197.432 46.1183 197.579 46.1183C197.681 46.1183 197.874 46.1081 198.163 46.0929V47.1085C197.95 47.1441 197.706 47.1593 197.432 47.1593C197.112 47.1593 196.823 47.0984 196.558 46.9816C196.294 46.8597 196.081 46.682 195.924 46.4433C195.766 46.2046 195.685 45.9101 195.685 45.5648V39.6642H196.863Z" fill="#00489D"/>
<path d="M198.949 41.0961H200.087V42.0507H200.148C200.219 41.8375 200.331 41.6547 200.483 41.4922C200.63 41.3348 200.808 41.2129 201.011 41.1316C201.214 41.0504 201.432 41.0098 201.666 41.0098C201.844 41.0098 202.011 41.0199 202.169 41.0352V42.1574C202.103 42.1422 202.011 42.1269 201.895 42.1117C201.778 42.0965 201.666 42.0863 201.559 42.0863C201.285 42.0863 201.041 42.1422 200.823 42.2589C200.605 42.3707 200.437 42.5332 200.31 42.7414C200.188 42.9496 200.122 43.1781 200.122 43.437V47.083H198.944V41.0961H198.949Z" fill="#00489D"/>
<path d="M202.992 40.0805C202.88 40.0145 202.789 39.9333 202.718 39.8266C202.647 39.72 202.616 39.6032 202.616 39.4813C202.616 39.3595 202.652 39.2376 202.718 39.1309C202.789 39.0243 202.875 38.938 202.992 38.877C203.104 38.8161 203.226 38.7856 203.363 38.7856C203.5 38.7856 203.617 38.8161 203.728 38.877C203.845 38.938 203.931 39.0243 203.997 39.1309C204.063 39.2376 204.099 39.3544 204.099 39.4813C204.099 39.6083 204.068 39.72 203.997 39.8266C203.931 39.9333 203.84 40.0196 203.728 40.0805C203.611 40.1465 203.49 40.177 203.363 40.177C203.236 40.177 203.109 40.1465 202.992 40.0805ZM202.763 41.0961H203.942V47.0831H202.763V41.0961Z" fill="#00489D"/>
<path d="M205.186 39.1005H206.364V42.066H206.425C206.425 42.066 206.44 42.0355 206.45 42.0203C206.46 42.0051 206.465 41.9898 206.475 41.9746C206.582 41.7969 206.699 41.6445 206.821 41.5125C206.948 41.3805 207.12 41.2637 207.344 41.1672C207.567 41.0656 207.831 41.0199 208.146 41.0199C208.628 41.0199 209.06 41.1418 209.446 41.3906C209.827 41.6344 210.126 41.9898 210.345 42.457C210.558 42.9242 210.67 43.4726 210.67 44.1074C210.67 44.7421 210.563 45.2854 210.35 45.7577C210.136 46.2249 209.837 46.5854 209.461 46.8342C209.08 47.0831 208.649 47.21 208.166 47.21C207.841 47.21 207.572 47.1592 207.344 47.0526C207.12 46.951 206.942 46.8292 206.81 46.687C206.678 46.5499 206.562 46.3874 206.46 46.2096C206.46 46.1995 206.45 46.1893 206.445 46.1842C206.445 46.1792 206.435 46.169 206.43 46.1589H206.338V47.0881H205.191V39.1055L205.186 39.1005ZM206.521 45.194C206.643 45.514 206.821 45.7577 207.059 45.9354C207.293 46.1081 207.572 46.1995 207.897 46.1995C208.222 46.1995 208.517 46.1081 208.755 45.9253C208.994 45.7425 209.172 45.4936 209.294 45.1737C209.41 44.8538 209.471 44.4933 209.471 44.087C209.471 43.6808 209.41 43.3253 209.294 43.0156C209.177 42.7058 208.999 42.457 208.76 42.2844C208.522 42.1066 208.232 42.0203 207.892 42.0203C207.552 42.0203 207.278 42.1066 207.044 42.2742C206.81 42.4418 206.633 42.6855 206.511 42.9953C206.389 43.305 206.328 43.6706 206.328 44.0921C206.328 44.5136 206.389 44.8792 206.511 45.1991L206.521 45.194Z" fill="#00489D"/>
<path d="M215.351 41.0961H216.519V47.083H215.371V46.0471H215.31C215.219 46.2655 215.087 46.4584 214.919 46.626C214.752 46.7936 214.549 46.9256 214.315 47.0221C214.081 47.1186 213.817 47.1643 213.523 47.1643C213.132 47.1643 212.792 47.0779 212.492 46.9053C212.198 46.7326 211.964 46.4787 211.802 46.1385C211.634 45.7983 211.553 45.387 211.553 44.9096V41.1011H212.731V44.7675C212.731 45.0366 212.782 45.2702 212.888 45.4682C212.99 45.6713 213.137 45.8237 213.315 45.9354C213.498 46.042 213.706 46.0979 213.944 46.0979C214.183 46.0979 214.401 46.042 214.615 45.9252C214.828 45.8084 215.006 45.6409 215.143 45.4174C215.28 45.194 215.351 44.9198 215.351 44.5999V41.1011V41.0961Z" fill="#00489D"/>
<path d="M220.47 42.0356H217.194V41.0962H220.47V42.0356ZM219.251 39.6642V45.3211C219.251 45.5343 219.281 45.6968 219.347 45.8136C219.413 45.9304 219.495 46.0066 219.596 46.0523C219.698 46.098 219.82 46.1183 219.967 46.1183C220.068 46.1183 220.261 46.1081 220.551 46.0929V47.1085C220.338 47.1441 220.094 47.1593 219.82 47.1593C219.5 47.1593 219.21 47.0984 218.946 46.9816C218.682 46.8597 218.469 46.682 218.311 46.4433C218.154 46.2046 218.073 45.9101 218.073 45.5648V39.6642H219.251Z" fill="#00489D"/>
<path d="M221.566 40.0805C221.454 40.0145 221.363 39.9333 221.292 39.8266C221.221 39.72 221.19 39.6032 221.19 39.4813C221.19 39.3595 221.226 39.2376 221.292 39.1309C221.363 39.0243 221.449 38.938 221.566 38.877C221.678 38.8161 221.8 38.7856 221.937 38.7856C222.074 38.7856 222.191 38.8161 222.302 38.877C222.419 38.938 222.506 39.0243 222.572 39.1309C222.638 39.2376 222.673 39.3544 222.673 39.4813C222.673 39.6083 222.643 39.72 222.572 39.8266C222.506 39.9333 222.414 40.0196 222.302 40.0805C222.186 40.1465 222.064 40.177 221.937 40.177C221.81 40.177 221.683 40.1465 221.566 40.0805ZM221.338 41.0961H222.516V47.0831H221.338V41.0961Z" fill="#00489D"/>
<path d="M224.73 46.819C224.308 46.56 223.978 46.1994 223.75 45.7323C223.521 45.2651 223.404 44.7268 223.404 44.1175C223.404 43.5081 223.521 42.9597 223.75 42.4925C223.978 42.0253 224.308 41.6648 224.73 41.4058C225.151 41.1468 225.644 41.0199 226.197 41.0199C226.751 41.0199 227.243 41.1468 227.665 41.4058C228.086 41.6648 228.411 42.0253 228.645 42.4925C228.873 42.9597 228.99 43.503 228.99 44.1175C228.99 44.7319 228.873 45.2651 228.645 45.7323C228.416 46.1994 228.091 46.56 227.665 46.819C227.243 47.0779 226.751 47.2049 226.197 47.2049C225.644 47.2049 225.151 47.0779 224.73 46.819ZM227.086 45.9405C227.324 45.7526 227.507 45.4987 227.624 45.1788C227.741 44.8589 227.802 44.5034 227.802 44.1124C227.802 43.7214 227.741 43.3659 227.624 43.046C227.502 42.7261 227.324 42.4722 227.086 42.2843C226.847 42.0964 226.553 41.9999 226.202 41.9999C225.852 41.9999 225.552 42.0964 225.314 42.2843C225.075 42.4722 224.892 42.7261 224.77 43.046C224.648 43.3659 224.587 43.7214 224.587 44.1175C224.587 44.5135 224.648 44.8639 224.77 45.1838C224.892 45.5038 225.075 45.7577 225.314 45.9455C225.552 46.1334 225.852 46.2248 226.202 46.2248C226.553 46.2248 226.842 46.1334 227.086 45.9455V45.9405Z" fill="#00489D"/>
<path d="M231.047 47.083H229.869V41.0961H231.002V42.0761H231.078C231.174 41.8628 231.301 41.675 231.464 41.5125C231.626 41.355 231.824 41.2332 232.053 41.1468C232.286 41.0605 232.545 41.0199 232.84 41.0199C233.251 41.0199 233.606 41.1062 233.916 41.2789C234.221 41.4515 234.459 41.7054 234.627 42.0457C234.795 42.3859 234.876 42.7972 234.876 43.2796V47.0881H233.698V43.4269C233.698 43.1425 233.647 42.8937 233.545 42.6855C233.444 42.4773 233.302 42.3148 233.109 42.2081C232.921 42.1015 232.692 42.0457 232.433 42.0457C232.174 42.0457 231.921 42.1066 231.712 42.2234C231.504 42.3402 231.342 42.5128 231.22 42.7363C231.098 42.9597 231.042 43.2288 231.042 43.5437V47.0932L231.047 47.083Z" fill="#00489D"/>
<path d="M239.45 46.9104C239.059 46.7175 238.76 46.4534 238.546 46.1132C238.333 45.773 238.227 45.3921 238.227 44.9656C238.227 44.6558 238.293 44.3714 238.425 44.1175C238.557 43.8636 238.734 43.6351 238.963 43.4269C239.191 43.2187 239.481 42.9902 239.841 42.7465L241.131 41.8324C241.283 41.7309 241.41 41.6293 241.507 41.5278C241.608 41.4262 241.685 41.3145 241.735 41.1926C241.791 41.0707 241.817 40.9336 241.817 40.7813C241.817 40.6543 241.781 40.5325 241.705 40.4106C241.629 40.2887 241.522 40.1872 241.39 40.111C241.253 40.0348 241.101 39.9942 240.928 39.9942C240.755 39.9942 240.588 40.0399 240.446 40.1262C240.303 40.2126 240.192 40.3294 240.11 40.4715C240.029 40.6137 239.989 40.761 239.989 40.9184C239.989 41.0758 240.024 41.2231 240.1 41.3805C240.176 41.5379 240.268 41.6953 240.385 41.8477C240.496 42 240.654 42.1981 240.857 42.4367L241.03 42.65L244.741 47.078H243.416L240.344 43.4777C240.258 43.3761 240.166 43.2644 240.07 43.1578C239.796 42.8379 239.582 42.5687 239.425 42.3555C239.268 42.1422 239.141 41.9137 239.039 41.6699C238.937 41.4262 238.887 41.1723 238.887 40.9032C238.887 40.5376 238.973 40.2075 239.141 39.9231C239.308 39.6388 239.547 39.4153 239.851 39.2528C240.156 39.0954 240.507 39.0142 240.908 39.0142C241.309 39.0142 241.649 39.0903 241.954 39.2477C242.253 39.4052 242.487 39.6134 242.649 39.8825C242.812 40.1516 242.893 40.4411 242.893 40.7559C242.893 41.0047 242.852 41.2332 242.766 41.4414C242.685 41.6496 242.563 41.8477 242.406 42.0305C242.248 42.2133 242.055 42.3859 241.827 42.5535L240.227 43.7316C240.034 43.8738 239.872 44.021 239.75 44.1734C239.628 44.3257 239.537 44.4628 239.481 44.5949C239.425 44.7269 239.394 44.8386 239.394 44.93C239.394 45.1585 239.455 45.3718 239.572 45.5648C239.689 45.7577 239.857 45.9151 240.075 46.0269C240.293 46.1436 240.542 46.1995 240.821 46.1995C241.217 46.1995 241.603 46.0827 241.969 45.8542C242.335 45.6206 242.634 45.2956 242.863 44.8792C243.091 44.4628 243.203 43.9855 243.203 43.4472H244.264C244.264 43.9296 244.213 44.346 244.107 44.7015C244 45.057 243.868 45.3464 243.716 45.5648C243.563 45.7831 243.391 45.9761 243.198 46.1436C243.142 46.1944 243.096 46.2351 243.066 46.2706C243.02 46.3112 242.974 46.3518 242.929 46.3925C242.665 46.6514 242.345 46.8444 241.969 46.9815C241.593 47.1186 241.207 47.1846 240.816 47.1846C240.293 47.1846 239.836 47.0882 239.445 46.8952L239.45 46.9104Z" fill="#00489D"/>
<path d="M249.282 39.1005L251.815 45.2854H251.907L254.436 39.1005H255.913V47.0831H254.755V41.3246H254.679L252.333 47.0729H251.374L249.028 41.3145H248.962V47.0881H247.799V39.1055H249.276L249.282 39.1005Z" fill="#00489D"/>
<path d="M260.097 44.4171C259.787 44.4374 259.518 44.4577 259.284 44.473C258.888 44.5034 258.579 44.5948 258.36 44.7472C258.142 44.8995 258.035 45.123 258.035 45.4073C258.035 45.5952 258.081 45.7526 258.177 45.8847C258.274 46.0167 258.406 46.1132 258.579 46.1792C258.751 46.2452 258.944 46.2807 259.168 46.2807C259.477 46.2807 259.752 46.2198 259.985 46.0928C260.219 45.9659 260.396 45.8034 260.518 45.5952C260.64 45.387 260.701 45.1636 260.701 44.9249V43.0359C260.701 42.8074 260.65 42.6195 260.559 42.457C260.468 42.2996 260.33 42.1777 260.148 42.0965C259.965 42.0152 259.741 41.9746 259.477 41.9746C259.254 41.9746 259.056 42.0051 258.888 42.0711C258.721 42.1371 258.579 42.2234 258.472 42.3402C258.36 42.457 258.289 42.589 258.249 42.7363H257.076C257.116 42.4062 257.238 42.1117 257.446 41.8527C257.654 41.5938 257.939 41.3906 258.294 41.2434C258.65 41.0961 259.061 41.025 259.523 41.025C259.909 41.025 260.275 41.086 260.62 41.2028C260.965 41.3195 261.265 41.5328 261.509 41.8477C261.752 42.1574 261.874 42.584 261.874 43.1172V47.0932H260.727V46.2757H260.681C260.6 46.4432 260.478 46.5956 260.325 46.7378C260.173 46.8799 259.975 46.9967 259.736 47.0881C259.498 47.1795 259.224 47.2252 258.909 47.2252C258.528 47.2252 258.183 47.1542 257.878 47.012C257.573 46.8698 257.329 46.6616 257.152 46.3874C256.974 46.1132 256.888 45.7831 256.888 45.4022C256.888 44.7878 257.096 44.346 257.517 44.082C257.939 43.8179 258.472 43.6605 259.127 43.6148C259.31 43.6046 259.523 43.5894 259.767 43.5742C260.011 43.564 260.244 43.5488 260.457 43.5386C260.6 43.5335 260.701 43.5285 260.767 43.5285L260.782 44.3867C260.64 44.3867 260.417 44.407 260.107 44.4273L260.097 44.4171Z" fill="#00489D"/>
<path d="M263.002 41.0961H264.139V42.0507H264.2C264.271 41.8375 264.383 41.6547 264.535 41.4922C264.683 41.3348 264.86 41.2129 265.064 41.1316C265.267 41.0504 265.485 41.0098 265.719 41.0098C265.896 41.0098 266.064 41.0199 266.221 41.0352V42.1574C266.155 42.1422 266.064 42.1269 265.947 42.1117C265.83 42.0965 265.719 42.0863 265.612 42.0863C265.338 42.0863 265.094 42.1422 264.876 42.2589C264.657 42.3707 264.49 42.5332 264.368 42.7414C264.246 42.9496 264.18 43.1781 264.18 43.437V47.083H263.002V41.0961Z" fill="#00489D"/>
<path d="M266.82 39.1005H267.998V47.0831H266.82V39.1005ZM267.892 43.63H268.095L270.466 41.1012H271.873L269.156 43.9906H268.968L267.897 45.062L267.887 43.63H267.892ZM268.46 44.2495L269.273 43.4218L272.04 47.0831H270.603L268.466 44.2445L268.46 44.2495Z" fill="#00489D"/>
<path d="M273.34 46.8241C272.909 46.5702 272.579 46.2147 272.35 45.7526C272.122 45.2905 272.005 44.7472 272.005 44.1328C272.005 43.5183 272.122 42.9851 272.35 42.5129C272.579 42.0406 272.904 41.675 273.32 41.416C273.736 41.1571 274.219 41.025 274.772 41.025C275.255 41.025 275.696 41.1317 276.098 41.3399C276.499 41.5481 276.824 41.8781 277.067 42.3301C277.311 42.782 277.433 43.3507 277.433 44.0363V44.4527H272.665V43.5742H276.275C276.275 43.2695 276.214 43.0004 276.093 42.7617C275.971 42.523 275.793 42.3351 275.57 42.198C275.341 42.0609 275.082 41.9949 274.788 41.9949C274.473 41.9949 274.188 42.0711 273.945 42.2285C273.701 42.3859 273.513 42.589 273.376 42.848C273.244 43.107 273.173 43.3863 273.173 43.6859V44.3663C273.173 44.7573 273.244 45.0976 273.381 45.3769C273.523 45.6561 273.721 45.8745 273.975 46.0218C274.229 46.169 274.523 46.2452 274.864 46.2452C275.077 46.2452 275.27 46.2147 275.443 46.1589C275.615 46.103 275.762 46.0218 275.879 45.9253C276.001 45.8237 276.093 45.712 276.159 45.5851H277.352C277.266 45.91 277.108 46.1944 276.88 46.4432C276.651 46.687 276.367 46.8799 276.016 47.012C275.666 47.144 275.28 47.2151 274.848 47.2151C274.265 47.2151 273.762 47.0881 273.33 46.8342L273.34 46.8241Z" fill="#00489D"/>
<path d="M281.114 42.0356H277.839V41.0962H281.114V42.0356ZM279.895 39.6642V45.3211C279.895 45.5343 279.926 45.6968 279.992 45.8136C280.058 45.9304 280.139 46.0066 280.241 46.0523C280.342 46.098 280.464 46.1183 280.611 46.1183C280.713 46.1183 280.906 46.1081 281.195 46.0929V47.1085C280.982 47.1441 280.738 47.1593 280.464 47.1593C280.144 47.1593 279.855 47.0984 279.591 46.9816C279.327 46.8648 279.113 46.682 278.956 46.4433C278.799 46.2046 278.717 45.9101 278.717 45.5648V39.6642H279.895Z" fill="#00489D"/>
<path d="M282.211 40.0805C282.099 40.0145 282.008 39.9333 281.936 39.8266C281.865 39.72 281.835 39.6032 281.835 39.4813C281.835 39.3595 281.87 39.2376 281.936 39.1309C282.008 39.0243 282.094 38.938 282.211 38.877C282.322 38.8161 282.444 38.7856 282.581 38.7856C282.718 38.7856 282.835 38.8161 282.947 38.877C283.064 38.938 283.15 39.0243 283.216 39.1309C283.282 39.2376 283.318 39.3544 283.318 39.4813C283.318 39.6083 283.287 39.72 283.216 39.8266C283.15 39.9333 283.059 40.0196 282.947 40.0805C282.83 40.1465 282.708 40.177 282.581 40.177C282.454 40.177 282.328 40.1465 282.211 40.0805ZM281.982 41.0961H283.16V47.0831H281.982V41.0961Z" fill="#00489D"/>
<path d="M285.486 47.083H284.308V41.0961H285.44V42.0761H285.516C285.613 41.8628 285.74 41.675 285.902 41.5125C286.065 41.355 286.263 41.2332 286.491 41.1468C286.72 41.0605 286.984 41.0199 287.278 41.0199C287.689 41.0199 288.045 41.1062 288.355 41.2789C288.659 41.4515 288.898 41.7054 289.066 42.0457C289.233 42.3859 289.314 42.7972 289.314 43.2796V47.0881H288.136V43.4269C288.136 43.1425 288.086 42.8937 287.984 42.6855C287.882 42.4773 287.74 42.3148 287.547 42.2081C287.359 42.1015 287.131 42.0457 286.872 42.0457C286.613 42.0457 286.359 42.1066 286.151 42.2234C285.943 42.3402 285.78 42.5128 285.658 42.7363C285.542 42.9597 285.481 43.2288 285.481 43.5437V47.0932L285.486 47.083Z" fill="#00489D"/>
<path d="M291.651 49.2412C291.27 49.099 290.97 48.8959 290.747 48.6217C290.523 48.3525 290.396 48.0326 290.361 47.6619H291.559C291.595 47.8498 291.676 48.0072 291.803 48.1291C291.925 48.256 292.092 48.3474 292.291 48.4135C292.489 48.4744 292.722 48.5049 292.986 48.5049C293.469 48.5049 293.839 48.3932 294.108 48.1748C294.378 47.9564 294.51 47.6162 294.51 47.1643V45.9862H294.433L294.418 46.0116C294.317 46.1893 294.205 46.3416 294.078 46.4788C293.951 46.6108 293.773 46.7327 293.54 46.8342C293.306 46.9358 293.027 46.9866 292.697 46.9866C292.219 46.9866 291.793 46.8698 291.412 46.6362C291.036 46.4026 290.737 46.0624 290.518 45.6206C290.3 45.1737 290.193 44.6405 290.193 44.021C290.193 43.4015 290.3 42.8632 290.518 42.4062C290.737 41.9543 291.036 41.6039 291.417 41.3652C291.798 41.1266 292.23 41.0098 292.712 41.0098C293.027 41.0098 293.301 41.0605 293.524 41.1621C293.748 41.2637 293.926 41.3805 294.047 41.5125C294.169 41.6445 294.291 41.8019 294.398 41.9746C294.413 42 294.428 42.0304 294.444 42.0558H294.52V41.0859H295.667V47.1998C295.667 47.6975 295.55 48.1139 295.322 48.449C295.093 48.7842 294.774 49.033 294.367 49.1955C293.961 49.358 293.494 49.4392 292.971 49.4392C292.448 49.4392 292.026 49.3681 291.646 49.2259L291.651 49.2412ZM293.814 45.7881C294.047 45.6307 294.225 45.4022 294.347 45.1077C294.469 44.8132 294.53 44.4628 294.53 44.0515C294.53 43.6402 294.469 43.2898 294.352 42.9851C294.23 42.6804 294.053 42.4418 293.819 42.2742C293.585 42.1066 293.301 42.0203 292.971 42.0203C292.641 42.0203 292.346 42.1066 292.108 42.2843C291.869 42.4621 291.691 42.7007 291.575 43.0054C291.453 43.3101 291.397 43.6605 291.397 44.0515C291.397 44.4425 291.458 44.7929 291.58 45.0874C291.701 45.3819 291.879 45.6104 292.113 45.778C292.346 45.9405 292.631 46.0268 292.971 46.0268C293.311 46.0268 293.58 45.9456 293.814 45.7881Z" fill="#00489D"/>
<path d="M298.79 47.0831L301.659 39.1005H303.066L305.935 47.0831H304.645L302.39 40.5578H302.329L300.075 47.0831H298.79ZM304.437 43.9601V44.9757H300.288V43.9601H304.437Z" fill="#00489D"/>
<path d="M307.666 49.2412C307.285 49.099 306.986 48.8959 306.762 48.6217C306.539 48.3525 306.412 48.0326 306.377 47.6619H307.575C307.61 47.8498 307.692 48.0072 307.819 48.1291C307.941 48.256 308.103 48.3474 308.306 48.4135C308.504 48.4744 308.738 48.5049 309.002 48.5049C309.484 48.5049 309.855 48.3932 310.124 48.1748C310.393 47.9564 310.525 47.6162 310.525 47.1643V45.9862H310.449L310.434 46.0116C310.332 46.1893 310.22 46.3416 310.094 46.4788C309.967 46.6108 309.789 46.7327 309.555 46.8342C309.327 46.9358 309.042 46.9866 308.712 46.9866C308.235 46.9866 307.808 46.8698 307.428 46.6362C307.052 46.4026 306.752 46.0624 306.534 45.6206C306.316 45.1737 306.209 44.6405 306.209 44.021C306.209 43.4015 306.316 42.8632 306.534 42.4062C306.752 41.9543 307.052 41.6039 307.428 41.3652C307.808 41.1266 308.24 41.0098 308.722 41.0098C309.037 41.0098 309.312 41.0605 309.535 41.1621C309.758 41.2637 309.936 41.3805 310.058 41.5125C310.18 41.6445 310.302 41.8019 310.408 41.9746C310.424 42 310.439 42.0304 310.454 42.0558H310.53V41.0859H311.678V47.1998C311.678 47.6975 311.561 48.1139 311.332 48.449C311.104 48.7842 310.784 49.033 310.378 49.1955C309.972 49.358 309.504 49.4392 308.981 49.4392C308.458 49.4392 308.037 49.3681 307.656 49.2259L307.666 49.2412ZM309.824 45.7881C310.058 45.6307 310.236 45.4022 310.358 45.1077C310.479 44.8132 310.54 44.4628 310.54 44.0515C310.54 43.6402 310.479 43.2898 310.363 42.9851C310.241 42.6804 310.063 42.4418 309.829 42.2742C309.596 42.1066 309.312 42.0203 308.981 42.0203C308.651 42.0203 308.357 42.1066 308.118 42.2843C307.88 42.4621 307.702 42.7007 307.585 43.0054C307.463 43.3101 307.407 43.6605 307.407 44.0515C307.407 44.4425 307.468 44.7929 307.59 45.0874C307.712 45.3819 307.89 45.6104 308.123 45.778C308.357 45.9405 308.641 46.0268 308.981 46.0268C309.322 46.0268 309.591 45.9456 309.824 45.7881Z" fill="#00489D"/>
<path d="M313.907 46.8241C313.475 46.5702 313.145 46.2147 312.917 45.7526C312.688 45.2905 312.571 44.7472 312.571 44.1328C312.571 43.5183 312.688 42.9851 312.917 42.5129C313.145 42.0406 313.47 41.675 313.886 41.416C314.303 41.1571 314.785 41.025 315.339 41.025C315.821 41.025 316.263 41.1317 316.664 41.3399C317.065 41.5481 317.39 41.8781 317.634 42.3301C317.878 42.782 317.999 43.3507 317.999 44.0363V44.4527H313.231V43.5742H316.842C316.842 43.2695 316.781 43.0004 316.659 42.7617C316.537 42.523 316.359 42.3351 316.136 42.198C315.907 42.0609 315.648 41.9949 315.354 41.9949C315.039 41.9949 314.755 42.0711 314.511 42.2285C314.267 42.3859 314.079 42.589 313.942 42.848C313.81 43.107 313.739 43.3863 313.739 43.6859V44.3663C313.739 44.7573 313.81 45.0976 313.947 45.3769C314.09 45.6561 314.288 45.8745 314.541 46.0218C314.795 46.169 315.09 46.2452 315.43 46.2452C315.643 46.2452 315.836 46.2147 316.009 46.1589C316.182 46.103 316.329 46.0218 316.446 45.9253C316.562 45.8237 316.659 45.712 316.725 45.5851H317.918C317.832 45.91 317.674 46.1944 317.446 46.4432C317.217 46.687 316.933 46.8799 316.583 47.012C316.232 47.144 315.846 47.2151 315.415 47.2151C314.831 47.2151 314.328 47.0881 313.897 46.8342L313.907 46.8241Z" fill="#00489D"/>
<path d="M320.061 47.083H318.883V41.0961H320.015V42.0761H320.091C320.188 41.8628 320.315 41.675 320.477 41.5125C320.64 41.355 320.838 41.2332 321.066 41.1468C321.295 41.0605 321.559 41.0199 321.853 41.0199C322.265 41.0199 322.62 41.1062 322.93 41.2789C323.235 41.4515 323.473 41.7054 323.641 42.0457C323.808 42.3859 323.89 42.7972 323.89 43.2796V47.0881H322.712V43.4269C322.712 43.1425 322.661 42.8937 322.559 42.6855C322.458 42.4773 322.315 42.3148 322.122 42.2081C321.935 42.1015 321.706 42.0457 321.447 42.0457C321.188 42.0457 320.934 42.1066 320.726 42.2234C320.518 42.3402 320.355 42.5128 320.234 42.7363C320.112 42.9597 320.056 43.2288 320.056 43.5437V47.0932L320.061 47.083Z" fill="#00489D"/>
<path d="M326.079 46.8139C325.657 46.5549 325.332 46.1893 325.109 45.7221C324.88 45.2549 324.769 44.7217 324.769 44.1175C324.769 43.5132 324.885 42.9749 325.114 42.5077C325.342 42.0406 325.667 41.675 326.089 41.4109C326.51 41.1519 326.998 41.0199 327.556 41.0199C328.008 41.0199 328.409 41.1011 328.77 41.2687C329.13 41.4363 329.42 41.6699 329.638 41.9796C329.857 42.2843 329.983 42.6398 330.024 43.0359H328.882C328.841 42.8429 328.76 42.6702 328.648 42.5128C328.531 42.3554 328.384 42.2335 328.201 42.1421C328.018 42.0507 327.805 42.005 327.566 42.005C327.241 42.005 326.962 42.0914 326.718 42.2589C326.475 42.4316 326.287 42.6702 326.15 42.9851C326.013 43.2999 325.947 43.6655 325.947 44.087C325.947 44.5085 326.013 44.8893 326.145 45.2092C326.277 45.5291 326.465 45.7729 326.708 45.9455C326.952 46.1182 327.236 46.2045 327.561 46.2045C327.785 46.2045 327.988 46.1639 328.166 46.0826C328.343 46.0014 328.496 45.8846 328.618 45.7323C328.739 45.5799 328.826 45.3971 328.871 45.1838H330.014C329.973 45.5749 329.846 45.9202 329.633 46.2248C329.42 46.5295 329.135 46.7682 328.78 46.9408C328.425 47.1135 328.013 47.1998 327.551 47.1998C326.982 47.1998 326.485 47.0678 326.063 46.8088L326.079 46.8139Z" fill="#00489D"/>
<path d="M330.958 49.3072L330.968 48.3221C330.999 48.3221 331.029 48.3221 331.065 48.3221C331.095 48.3221 331.131 48.3221 331.166 48.3221C331.268 48.3221 331.375 48.3323 331.491 48.3323C331.644 48.3323 331.766 48.317 331.867 48.2916C331.969 48.2663 332.065 48.1952 332.162 48.0784C332.258 47.9616 332.35 47.7889 332.441 47.5503L332.588 47.1593L330.395 41.0911H331.654L333.162 45.7323H333.223L334.741 41.0911H336L333.533 47.8753C333.36 48.3577 333.111 48.7182 332.796 48.9619C332.482 49.2057 332.08 49.3276 331.593 49.3276C331.324 49.3276 331.111 49.3174 330.963 49.3022L330.958 49.3072Z" fill="#00489D"/>
</g>
<defs>
<clipPath id="clip0_3_2170">
<rect width="336" height="56" fill="white"/>
</clipPath>
</defs>
</svg>
