<svg width="371" height="56" viewBox="0 0 371 56" fill="none" xmlns="http://www.w3.org/2000/svg">
<g clip-path="url(#clip0_3_2339)">
<path d="M215.802 35.9989H212.982V29.6698H209.961V41.1725C207.716 41.4036 205.56 41.5154 203.516 41.5154H201.24V38.608H206.97V35.9318H201.24V33.2854H207.373V30.5495H198.331V44.1842H203.486C205.731 44.1842 207.887 44.0724 209.961 43.8114V45.0788H212.982V38.7497H215.802V45.0788H218.853V29.6624H215.802V35.9914V35.9989Z" fill="#056FB8"/>
<path d="M202.247 49.231H215.832V55.0979H218.853V46.4951H202.247V49.231Z" fill="#056FB8"/>
<path d="M235.228 44.0201H242.195V41.2022H228.35V33.8071H241.994V30.9967H225.239V44.0201H232.117V49.3428H222.479V52.1607H244.866V49.3428H235.228V44.0201Z" fill="#056FB8"/>
<path d="M268.298 29.6698H265.188V54.7774H268.298V29.6698Z" fill="#056FB8"/>
<path d="M285.411 44.5719H292.289V30.5048H289.178V34.59H278.533V30.5048H275.422V44.5719H282.3V49.3429H272.654V52.1608H295.049V49.3429H285.403V44.5719H285.411ZM278.54 41.7763V37.4079H289.186V41.7763H278.54Z" fill="#056FB8"/>
<path d="M339.317 34.7316C339.317 36.4536 339.086 38.3247 338.623 40.3077H341.674C342.167 38.3546 342.42 36.394 342.42 34.4408V30.3258H325.441V33.0841H339.317V34.7241V34.7316Z" fill="#056FB8"/>
<path d="M370.999 37.8402H367.195V29.6698H364.084V54.7774H367.195V40.7699H370.999V37.8402Z" fill="#056FB8"/>
<path d="M173.168 39.9723L174.078 42.6783C178.979 41.672 181.859 39.6741 183.493 37.5644C185.119 39.6741 187.998 41.672 192.907 42.6783L193.817 39.9723C190.244 39.1597 186.186 37.3631 185.514 33.3823H192.101V30.6166H174.891V33.3823H181.478C180.814 37.3631 176.749 39.1597 173.175 39.9723H173.168Z" fill="#056FB8"/>
<path d="M172.288 47.017H181.934V55.2396H185.037V47.017H194.683V44.1917H172.288V47.017Z" fill="#056FB8"/>
<path d="M256.534 34.6496V30.4153H253.259V34.6496C253.259 37.2215 252.812 42.8051 246.553 47.1064L248.254 49.3056C251.693 47.0319 253.714 44.3556 254.9 41.8583C256.087 44.3556 258.101 47.0319 261.547 49.3056L263.248 47.1064C256.989 42.8051 256.549 37.2215 256.542 34.6496H256.534Z" fill="#056FB8"/>
<path d="M356.408 34.8807C356.408 34.8061 356.408 34.7241 356.408 34.657V30.4227H353.133V34.657C353.133 37.2289 352.686 42.8125 346.427 47.1139L348.128 49.313C351.567 47.0393 353.588 44.3631 354.774 41.8658C355.961 44.3631 357.975 47.0393 361.421 49.313L363.122 47.1139C357.035 42.9318 356.453 37.5495 356.416 34.8881L356.408 34.8807Z" fill="#056FB8"/>
<path d="M299.175 38.4142L300.122 40.8743C304.777 39.8306 307.455 38.1756 308.947 36.4909C310.439 38.1756 313.118 39.8306 317.773 40.8743L318.727 38.4142C314.05 37.2662 311.223 35.4174 310.738 33.0617H317.556V30.3333H300.346V33.0617H307.164C306.68 35.4174 303.852 37.2662 299.175 38.4142Z" fill="#056FB8"/>
<path d="M297.758 45.1161H303.868C302.711 46.2716 302.003 47.8147 302.003 49.5218C302.003 53.1001 305.113 56 308.955 56C312.797 56 315.908 53.1001 315.908 49.5218C315.908 47.8147 315.199 46.2716 314.043 45.1161H320.153V42.328H297.758V45.1161ZM308.955 53.2194C306.829 53.2194 305.113 51.5644 305.113 49.5293C305.113 47.4941 306.837 45.8317 308.955 45.8317C311.074 45.8317 312.797 47.4867 312.797 49.5293C312.797 51.5719 311.074 53.2194 308.955 53.2194Z" fill="#056FB8"/>
<path d="M333.834 36.8562H330.708V42.3205H322.86V45.1086H328.97C327.821 46.2641 327.105 47.8072 327.105 49.5143C327.105 53.0926 330.216 55.9925 334.058 55.9925C337.9 55.9925 341.01 53.0926 341.01 49.5143C341.01 47.8072 340.302 46.2641 339.145 45.1086H345.255V42.3205H333.841V36.8562H333.834ZM334.05 53.2194C331.924 53.2194 330.208 51.5644 330.208 49.5293C330.208 47.4941 331.932 45.8317 334.05 45.8317C336.169 45.8317 337.892 47.4867 337.892 49.5293C337.892 51.5719 336.169 53.2194 334.05 53.2194Z" fill="#056FB8"/>
<path d="M30.802 3.28763C37.1057 2.51979 40.0673 4.04801 40.955 5.78496C41.7085 7.24609 41.604 9.28124 39.1422 11.2269C39.1422 11.2269 36.0986 13.5379 36.5909 16.6763C37.0982 19.8968 41.992 23.2291 47.3631 20.5901C52.7194 17.9586 53.4579 11.048 51.3169 7.261C49.1834 3.47399 44.6701 1.46122 38.5604 1.31958C36.2478 1.26739 32.6819 1.58049 30.8617 2.20669C30.8617 2.20669 30.1828 2.37815 30.1231 2.77325C30.0709 3.12362 30.3693 3.30999 30.7945 3.28017L30.802 3.28763Z" fill="url(#paint0_radial_3_2339)"/>
<path d="M37.9712 23.9968C37.2103 23.229 34.7634 24.2876 35.1215 20.754C35.4348 17.7349 32.2345 17.2801 30.8096 17.2279C30.5634 17.2279 30.3247 17.2279 30.1084 17.2279C29.3773 17.2578 28.3851 17.2279 28.3851 17.2279C22.626 17.0192 18.0754 14.7604 16.9937 11.0629C15.9046 7.34295 17.9188 3.35467 25.0431 1.05115C25.0431 1.05115 25.8189 0.738053 25.4161 0.193857C25.1997 -0.0968779 24.5432 0.022398 24.5432 0.022398C7.56431 2.73592 -2.02923 12.5762 0.365427 23.311C1.48443 28.3355 7.21369 32.6742 13.5472 34.0086C14.1142 34.1278 21.8054 36.2226 29.5713 33.8669C33.2789 32.7487 36.0242 31.0341 37.4863 28.7082C38.7545 26.6358 38.7396 24.7498 37.9787 23.9968H37.9712Z" fill="url(#paint1_radial_3_2339)"/>
<path d="M93.1009 45.2429C93.1009 51.0501 99.8298 55.7764 108.103 55.7764C116.376 55.7764 123.105 51.0501 123.105 45.2429V21.8276C123.105 21.0895 122.471 20.4932 121.688 20.4932H115.824V45.0416C115.824 48.1428 112.288 50.7669 108.11 50.7669C103.933 50.7669 100.389 48.1428 100.389 45.0416V21.835C100.389 21.097 99.7478 20.5006 98.9645 20.5006H89.8633V24.1758H91.3031C91.6686 24.1833 93.1084 24.3324 93.1084 26.032V45.2504L93.1009 45.2429Z" fill="#056FB8"/>
<path d="M83.8129 20.4932H77.9418V34.9852H62.5146V21.8276C62.5146 21.0895 61.873 20.4932 61.0897 20.4932H51.9736V24.1683H53.4059C53.7715 24.1758 55.2113 24.3249 55.2113 26.0246V51.9894C55.2113 53.786 56.666 55.2472 58.4638 55.2472H62.5146V40.375H77.9418V51.9894C77.9418 53.786 79.3965 55.2472 81.1944 55.2472H85.2452V21.8276C85.2452 21.0895 84.6036 20.4932 83.8129 20.4932Z" fill="#056FB8"/>
<path d="M159.069 52.6752V36.737C159.069 36.0064 158.443 35.4026 157.674 35.4026H144.955V40.3078H149.983C150.453 40.3227 152.303 40.5091 152.303 42.6933V49.3728C150.722 50.3046 148.051 50.4164 147.103 50.4239C144.269 50.4463 142.157 49.2908 142.157 49.2908C138.554 47.4346 136.361 44.6838 135.719 39.1747C135.048 33.4047 136.607 29.0959 139.912 26.4346C141.419 25.2194 143.523 24.623 146.141 24.5485C146.745 24.5336 147.35 24.5858 147.954 24.6603C150.938 25.0405 154.146 26.3376 154.183 30.8328V31.9511L154.541 31.9958C155.914 32.1822 157.174 31.6976 158.122 30.6241C159.114 29.5059 159.614 27.9031 159.465 26.3525C159.278 24.4814 158.032 22.8414 155.951 21.7381C153.996 20.6944 150.886 20.098 147.424 20.098C145.238 20.098 143.105 20.344 141.411 20.7839C138.659 21.4995 136.346 22.7072 134.131 24.5783C129.774 28.2461 127.946 32.8307 128.2 39.4356C128.327 42.5442 129.237 47.7104 133.951 51.4303C137.085 53.8904 141.523 55.2397 146.79 55.3366C151.758 55.3888 156.891 53.9202 159.054 52.6678L159.069 52.6752Z" fill="#056FB8"/>
</g>
<defs>
<radialGradient id="paint0_radial_3_2339" cx="0" cy="0" r="1" gradientUnits="userSpaceOnUse" gradientTransform="translate(39.1945 24.966) scale(20.3508 20.3365)">
<stop stop-color="#8FC31F"/>
<stop offset="0.17" stop-color="#88C020"/>
<stop offset="0.41" stop-color="#76B824"/>
<stop offset="0.68" stop-color="#59AB2B"/>
<stop offset="0.99" stop-color="#309934"/>
<stop offset="1" stop-color="#2F9935"/>
</radialGradient>
<radialGradient id="paint1_radial_3_2339" cx="0" cy="0" r="1" gradientUnits="userSpaceOnUse" gradientTransform="translate(36.2554 35.9319) scale(39.1575 39.1299)">
<stop stop-color="#21AEE5"/>
<stop offset="0.23" stop-color="#1EA8E0"/>
<stop offset="0.52" stop-color="#1797D5"/>
<stop offset="0.86" stop-color="#0B7CC1"/>
<stop offset="1" stop-color="#056FB8"/>
</radialGradient>
<clipPath id="clip0_3_2339">
<rect width="371" height="56" fill="white"/>
</clipPath>
</defs>
</svg>
