<svg width="432" height="56" viewBox="0 0 432 56" fill="none" xmlns="http://www.w3.org/2000/svg">
<g clip-path="url(#clip0_3_1983)">
<path d="M29.6287 10.5195H21.374L6.34863 26.4714L21.4583 42.4738H29.7214L14.6286 26.4714L29.6287 10.5195Z" fill="#0081CC"/>
<path d="M44.5957 42.9454C34.7981 42.9454 28.4658 36.4855 28.4658 26.4798C28.4658 16.4741 34.7981 10.0226 44.5957 10.0226C54.3934 10.0226 60.7256 16.4825 60.7256 26.4798C60.7256 36.4771 54.3934 42.9454 44.5957 42.9454ZM44.5957 15.8171C38.7104 15.8171 34.9077 20.003 34.9077 26.4798C34.9077 32.9566 38.7104 37.1509 44.5957 37.1509C50.4811 37.1509 54.2838 32.965 54.2838 26.4798C54.2838 19.9946 50.4811 15.8171 44.5957 15.8171Z" fill="#0081CC"/>
<path d="M67.7153 42.4738C66.5012 42.4738 65.5146 41.4884 65.5146 40.2756V10.5195H69.6715C70.8857 10.5195 71.8722 11.5049 71.8722 12.7178V42.4738H67.7153Z" fill="#0081CC"/>
<path d="M2.20068 42.4738C0.986513 42.4738 0 41.4884 0 40.2756V10.5195H4.14841C5.36258 10.5195 6.3491 11.5049 6.3491 12.7178V42.4738H2.20068Z" fill="#0081CC"/>
<path d="M79.7134 42.4738C78.4992 42.4738 77.5127 41.4884 77.5127 40.2756V10.5195H99.0052V14.3096C99.0052 15.4129 98.103 16.3141 96.9984 16.3141H83.8618V23.1867H96.5684V26.9262C96.5684 28.0295 95.6494 28.9391 94.5364 28.9391H83.8702V36.6793H99.5785V40.4693C99.5785 41.581 98.6764 42.4738 97.5718 42.4738H79.7218H79.7134Z" fill="#0081CC"/>
<path d="M33.0857 0C32.0739 0 31.2223 0.0589562 30.3454 0.985411C29.4685 1.91187 26.2139 5.39871 26.2139 5.39871H127.091V1.94556C127.091 0.774853 126.299 0 125 0H33.0857Z" fill="#0081CC"/>
<path d="M33.154 52.9511C32.1422 52.9511 31.3074 52.8921 30.4305 51.9657C29.5536 51.0392 26.2568 47.5608 26.2568 47.5608H127.084V51.0139C127.084 52.1846 126.291 52.9595 124.992 52.9595H33.154V52.9511Z" fill="#0081CC"/>
<path d="M118.407 24.5006L112.48 22.2349C110.338 21.3759 109.242 20.6263 109.242 18.9081C109.242 16.0782 112.421 15.3539 114.461 15.4887C116.603 15.6234 118.121 16.4404 119.132 17.2574C119.664 17.6869 120.304 18.4533 121.923 17.6448C123.534 16.8278 125.051 16.0698 125.051 16.0698C123.517 12.8946 119.697 10.0226 114.276 10.0226C106.957 10.0226 102.96 14.2927 102.901 19.3629C102.851 23.7847 106.004 26.2103 108.719 27.2968L114.976 29.6466C116.814 30.3793 118.719 31.3984 118.702 33.7904C118.677 36.4602 115.751 37.4372 113.255 37.3783C108.643 37.2688 106.771 33.8746 106.771 33.8746C106.771 33.8746 104.664 34.5063 103.213 34.919C101.763 35.3317 101.417 36.4434 102.218 37.6309C103.702 39.8207 106.932 42.9286 113.281 42.9286C119.976 42.9286 125.363 39.2986 125.363 33.2092C125.363 29.1749 122.927 26.3029 118.399 24.4837L118.407 24.5006Z" fill="#0081CC"/>
<path d="M304.142 30.2698C304.142 32.5438 303.315 33.9335 301.604 33.9335H300.76C300.052 33.9335 299.647 33.4113 299.647 32.1059V0H304.142V30.2614V30.2698Z" fill="#4C4A49"/>
<path d="M334.96 13.341C334.96 15.615 334.133 16.9962 332.413 16.9962H331.57C330.862 16.9962 330.457 16.4656 330.457 15.1686V0H334.96V13.3325V13.341Z" fill="#4C4A49"/>
<path d="M365.33 18.5712C365.33 20.8452 364.496 22.2349 362.784 22.2349H361.941C361.224 22.2349 360.819 21.7043 360.819 20.4073V0H365.322V18.5628L365.33 18.5712Z" fill="#4C4A49"/>
<path d="M203.096 12.8777H209.192C209.715 12.8777 210.279 13.1219 210.279 13.762V14.3516C210.279 15.5055 209.79 16.7014 207.497 16.7014H179.428V12.8777H203.096Z" fill="#4C4A49"/>
<path d="M267.809 15.0591H273.906C274.428 15.0591 274.993 15.3118 274.993 15.9434V16.533C274.993 17.6868 274.504 18.8828 272.219 18.8828H244.142V15.0591H267.809Z" fill="#4C4A49"/>
<path d="M235.474 25.2333H241.57C242.093 25.2333 242.658 25.4775 242.658 26.126V26.7072C242.658 27.8695 242.169 29.0486 239.884 29.0486H211.814V25.2333H235.482H235.474Z" fill="#4C4A49"/>
<path d="M233.315 19.3714C233.383 18.8913 233.45 18.4281 233.501 17.948C233.619 16.9121 233.712 15.9014 233.771 14.8991C233.83 13.8969 233.872 12.8946 233.897 11.8755C233.922 10.8648 233.931 9.83732 233.931 8.79296V6.68738H215.592V2.79626H235.558C237.067 2.79626 238.357 3.84063 238.357 5.53352V7.60541C238.357 10.2753 238.341 12.7514 238.164 15.0255C237.767 19.9862 235.718 21.5191 235.718 21.5191C235.718 21.5191 234.42 21.4517 233.703 21.2664C232.986 21.0727 233.223 19.9525 233.315 19.363V19.3714Z" fill="#4C4A49"/>
<path d="M292.337 17.4848C293.644 19.0934 295.878 21.14 296.806 21.9654C296.806 21.9654 296.064 22.7319 295.204 23.6499C294.344 24.5595 293.096 24.231 292.708 23.852C292.32 23.4815 291.932 23.1109 291.561 22.7319C290.794 21.9823 290.086 21.2664 289.411 20.5758C288.72 19.8767 288.138 19.2534 287.666 18.6976C287.194 18.1333 286.89 17.7122 286.772 17.3921H286.696C286.578 17.729 286.249 18.2091 285.718 18.8408C285.178 19.4724 284.613 20.0957 284.015 20.7105C283.349 21.4011 282.649 22.1086 281.907 22.8329C281.662 23.0688 281.401 23.3299 281.114 23.5994C280.558 24.13 279.133 25.1996 277.978 24.0121C276.823 22.8161 276.3 22.2771 276.3 22.2771C278.323 20.4663 280.313 18.8913 281.662 17.03C284.251 13.4336 284.42 9.69411 284.42 8.95295V2.32458H289.023V8.96137C289.023 13.7453 291.544 16.4825 292.345 17.4763L292.337 17.4848Z" fill="#4C4A49"/>
<path d="M317.321 10.8985C317.203 11.2017 316.925 11.5892 316.486 12.0355C316.048 12.4904 315.508 12.9704 314.892 13.4673C314.125 14.0822 313.341 14.7223 312.532 15.3708C312.245 15.6066 311.941 15.8424 311.629 16.0867C311.039 16.5331 309.311 17.0047 308.467 15.9351C307.624 14.8739 307.102 14.2085 307.102 14.2085C308.198 13.4505 310.778 12.0777 312.616 9.92997C314.8 7.36958 314.85 4.69128 314.85 3.62165V0.833862H319.429V3.56269C319.429 6.87267 320.188 8.39711 321.933 9.86259C323.459 11.1512 326.436 13.0041 326.866 13.2905C326.866 13.2905 326.242 14.0316 325.365 15.1602C324.479 16.2972 323.51 15.8256 323.088 15.5392C322.009 14.8065 320.938 14.0485 319.859 13.2399C319.142 12.6925 318.577 12.2461 318.164 11.8671C317.742 11.5049 317.481 11.1765 317.363 10.8901H317.321V10.8985ZM334.808 20.4663V25.3681C334.808 26.5641 334.184 27.4989 332.717 27.4989H318.333V30.3709H334.378C335.061 30.3709 335.466 30.5983 335.466 31.2216V31.7859C335.466 32.9061 334.496 33.9336 332.717 33.9336H317.489C315.053 33.9336 313.973 32.2912 313.973 30.4383V25.1491C313.973 24.5174 314.42 24.1047 315.019 24.1047H330.449V21.637H313.796V18.0659H332.355C334.151 18.0659 334.808 19.085 334.808 20.4579V20.4663Z" fill="#4C4A49"/>
<path d="M382.253 14.1158C382.135 14.419 381.857 14.8064 381.41 15.2528C380.971 15.7076 380.44 16.1877 379.816 16.6846C379.057 17.3079 378.273 17.9311 377.464 18.5881C377.177 18.8239 376.882 19.0597 376.561 19.2955C375.98 19.7504 374.251 20.2136 373.408 19.1524C372.565 18.0827 372.042 17.4342 372.042 17.4342C373.138 16.6678 375.727 15.3034 377.565 13.1641C379.749 10.6037 379.799 7.91699 379.799 6.84736V4.04272H384.369V6.77156C384.369 10.0899 385.128 11.6144 386.873 13.0715C388.4 14.3516 391.376 16.213 391.806 16.4993C391.806 16.4993 391.182 17.2405 390.305 18.3691C389.428 19.4977 388.459 19.0429 388.037 18.7565C386.958 18.0322 385.887 17.2658 384.808 16.4656C384.099 15.9182 383.526 15.4634 383.113 15.0928C382.691 14.7306 382.43 14.4022 382.303 14.1158H382.27H382.253Z" fill="#4C4A49"/>
<path d="M156.84 6.80518C151.207 6.80518 148.905 9.74457 148.905 13.3662C148.905 16.9878 151.216 19.9271 156.84 19.9271C162.463 19.9271 164.774 16.9878 164.774 13.3662C164.774 9.74457 162.472 6.80518 156.84 6.80518ZM156.84 16.3898C154.352 16.3898 153.34 15.0338 153.34 13.3662C153.34 11.6985 154.361 10.3426 156.84 10.3426C159.318 10.3426 160.347 11.6985 160.347 13.3662C160.347 15.0338 159.327 16.3898 156.84 16.3898Z" fill="#4C4A49"/>
<path d="M348.163 1.22119C342.126 1.22119 339.664 5.10388 339.664 9.88776C339.664 14.6716 342.135 18.5459 348.163 18.5459C354.192 18.5459 356.662 14.6716 356.662 9.88776C356.662 5.10388 354.192 1.22119 348.163 1.22119ZM348.163 14.8738C345.322 14.8738 344.158 12.6503 344.158 9.89618C344.158 7.14208 345.322 4.90174 348.163 4.90174C351.005 4.90174 352.168 7.13366 352.168 9.89618C352.168 12.6587 350.996 14.8738 348.163 14.8738Z" fill="#4C4A49"/>
<path d="M259.572 0.244263C252.371 0.244263 249.42 3.17523 249.42 6.80525C249.42 10.4353 252.371 13.3662 259.572 13.3662C266.772 13.3662 269.715 10.4353 269.715 6.80525C269.715 3.17523 266.772 0.244263 259.572 0.244263ZM259.572 9.82886C255.769 9.82886 254.201 8.48129 254.201 6.80525C254.201 5.12921 255.761 3.78164 259.572 3.78164C263.383 3.78164 264.934 5.13763 264.934 6.80525C264.934 8.47287 263.374 9.82886 259.572 9.82886Z" fill="#4C4A49"/>
<path d="M414.479 0.244263C408.569 0.244263 406.157 3.05732 406.157 6.52731C406.157 9.99731 408.586 12.8104 414.479 12.8104C420.373 12.8104 422.81 9.99731 422.81 6.52731C422.81 3.05732 420.398 0.244263 414.479 0.244263ZM414.479 9.2393C411.68 9.2393 410.533 8.02649 410.533 6.52731C410.533 5.02814 411.68 3.81533 414.479 3.81533C417.279 3.81533 418.425 5.02814 418.425 6.52731C418.425 8.02649 417.279 9.2393 414.479 9.2393Z" fill="#4C4A49"/>
<path d="M200.903 6.61148C200.903 7.44529 200.861 8.4307 200.768 9.55929C200.667 10.6963 200.49 11.8165 200.229 12.9366H204.731C204.824 12.3892 204.908 11.8165 204.993 11.2185C205.077 10.6205 205.145 10.0309 205.212 9.43295C205.271 8.83497 205.313 8.2791 205.355 7.75691C205.389 7.22631 205.406 6.7715 205.406 6.36723V3.32677C205.406 1.62546 204.225 1.22119 202.581 1.22119H183.391V5.0365H200.903V6.61148Z" fill="#4C4A49"/>
<path d="M203.467 21.7464H196.797V16.3055H192.295V21.7464H183.391V25.5364H201.3V32.1058C201.3 33.4113 201.704 33.9335 202.421 33.9335H203.264C204.976 33.9335 205.802 32.5522 205.802 30.2697V24.2394C205.802 23.0518 205.178 21.7379 203.467 21.7379V21.7464Z" fill="#4C4A49"/>
<path d="M257.261 22.5549H248.357V26.345H266.266V32.1058C266.266 33.4029 266.671 33.9335 267.379 33.9335H268.223C269.934 33.9335 270.769 32.5522 270.769 30.2698V25.0479C270.769 23.852 270.145 22.5549 268.442 22.5549H257.261Z" fill="#4C4A49"/>
<path d="M222.531 14.4948H218.096V25.848H222.531V14.4948Z" fill="#4C4A49"/>
<path d="M230.777 14.4948H226.351V25.848H230.777V14.4948Z" fill="#4C4A49"/>
<path d="M256.839 17.7711H252.328V24.1973H256.839V17.7711Z" fill="#4C4A49"/>
<path d="M266.663 17.7711H262.16V24.1973H266.663V17.7711Z" fill="#4C4A49"/>
<path d="M330.921 5.31445H325.777V9.13819H330.921V5.31445Z" fill="#4C4A49"/>
<path d="M395.778 8.50659H390.643V12.3219H395.778V8.50659Z" fill="#4C4A49"/>
<path d="M427.903 20.0115H421.596V23.8352H427.903V20.0115Z" fill="#4C4A49"/>
<path d="M166.274 4.80072V4.21116C166.274 3.57949 165.701 3.32682 165.187 3.32682H159.09V0H154.588V3.32682H147.261V7.15055H163.5C165.794 7.15055 166.274 5.963 166.274 4.80072Z" fill="#4C4A49"/>
<path d="M380.373 2.08032H373.037V5.89563H388.003C390.288 5.89563 390.777 4.69966 390.777 3.54581V2.96467C390.777 2.33299 390.213 2.08032 389.69 2.08032H380.373Z" fill="#4C4A49"/>
<path d="M411.512 14.3517H404.185V18.167H427.195C429.48 18.167 429.969 16.971 429.969 15.8172V15.2276C429.969 14.5959 429.404 14.3433 428.881 14.3433H411.512V14.3517Z" fill="#4C4A49"/>
<path d="M173.281 9.60987V0H168.778V21.5864C168.778 22.8834 169.183 23.414 169.891 23.414H170.734C172.455 23.414 173.281 22.0328 173.281 19.7503V9.60987Z" fill="#4C4A49"/>
<path d="M173.231 30.0929H157.126V23.094H152.59V31.0362C152.59 32.5775 153.753 33.9335 155.423 33.9335H171.544C173.838 33.9335 174.318 32.7376 174.318 31.5837V31.0026C174.318 30.3625 173.753 30.0929 173.231 30.0929Z" fill="#4C4A49"/>
<path d="M365.027 30.0929H349.074V22.2349H344.529V31.0362C344.529 32.5775 345.693 33.9335 347.371 33.9335H363.341C365.626 33.9335 366.115 32.7375 366.115 31.5836V31.0025C366.115 30.3624 365.55 30.0929 365.018 30.0929H365.027Z" fill="#4C4A49"/>
<path d="M398.737 30.0929H382.776V22.2349H378.239V31.0362C378.239 32.5775 379.403 33.9335 381.072 33.9335H397.05C399.335 33.9335 399.825 32.7375 399.825 31.5836V31.0025C399.825 30.3624 399.26 30.0929 398.737 30.0929Z" fill="#4C4A49"/>
<path d="M430.904 30.093H413.695V23.6667H409.15V31.0447C409.15 32.586 410.314 33.942 411.992 33.942H429.218C431.503 33.942 431.992 32.746 431.992 31.5921V31.011C431.992 30.3709 431.427 30.1014 430.904 30.1014V30.093Z" fill="#4C4A49"/>
<path d="M176.553 9.5509H172.32V13.3662H174.867C177.16 13.3662 177.641 12.1702 177.641 11.0164V10.4352C177.641 9.79515 177.076 9.5509 176.553 9.5509Z" fill="#4C4A49"/>
<path d="M368.805 8.50659H364.563V12.3219H367.11C369.403 12.3219 369.884 11.1259 369.884 9.97207V9.39093C369.884 8.75084 369.319 8.49817 368.796 8.49817L368.805 8.50659Z" fill="#4C4A49"/>
<path d="M399.521 18.5712C399.521 20.8452 398.687 22.2349 396.984 22.2349H396.14C395.432 22.2349 395.027 21.7043 395.027 20.4073V0H399.53V18.5628L399.521 18.5712Z" fill="#4C4A49"/>
<path d="M431.461 23.0182C431.461 25.3006 430.626 26.6819 428.923 26.6819H428.071C427.363 26.6819 426.958 26.1513 426.958 24.8543V0H431.461V23.0098V23.0182Z" fill="#4C4A49"/>
<path d="M412.565 15.8845V21.2074C412.565 22.5045 412.97 23.0351 413.687 23.0351H414.53C416.242 23.0351 417.068 21.6538 417.068 19.3714V15.8761H412.565V15.8845Z" fill="#4C4A49"/>
<path d="M154.496 52.968L150.128 48.3525V52.968H148.399V42.7096H150.128V47.2071L154.066 42.7096H156.216L151.924 47.7461L156.823 52.968H154.496Z" fill="#4C4A49"/>
<path d="M159.807 53.1112C159.251 53.1112 158.736 53.0101 158.289 52.7996C157.834 52.589 157.463 52.3111 157.143 51.9489C156.831 51.5952 156.578 51.1656 156.409 50.6856C156.241 50.2055 156.156 49.6833 156.156 49.1443C156.156 48.6474 156.224 48.1673 156.35 47.7041C156.485 47.224 156.704 46.7945 156.991 46.4239C157.278 46.0533 157.657 45.7501 158.112 45.5311C158.568 45.3037 159.124 45.1942 159.765 45.1942C160.313 45.1942 160.827 45.2953 161.291 45.489C161.755 45.6911 162.134 45.9606 162.472 46.3144C162.792 46.6765 163.045 47.0808 163.23 47.5609C163.416 48.041 163.509 48.5631 163.509 49.1022C163.509 49.5822 163.441 50.0623 163.298 50.5424C163.163 50.9972 162.952 51.4267 162.657 51.831C162.345 52.21 161.949 52.5216 161.485 52.749C161.013 52.9849 160.44 53.1028 159.79 53.1028L159.807 53.1112ZM159.773 46.6765C159.402 46.6765 159.116 46.7523 158.88 46.9124C158.635 47.0808 158.45 47.2745 158.315 47.5104C158.163 47.7714 158.062 48.041 158.003 48.3189C157.944 48.6053 157.918 48.8579 157.918 49.1106C157.918 49.5317 157.969 49.8854 158.062 50.2055C158.163 50.5255 158.298 50.7782 158.475 50.9803C158.652 51.1909 158.846 51.3425 159.082 51.452C159.318 51.5531 159.571 51.612 159.841 51.612C160.111 51.612 160.364 51.5615 160.608 51.452C160.836 51.3425 161.038 51.1825 161.207 50.9888C161.375 50.7866 161.502 50.534 161.612 50.2139C161.704 49.9023 161.755 49.5401 161.755 49.1527C161.755 48.7653 161.696 48.4368 161.595 48.1336C161.477 47.8136 161.342 47.5609 161.165 47.3503C160.988 47.1482 160.768 46.9797 160.524 46.8618C160.279 46.7439 160.026 46.6934 159.757 46.6934L159.773 46.6765Z" fill="#4C4A49"/>
<path d="M249.757 53.1112C249.192 53.1112 248.687 53.0101 248.24 52.7996C247.784 52.589 247.413 52.3111 247.093 51.9489C246.781 51.5952 246.528 51.1656 246.359 50.6856C246.191 50.2055 246.106 49.6833 246.106 49.1443C246.106 48.6474 246.174 48.1673 246.309 47.7041C246.444 47.224 246.663 46.7945 246.95 46.4239C247.236 46.0533 247.616 45.7501 248.071 45.5311C248.526 45.3037 249.083 45.1942 249.732 45.1942C250.28 45.1942 250.794 45.2953 251.258 45.489C251.722 45.6911 252.11 45.9606 252.447 46.3144C252.768 46.6765 253.02 47.0808 253.206 47.5609C253.383 48.041 253.476 48.5631 253.476 49.1022C253.476 49.5822 253.408 50.0623 253.265 50.5424C253.13 50.9972 252.919 51.4267 252.624 51.831C252.312 52.21 251.916 52.5216 251.452 52.749C250.98 52.9849 250.407 53.1028 249.757 53.1028V53.1112ZM249.715 46.6765C249.344 46.6765 249.058 46.7523 248.821 46.9124C248.577 47.0808 248.391 47.2745 248.257 47.5104C248.105 47.7714 247.995 48.041 247.945 48.3189C247.886 48.6053 247.86 48.8579 247.86 49.1106C247.86 49.5317 247.911 49.8854 248.004 50.2055C248.105 50.5255 248.24 50.7782 248.417 50.9803C248.594 51.1909 248.788 51.3425 249.024 51.452C249.26 51.5531 249.513 51.612 249.783 51.612C250.052 51.612 250.305 51.5615 250.55 51.452C250.778 51.3425 250.98 51.1825 251.149 50.9888C251.317 50.7866 251.452 50.534 251.553 50.2139C251.646 49.9023 251.697 49.5401 251.697 49.1527C251.697 48.7653 251.638 48.4368 251.536 48.1336C251.418 47.8136 251.284 47.5609 251.106 47.3503C250.929 47.1482 250.71 46.9797 250.466 46.8618C250.221 46.7439 249.968 46.6934 249.698 46.6934L249.715 46.6765Z" fill="#4C4A49"/>
<path d="M314.268 53.1112C313.703 53.1112 313.197 53.0101 312.75 52.7996C312.295 52.589 311.924 52.3111 311.604 51.9489C311.292 51.5952 311.039 51.1656 310.87 50.6856C310.701 50.2055 310.617 49.6833 310.617 49.1443C310.617 48.6474 310.685 48.1673 310.811 47.7041C310.946 47.224 311.165 46.7945 311.452 46.4239C311.739 46.0533 312.118 45.7501 312.573 45.5311C313.029 45.3037 313.585 45.1942 314.226 45.1942C314.774 45.1942 315.288 45.2953 315.752 45.489C316.216 45.6911 316.595 45.9606 316.933 46.3144C317.253 46.6765 317.506 47.0808 317.691 47.5609C317.868 48.041 317.97 48.5631 317.97 49.1022C317.97 49.5822 317.902 50.0623 317.759 50.5424C317.624 50.9972 317.413 51.4267 317.118 51.831C316.806 52.21 316.41 52.5216 315.946 52.749C315.474 52.9849 314.901 53.1028 314.251 53.1028L314.268 53.1112ZM314.226 46.6765C313.855 46.6765 313.56 46.7523 313.332 46.9124C313.088 47.0808 312.902 47.2745 312.767 47.5104C312.615 47.7714 312.514 48.041 312.455 48.3189C312.396 48.6053 312.371 48.8579 312.371 49.1106C312.371 49.5317 312.422 49.8854 312.514 50.2055C312.616 50.5255 312.75 50.7782 312.927 50.9803C313.105 51.1909 313.298 51.3425 313.535 51.452C313.771 51.5531 314.024 51.612 314.302 51.612C314.58 51.612 314.825 51.5615 315.069 51.452C315.297 51.3425 315.499 51.1825 315.668 50.9888C315.836 50.7866 315.963 50.534 316.072 50.2139C316.174 49.9023 316.216 49.5401 316.216 49.1527C316.216 48.7653 316.165 48.4368 316.056 48.1336C315.938 47.8136 315.803 47.5609 315.626 47.3503C315.449 47.1482 315.229 46.9797 314.985 46.8618C314.732 46.7439 314.487 46.6934 314.218 46.6934L314.226 46.6765Z" fill="#4C4A49"/>
<path d="M164.799 52.9428V45.3458H166.579V46.1628C166.579 46.1628 167.118 45.329 167.978 45.2363C168.897 45.1353 169.496 45.5648 169.496 45.5648L168.88 47.1903C168.88 47.1903 168.181 46.7439 167.464 47.0135C166.781 47.2745 166.57 47.8725 166.57 48.3189V52.9428H164.791H164.799Z" fill="#4C4A49"/>
<path d="M173.122 53.0944C171.638 53.0944 169.445 51.8394 169.445 49.1106C169.445 46.028 171.739 45.1942 173.029 45.1942C173.577 45.1942 174.074 45.2953 174.504 45.4974C174.943 45.6911 175.314 45.9775 175.6 46.3481C175.887 46.7187 176.106 47.1482 176.224 47.6704C176.435 48.6221 176.326 49.717 176.326 49.717H171.317C171.317 50.6687 172.202 51.511 173.256 51.5615C174.53 51.6289 175.356 50.8035 175.356 50.8035L176.157 51.8478C176.157 51.8478 175.263 53.0944 173.122 53.0944ZM174.589 48.2599C174.589 48.2599 174.428 46.7271 172.987 46.7271C171.545 46.7271 171.376 48.2599 171.376 48.2599H174.589Z" fill="#4C4A49"/>
<path d="M237.801 53.0944C236.317 53.0944 234.125 51.8394 234.125 49.1106C234.125 46.028 236.418 45.1942 237.708 45.1942C238.257 45.1942 238.754 45.2953 239.184 45.4974C239.622 45.6911 239.993 45.9775 240.28 46.3481C240.567 46.7187 240.786 47.1482 240.904 47.6704C241.115 48.6221 241.005 49.717 241.005 49.717H235.997C235.997 50.6687 236.882 51.511 237.936 51.5615C239.209 51.6289 240.036 50.8035 240.036 50.8035L240.837 51.8478C240.837 51.8478 239.943 53.0944 237.801 53.0944ZM239.268 48.2599C239.268 48.2599 239.1 46.7271 237.666 46.7271C236.233 46.7271 236.056 48.2599 236.056 48.2599H239.268Z" fill="#4C4A49"/>
<path d="M414.952 53.0944C413.468 53.0944 411.275 51.8394 411.275 49.1106C411.275 46.028 413.569 45.1942 414.859 45.1942C415.407 45.1942 415.904 45.2953 416.334 45.4974C416.773 45.6911 417.144 45.9775 417.431 46.3481C417.717 46.7187 417.936 47.1482 418.055 47.6704C418.265 48.6221 418.164 49.717 418.164 49.717H413.156C413.156 50.6687 414.041 51.511 415.095 51.5615C416.368 51.6289 417.194 50.8035 417.194 50.8035L417.995 51.8478C417.995 51.8478 417.102 53.0944 414.96 53.0944H414.952ZM416.419 48.2599C416.419 48.2599 416.259 46.7271 414.817 46.7271C413.375 46.7271 413.206 48.2599 413.206 48.2599H416.419Z" fill="#4C4A49"/>
<path d="M179.403 53.0522C179.066 53.0522 178.754 53.0017 178.45 52.9006C178.147 52.7827 177.894 52.6311 177.708 52.4458C177.498 52.2605 177.329 52.0247 177.219 51.7552C177.11 51.4857 177.051 51.1909 177.051 50.8793C177.051 50.5003 177.127 50.1634 177.27 49.877C177.413 49.5907 177.607 49.3464 177.843 49.1527C178.071 48.959 178.332 48.799 178.644 48.6726C178.948 48.5547 179.26 48.4537 179.606 48.3863C180.584 48.1841 181.452 48.2768 181.452 48.2768V47.9736C181.452 47.4851 181.14 46.7018 180.154 46.7018C179.024 46.7018 178.147 47.5609 178.147 47.5609L177.388 46.407C177.388 46.407 178.459 45.1942 180.381 45.1942C182.911 45.1942 183.248 46.9713 183.248 47.8472V50.9803C183.248 52.1763 183.391 52.9343 183.391 52.9343H181.663L181.562 52.2774C181.562 52.2774 180.854 53.0522 179.403 53.0522ZM181.444 49.4896C180.601 49.4138 179.926 49.6244 179.538 49.8265C178.56 50.3487 178.855 51.1067 179.125 51.3509C179.968 52.1089 181.444 51.2751 181.444 50.4413V49.4896Z" fill="#4C4A49"/>
<path d="M296.561 53.0522C296.224 53.0522 295.912 53.0017 295.609 52.9006C295.305 52.7827 295.052 52.6311 294.867 52.4458C294.656 52.2605 294.487 52.0247 294.378 51.7552C294.268 51.4857 294.209 51.1909 294.209 50.8793C294.209 50.5003 294.285 50.1634 294.428 49.877C294.572 49.5907 294.765 49.3464 295.002 49.1527C295.229 48.959 295.491 48.799 295.803 48.6726C296.106 48.5547 296.418 48.4537 296.764 48.3863C297.742 48.1841 298.61 48.2768 298.61 48.2768V47.9736C298.61 47.4851 298.298 46.7018 297.312 46.7018C296.182 46.7018 295.305 47.5609 295.305 47.5609L294.546 46.407C294.546 46.407 295.617 45.1942 297.54 45.1942C300.069 45.1942 300.406 46.9713 300.406 47.8472V50.9803C300.406 52.1763 300.55 52.9343 300.55 52.9343H298.821L298.72 52.2774C298.72 52.2774 298.012 53.0522 296.561 53.0522ZM298.602 49.4896C297.759 49.4138 297.093 49.6244 296.696 49.8265C295.718 50.3487 296.013 51.1067 296.283 51.3509C297.126 52.1089 298.602 51.2751 298.602 50.4413V49.4896Z" fill="#4C4A49"/>
<path d="M328.686 53.0522C328.349 53.0522 328.037 53.0017 327.734 52.9006C327.43 52.7827 327.186 52.6311 326.992 52.4458C326.781 52.2605 326.612 52.0247 326.503 51.7552C326.393 51.4857 326.334 51.1909 326.334 50.8793C326.334 50.5003 326.41 50.1634 326.553 49.877C326.697 49.5907 326.89 49.3464 327.127 49.1527C327.354 48.959 327.616 48.799 327.928 48.6726C328.231 48.5547 328.535 48.4537 328.889 48.3863C329.867 48.1841 330.727 48.2768 330.727 48.2768V47.9736C330.727 47.4851 330.415 46.7018 329.428 46.7018C328.299 46.7018 327.43 47.5609 327.43 47.5609L326.671 46.407C326.671 46.407 327.742 45.1942 329.665 45.1942C332.186 45.1942 332.531 46.9713 332.531 47.8472V50.9803C332.531 52.1763 332.675 52.9343 332.675 52.9343H330.946L330.845 52.2774C330.845 52.2774 330.137 53.0522 328.686 53.0522ZM330.727 49.4896C329.884 49.4138 329.218 49.6244 328.821 49.8265C327.843 50.3487 328.138 51.1067 328.408 51.3509C329.251 52.1089 330.727 51.2751 330.727 50.4413V49.4896Z" fill="#4C4A49"/>
<path d="M350.584 53.0522C350.247 53.0522 349.935 53.0017 349.631 52.9006C349.328 52.7827 349.075 52.6311 348.889 52.4458C348.678 52.2605 348.51 52.0247 348.4 51.7552C348.29 51.4857 348.231 51.1909 348.231 50.8793C348.231 50.5003 348.307 50.1634 348.451 49.877C348.594 49.5907 348.788 49.3464 349.024 49.1527C349.252 48.959 349.513 48.799 349.825 48.6726C350.12 48.5547 350.432 48.4537 350.778 48.3863C351.756 48.1841 352.624 48.2768 352.624 48.2768V47.9736C352.624 47.4851 352.312 46.7018 351.326 46.7018C350.196 46.7018 349.319 47.5609 349.319 47.5609L348.56 46.407C348.56 46.407 349.631 45.1942 351.554 45.1942C354.083 45.1942 354.42 46.9713 354.42 47.8472V50.9803C354.42 52.1763 354.564 52.9343 354.564 52.9343H352.835L352.734 52.2774C352.734 52.2774 352.026 53.0522 350.575 53.0522H350.584ZM352.624 49.4896C351.781 49.4138 351.115 49.6244 350.719 49.8265C349.741 50.3487 350.036 51.1067 350.306 51.3509C351.149 52.1089 352.624 51.2751 352.624 50.4413V49.4896Z" fill="#4C4A49"/>
<path d="M401.765 53.0522C401.427 53.0522 401.115 53.0017 400.812 52.9006C400.508 52.7827 400.255 52.6311 400.07 52.4458C399.859 52.2605 399.69 52.0247 399.581 51.7552C399.471 51.4857 399.412 51.1909 399.412 50.8793C399.412 50.5003 399.488 50.1634 399.631 49.877C399.775 49.5907 399.969 49.3464 400.205 49.1527C400.432 48.959 400.694 48.799 401.006 48.6726C401.309 48.5547 401.613 48.4537 401.967 48.3863C402.945 48.1841 403.805 48.2768 403.805 48.2768V47.9736C403.805 47.4851 403.493 46.7018 402.507 46.7018C401.377 46.7018 400.5 47.5609 400.5 47.5609L399.749 46.407C399.749 46.407 400.82 45.1942 402.743 45.1942C405.272 45.1942 405.609 46.9713 405.609 47.8472V50.9803C405.609 52.1763 405.753 52.9343 405.753 52.9343H404.024L403.923 52.2774C403.923 52.2774 403.215 53.0522 401.765 53.0522ZM403.805 49.4896C402.962 49.4138 402.296 49.6244 401.899 49.8265C400.921 50.3487 401.216 51.1067 401.486 51.3509C402.329 52.1089 403.805 51.2751 403.805 50.4413V49.4896Z" fill="#4C4A49"/>
<path d="M191.064 42.7096H189.285V52.968H191.064V42.7096Z" fill="#4C4A49"/>
<path d="M197.042 52.9427V47.923C197.042 47.5188 196.764 46.8534 196.081 46.7692C194.867 46.626 194.335 47.5609 194.335 48.1673V52.9427H192.573V45.3458H194.335V45.9775C194.934 45.4637 195.642 45.2026 196.435 45.2026C197.16 45.2026 197.75 45.43 198.18 45.8764C198.602 46.3228 198.821 46.9376 198.821 47.6872V52.9427H197.05H197.042Z" fill="#4C4A49"/>
<path d="M323.35 52.9427V47.923C323.35 47.5188 323.071 46.8534 322.388 46.7692C321.174 46.626 320.643 47.5609 320.643 48.1673V52.9427H318.881V45.3458H320.643V45.9775C321.242 45.4637 321.95 45.2026 322.751 45.2026C323.476 45.2026 324.066 45.43 324.496 45.8764C324.918 46.3228 325.137 46.9376 325.137 47.6872V52.9427H323.367H323.35Z" fill="#4C4A49"/>
<path d="M222.944 45.3542V50.374C222.944 50.7782 223.222 51.4436 223.905 51.5278C225.12 51.671 225.651 50.7361 225.651 50.1297V45.3542H227.413V51.6541C227.413 52.3364 227.565 52.9512 227.565 52.9512H225.802L225.651 52.3195C225.052 52.8333 224.344 53.0944 223.551 53.0944C222.826 53.0944 222.236 52.867 221.806 52.4206C221.384 51.9742 221.165 51.3594 221.165 50.6098V45.3542H222.936H222.944Z" fill="#4C4A49"/>
<path d="M281.537 45.3542V50.374C281.537 50.7782 281.815 51.4436 282.498 51.5278C283.712 51.671 284.243 50.7361 284.243 50.1297V45.3542H286.006V51.6541C286.006 52.3364 286.157 52.9512 286.157 52.9512H284.395L284.243 52.3195C283.645 52.8333 282.937 53.0944 282.144 53.0944C281.419 53.0944 280.829 52.867 280.399 52.4206C279.977 51.9742 279.758 51.3594 279.758 50.6098V45.3542H281.537Z" fill="#4C4A49"/>
<path d="M202.54 53.1028C200.803 53.1028 199.791 52.1847 199.791 52.1847L200.634 50.8456C200.634 50.8456 201.587 51.5699 202.481 51.5699C203.037 51.5699 203.585 51.5025 203.686 50.9045C203.729 50.6687 203.611 50.3403 203.223 50.1465C202.582 49.8181 201.966 49.5738 201.46 49.3464C200.735 49.0179 200.019 48.2599 200.019 47.4177C200.019 46.0196 201.258 45.1774 202.751 45.1774C204.563 45.1774 205.263 46.028 205.263 46.028L204.547 47.3166C204.547 47.3166 203.762 46.6176 202.81 46.6176C202.506 46.6176 201.84 46.7271 201.84 47.3503C201.84 47.5946 201.941 47.7714 202.143 47.9146C202.354 48.0662 202.633 48.2094 203.029 48.3694C203.358 48.4958 203.661 48.6305 203.948 48.7569C204.235 48.8832 204.496 49.0348 204.74 49.2117C204.968 49.3885 205.154 49.5991 205.297 49.8433C205.432 50.0792 205.508 50.3739 205.508 50.7108C205.508 52.1342 204.302 53.0944 202.548 53.0944L202.54 53.1028Z" fill="#4C4A49"/>
<path d="M209.31 53.1028C207.902 53.1028 207.185 52.37 207.185 50.9382V46.8282H205.979V45.3542H207.185V43.3834H208.914V45.3542H210.71V46.8282H208.914V50.7614C208.914 51.3425 209.302 51.5025 209.512 51.5278C210.178 51.612 210.718 51.2078 210.718 51.2078L211.359 52.3532C211.359 52.3532 210.541 53.0944 209.31 53.0944V53.1028Z" fill="#4C4A49"/>
<path d="M218.526 53.1028C217.118 53.1028 216.401 52.37 216.401 50.9382V46.8282H215.195V45.3542H216.401V43.3834H218.13V45.3542H219.926V46.8282H218.13V50.7614C218.13 51.3425 218.517 51.5025 218.728 51.5278C219.403 51.612 219.934 51.2078 219.934 51.2078L220.575 52.3532C220.575 52.3532 219.757 53.0944 218.526 53.0944V53.1028Z" fill="#4C4A49"/>
<path d="M231.663 53.1028C230.254 53.1028 229.538 52.37 229.538 50.9382V46.8282H228.332V45.3542H229.538V43.3834H231.266V45.3542H233.062V46.8282H231.266V50.7614C231.266 51.3425 231.654 51.5025 231.865 51.5278C232.539 51.612 233.071 51.2078 233.071 51.2078L233.711 52.3532C233.711 52.3532 232.894 53.0944 231.663 53.0944V53.1028Z" fill="#4C4A49"/>
<path d="M304.546 53.1028C303.138 53.1028 302.422 52.37 302.422 50.9382V46.8282H301.216V45.3542H302.422V43.3834H304.159V45.3542H305.954V46.8282H304.159V50.7614C304.159 51.3425 304.546 51.5025 304.757 51.5278C305.432 51.612 305.963 51.2078 305.963 51.2078L306.604 52.3532C306.604 52.3532 305.786 53.0944 304.555 53.0944L304.546 53.1028Z" fill="#4C4A49"/>
<path d="M376.824 53.1028C375.416 53.1028 374.699 52.37 374.699 50.9382V46.8282H373.493V45.3542H374.699V43.3834H376.427V45.3542H378.223V46.8282H376.427V50.7614C376.427 51.3425 376.815 51.5025 377.026 51.5278C377.701 51.612 378.232 51.2078 378.232 51.2078L378.873 52.3532C378.873 52.3532 378.055 53.0944 376.824 53.0944V53.1028Z" fill="#4C4A49"/>
<path d="M212.32 52.9258V45.3542H214.125V52.9258H212.32ZM212.32 44.1077V42.2379H214.125V44.1077H212.32Z" fill="#4C4A49"/>
<path d="M307.473 52.9258V45.3542H309.277V52.9258H307.473ZM307.473 44.1077V42.2379H309.277V44.1077H307.473Z" fill="#4C4A49"/>
<path d="M363.468 52.9258V45.3542H365.272V52.9258H363.468ZM363.468 44.1077V42.2379H365.272V44.1077H363.468Z" fill="#4C4A49"/>
<path d="M370.424 52.9258V45.3542H372.228V52.9258H370.424ZM370.424 44.1077V42.2379H372.228V44.1077H370.424Z" fill="#4C4A49"/>
<path d="M255.179 52.9427V46.7944H253.974V45.3458H255.179V44.7984C255.179 42.9286 256.276 41.9263 257.641 41.8505C258.915 41.7832 259.808 42.4991 259.808 42.4991L259.058 43.7371C259.058 43.7371 258.704 43.316 257.962 43.4003C257.27 43.4761 256.916 44.0067 256.916 44.6804V45.3458H258.78V46.7944H256.916V52.9427H255.188H255.179Z" fill="#4C4A49"/>
<path d="M407.49 52.9427V46.7944H406.284V45.3458H407.49V44.7984C407.49 42.9286 408.586 41.9263 409.952 41.8505C411.217 41.7832 412.111 42.4991 412.111 42.4991L411.36 43.7371C411.36 43.7371 411.006 43.316 410.264 43.4003C409.573 43.4761 409.218 44.0067 409.218 44.6804V45.3458H411.082V46.7944H409.218V52.9427H407.49Z" fill="#4C4A49"/>
<path d="M264.412 52.9596V42.7096H270.466V44.2677H266.157V46.9629H269.817V48.5294H266.157V51.4014H270.466V52.9596H264.412Z" fill="#4C4A49"/>
<path d="M274.758 53.0944C274.201 53.0944 273.712 52.9849 273.299 52.7659C272.878 52.5385 272.54 52.2437 272.279 51.8816C272.001 51.5026 271.798 51.073 271.68 50.6182C271.554 50.1466 271.486 49.6412 271.486 49.1275C271.486 48.6474 271.562 48.1842 271.714 47.7125C271.866 47.2493 272.085 46.8282 272.38 46.4576C272.692 46.0786 273.046 45.7838 273.476 45.548C273.923 45.3122 274.421 45.1943 274.96 45.1943C275.323 45.1943 275.643 45.2364 275.93 45.3122C276.124 45.3627 276.318 45.4469 276.503 45.5564V42.0864H278.308V51.6205C278.308 52.429 278.502 52.9681 278.502 52.9681H276.773L276.638 52.4038C276.638 52.4038 276.039 53.086 274.749 53.086L274.758 53.0944ZM275.154 46.7019C274.362 46.7524 273.392 47.4514 273.392 49.1275C273.392 50.8035 274.37 51.5278 275.188 51.5278C276.006 51.5278 276.512 50.8456 276.512 49.9613V47.224C276.512 47.224 276.149 46.6513 275.154 46.7103V46.7019Z" fill="#4C4A49"/>
<path d="M290.904 53.1028C289.589 53.1028 287 52.3616 287 49.1274C287 47.662 287.632 46.7102 288.341 46.1122C289.192 45.3963 290.204 45.1858 290.938 45.1858C292.481 45.1858 293.56 46.2049 293.56 46.2049L292.658 47.443C292.658 47.443 292.025 46.7187 290.938 46.7187C290.052 46.7187 288.813 47.3251 288.813 49.1527C288.813 50.9803 290.103 51.5362 290.98 51.5362C292.084 51.5362 292.818 50.7782 292.818 50.7782L293.678 51.9742C293.678 51.9742 292.607 53.0943 290.904 53.0943V53.1028Z" fill="#4C4A49"/>
<path d="M359.555 53.1028C358.24 53.1028 355.651 52.3616 355.651 49.1274C355.651 47.662 356.284 46.7102 356.992 46.1122C357.844 45.3963 358.847 45.1858 359.589 45.1858C361.132 45.1858 362.211 46.2049 362.211 46.2049L361.309 47.443C361.309 47.443 360.668 46.7187 359.589 46.7187C358.712 46.7187 357.464 47.3251 357.464 49.1527C357.464 50.9803 358.754 51.5362 359.631 51.5362C360.736 51.5362 361.469 50.7782 361.469 50.7782L362.329 51.9742C362.329 51.9742 361.258 53.0943 359.555 53.0943V53.1028Z" fill="#4C4A49"/>
<path d="M335.922 42.0948H334.185V52.9596H335.922V42.0948Z" fill="#4C4A49"/>
<path d="M368.636 42.0948H366.899V52.9596H368.636V42.0948Z" fill="#4C4A49"/>
<path d="M341.697 52.9596V42.7096H347.903V44.2677H343.476V46.8702H347.38V48.4115H343.476V52.9596H341.697Z" fill="#4C4A49"/>
<path d="M379.741 56.0001V54.484C379.741 54.484 380.989 54.484 381.411 53.9534C381.832 53.4313 381.908 53.2628 382.001 52.5974L379.193 45.3542H381.074L382.853 50.5845L384.573 45.3542H386.394L383.426 53.4313C383.426 53.4313 383.156 54.2482 382.794 54.7199C381.655 56.1854 379.75 56.0085 379.75 56.0085L379.741 56.0001Z" fill="#4C4A49"/>
<path d="M421.975 53.1028C420.567 53.1028 419.85 52.37 419.85 50.9382V46.8282H418.645V45.3542H419.85V43.3834H421.587V45.3542H423.383V46.8282H421.587V50.7614C421.587 51.3425 421.975 51.5025 422.186 51.5278C422.86 51.612 423.392 51.2078 423.392 51.2078L424.032 52.3532C424.032 52.3532 423.215 53.0944 421.983 53.0944L421.975 53.1028Z" fill="#4C4A49"/>
<path d="M424.893 56.0001V54.484C424.893 54.484 426.141 54.484 426.563 53.9534C426.984 53.4313 427.06 53.2628 427.153 52.5974L424.337 45.3542H426.217L427.996 50.5845L429.716 45.3542H431.546L428.578 53.4313C428.578 53.4313 428.308 54.2482 427.946 54.7199C426.807 56.1854 424.893 56.0085 424.893 56.0085V56.0001Z" fill="#4C4A49"/>
<path d="M394.783 53.1111C392.919 53.1111 391.705 52.2184 391.385 51.9657L392.329 50.3907C392.692 50.6518 393.72 51.3425 394.707 51.3425C395.499 51.3425 396.368 51.1319 396.511 50.2391C396.57 49.8938 396.309 49.4053 395.727 49.0937C395.137 48.7737 394.564 48.5126 394.049 48.2767H394.024C393.822 48.1757 393.619 48.083 393.434 47.9904C392.54 47.5693 391.638 46.567 391.638 45.4721C391.638 43.7455 393.037 42.5496 395.053 42.5496C397.068 42.5496 397.928 43.3581 398.155 43.5939L397.388 45.0426C397.068 44.7815 396.157 44.2509 395.137 44.2509C394.994 44.2509 393.661 44.2593 393.661 45.3542C393.661 45.7332 393.897 46.0364 394.201 46.2554C394.479 46.4659 394.85 46.6681 395.373 46.8955C395.795 47.0723 396.191 47.2492 396.562 47.4261C396.924 47.5945 397.262 47.7967 397.565 48.0325C397.843 48.2599 398.071 48.5378 398.248 48.8579C398.417 49.1695 398.501 49.5401 398.501 49.978C398.501 51.8478 397.009 53.1111 394.791 53.1111H394.783Z" fill="#4C4A49"/>
</g>
<defs>
<clipPath id="clip0_3_1983">
<rect width="432" height="56" fill="white"/>
</clipPath>
</defs>
</svg>
