<svg width="265" height="56" viewBox="0 0 265 56" fill="none" xmlns="http://www.w3.org/2000/svg">
<g clip-path="url(#clip0_3_2107)">
<path d="M88.2743 55.5184H87.0683L85.1667 52.1723L84.024 53.5454V55.5184H82.9951V48.7375H84.024V52.147L86.79 48.7375H88.0466L85.8498 51.395L88.2743 55.5184Z" fill="#0054A3"/>
<path d="M93.8741 52.1301C93.8741 52.9243 93.8488 53.4567 93.7982 53.7313C93.7223 54.1749 93.5325 54.5509 93.2289 54.8551C92.7482 55.3367 92.1495 55.5775 91.4411 55.5775C90.7327 55.5775 90.1424 55.3367 89.6617 54.8551C89.3581 54.5509 89.1641 54.1749 89.0798 53.7313C89.0292 53.4524 89.0039 52.9159 89.0039 52.1301C89.0039 51.3443 89.0292 50.8077 89.0798 50.5289C89.1641 50.0853 89.3581 49.7092 89.6617 49.4051C90.1424 48.9234 90.7369 48.6826 91.4411 48.6826C92.1453 48.6826 92.7482 48.9234 93.2289 49.4051C93.5325 49.7092 93.7223 50.0853 93.7982 50.5289C93.8488 50.7993 93.8741 51.3358 93.8741 52.1301ZM92.8494 52.1301C92.8494 51.5513 92.841 51.1837 92.8199 51.0232C92.7778 50.5711 92.6513 50.2374 92.4489 50.0219C92.1874 49.743 91.8543 49.6036 91.4411 49.6036C91.0279 49.6036 90.6948 49.743 90.4333 50.0219C90.2309 50.2374 90.1087 50.5711 90.0623 51.0232C90.0412 51.1837 90.0328 51.5513 90.0328 52.1301C90.0328 52.7089 90.0412 53.0764 90.0623 53.237C90.1087 53.689 90.2309 54.0228 90.4333 54.2383C90.6948 54.5171 91.0279 54.6565 91.4411 54.6565C91.8543 54.6565 92.1916 54.5171 92.4489 54.2383C92.6513 54.0228 92.7735 53.689 92.8199 53.237C92.841 53.0807 92.8494 52.7089 92.8494 52.1301Z" fill="#0054A3"/>
<path d="M100.334 55.5184H99.1363L97.7111 52.6624H96.4292V55.5184H95.4004V48.7375H98.0273C98.6598 48.7375 99.17 48.9234 99.5537 49.291C99.9374 49.6586 100.127 50.136 100.127 50.719C100.127 51.1837 100.001 51.5724 99.7519 51.885C99.4989 52.1977 99.1742 52.4089 98.7779 52.5188L100.338 55.5184H100.334ZM99.0983 50.7274C99.0983 50.3937 98.9929 50.136 98.7863 49.9458C98.5755 49.7557 98.2972 49.6586 97.9514 49.6586H96.4292V51.7879H97.9514C98.3014 51.7879 98.5797 51.6949 98.7863 51.5048C98.9971 51.3189 99.0983 51.057 99.0983 50.7274Z" fill="#0054A3"/>
<path d="M105.954 55.5184H101.628V48.7375H105.954V49.6628H102.657V51.6442H105.469V52.5568H102.657V54.5974H105.954V55.5226V55.5184Z" fill="#0054A3"/>
<path d="M112.351 55.5184H111.259L110.791 54.158H108.118L107.65 55.5184H106.558L109.041 48.7375H109.868L112.351 55.5184ZM110.504 53.2835L109.475 50.2669L108.421 53.2835H110.504Z" fill="#0054A3"/>
<path d="M120.392 55.5184H119.363V52.5526H116.618V55.5184H115.589V48.7375H116.618V51.6316H119.363V48.7375H120.392V55.5184Z" fill="#0054A3"/>
<path d="M126.784 52.1301C126.784 52.9243 126.759 53.4567 126.708 53.7313C126.632 54.1749 126.442 54.5509 126.139 54.8551C125.658 55.3367 125.059 55.5775 124.351 55.5775C123.643 55.5775 123.052 55.3367 122.572 54.8551C122.268 54.5509 122.074 54.1749 121.994 53.7313C121.943 53.4524 121.918 52.9159 121.918 52.1301C121.918 51.3443 121.943 50.8077 121.994 50.5289C122.078 50.0853 122.268 49.7092 122.572 49.4051C123.052 48.9234 123.647 48.6826 124.351 48.6826C125.055 48.6826 125.658 48.9234 126.139 49.4051C126.442 49.7092 126.632 50.0853 126.708 50.5289C126.759 50.7993 126.784 51.3358 126.784 52.1301ZM125.755 52.1301C125.755 51.5513 125.747 51.1837 125.726 51.0232C125.679 50.5711 125.557 50.2374 125.354 50.0219C125.093 49.743 124.76 49.6036 124.347 49.6036C123.933 49.6036 123.6 49.743 123.339 50.0219C123.137 50.2374 123.014 50.5711 122.968 51.0232C122.947 51.1837 122.938 51.5513 122.938 52.1301C122.938 52.7089 122.947 53.0764 122.968 53.237C123.01 53.689 123.137 54.0228 123.339 54.2383C123.6 54.5171 123.933 54.6565 124.347 54.6565C124.76 54.6565 125.097 54.5171 125.354 54.2383C125.557 54.0228 125.679 53.689 125.726 53.237C125.747 53.0807 125.755 52.7089 125.755 52.1301Z" fill="#0054A3"/>
<path d="M133.063 53.2328C133.063 53.9256 132.831 54.4875 132.367 54.9227C131.903 55.3578 131.326 55.5733 130.626 55.5733C129.926 55.5733 129.352 55.3536 128.888 54.9227C128.429 54.4875 128.201 53.9214 128.201 53.2328V48.7375H129.23V53.1863C129.23 53.6383 129.357 53.9932 129.61 54.2594C129.863 54.5213 130.2 54.6565 130.626 54.6565C131.052 54.6565 131.389 54.5255 131.646 54.2594C131.903 53.9974 132.03 53.6383 132.03 53.1863V48.7375H133.059V53.2328H133.063Z" fill="#0054A3"/>
<path d="M138.962 53.5834C138.962 54.2002 138.738 54.686 138.287 55.0409C137.836 55.3958 137.25 55.5775 136.529 55.5775C135.521 55.5775 134.724 55.2775 134.134 54.6818L134.817 54.0058C135.247 54.441 135.825 54.6565 136.546 54.6565C136.988 54.6565 137.334 54.5677 137.579 54.3861C137.823 54.2044 137.946 53.9509 137.946 53.6214C137.946 53.3172 137.857 53.0806 137.68 52.9158C137.528 52.7764 137.279 52.6792 136.938 52.6286L136.141 52.5145C135.584 52.43 135.154 52.2525 134.859 51.9695C134.53 51.6568 134.366 51.2259 134.366 50.6725C134.366 50.0725 134.568 49.5951 134.973 49.2276C135.378 48.86 135.93 48.6783 136.63 48.6783C137.482 48.6783 138.182 48.9361 138.73 49.4515L138.076 50.0979C137.709 49.7472 137.216 49.574 136.6 49.574C136.213 49.574 135.909 49.6712 135.69 49.8697C135.47 50.0683 135.361 50.3218 135.361 50.6344C135.361 50.9006 135.449 51.1118 135.622 51.2682C135.795 51.4245 136.048 51.5259 136.377 51.5766L137.149 51.6906C137.705 51.7751 138.127 51.9399 138.414 52.1976C138.78 52.5229 138.966 52.9834 138.966 53.5876L138.962 53.5834Z" fill="#0054A3"/>
<path d="M141.366 55.5184H140.337V48.7375H141.366V55.5184Z" fill="#0054A3"/>
<path d="M148.226 55.5184H147.285L144.157 50.7443V55.5184H143.128V48.7375H144.068L147.197 53.4989V48.7375H148.226V55.5184Z" fill="#0054A3"/>
<path d="M154.656 52.8905C154.656 53.7354 154.454 54.3734 154.049 54.8085C153.568 55.324 152.944 55.5817 152.185 55.5817C151.481 55.5817 150.887 55.3409 150.406 54.8592C150.102 54.555 149.908 54.179 149.824 53.7354C149.773 53.4566 149.748 52.92 149.748 52.1342C149.748 51.3484 149.773 50.8119 149.824 50.533C149.908 50.0894 150.102 49.7134 150.406 49.4092C150.887 48.9276 151.481 48.6868 152.185 48.6868C152.889 48.6868 153.442 48.8938 153.889 49.3036C154.298 49.6796 154.551 50.1739 154.652 50.7907H153.615C153.429 50.0007 152.953 49.6078 152.185 49.6078C151.78 49.6078 151.443 49.7472 151.186 50.026C150.983 50.25 150.857 50.5837 150.806 51.0273C150.785 51.1879 150.777 51.5554 150.777 52.1342C150.777 52.713 150.785 53.0806 150.806 53.2411C150.857 53.6932 150.983 54.0312 151.186 54.2509C151.439 54.5255 151.772 54.6607 152.185 54.6607C152.641 54.6607 153.007 54.5001 153.286 54.1833C153.513 53.9213 153.627 53.5664 153.627 53.1144V52.7341H152.181V51.8596H154.656V52.8989V52.8905Z" fill="#0054A3"/>
<path d="M162.781 49.6585H159.484V51.7286H162.296V52.6539H159.484V55.5225H158.455V48.7417H162.781V49.6669V49.6585Z" fill="#0054A3"/>
<path d="M165.045 55.5184H164.017V48.7375H165.045V55.5184Z" fill="#0054A3"/>
<path d="M171.91 55.5184H170.97L167.841 50.7443V55.5184H166.812V48.7375H167.753L170.882 53.4989V48.7375H171.91V55.5184Z" fill="#0054A3"/>
<path d="M178.665 55.5184H177.573L177.109 54.158H174.436L173.972 55.5184H172.88L175.359 48.7375H176.186L178.665 55.5184ZM176.822 53.2835L175.794 50.2669L174.739 53.2835H176.822Z" fill="#0054A3"/>
<path d="M184.72 55.5184H183.78L180.651 50.7443V55.5184H179.622V48.7375H180.562L183.691 53.4989V48.7375H184.72V55.5184Z" fill="#0054A3"/>
<path d="M191.091 53.4905C190.977 54.1495 190.703 54.665 190.269 55.0283C189.835 55.3959 189.303 55.5775 188.675 55.5775C187.971 55.5775 187.376 55.3367 186.896 54.8551C186.592 54.5509 186.398 54.1749 186.318 53.7313C186.267 53.4524 186.242 52.9159 186.242 52.1301C186.242 51.3443 186.267 50.8077 186.318 50.5289C186.402 50.0853 186.592 49.7092 186.896 49.4051C187.376 48.9234 187.971 48.6826 188.675 48.6826C189.308 48.6826 189.843 48.8643 190.273 49.2276C190.703 49.591 190.977 50.1022 191.091 50.7697H190.046C189.86 49.9965 189.405 49.6079 188.675 49.6079C188.266 49.6079 187.929 49.743 187.676 50.0177C187.473 50.2416 187.347 50.5796 187.296 51.0274C187.279 51.1879 187.267 51.5555 187.267 52.1343C187.267 52.7131 187.275 53.0807 187.296 53.2412C187.347 53.6933 187.473 54.0312 187.676 54.2509C187.929 54.5255 188.262 54.6607 188.675 54.6607C189.413 54.6607 189.873 54.2721 190.054 53.4947H191.091V53.4905Z" fill="#0054A3"/>
<path d="M196.788 55.5184H192.462V48.7375H196.788V49.6628H193.487V51.6442H196.303V52.5568H193.487V54.5974H196.788V55.5226V55.5184Z" fill="#0054A3"/>
<path d="M205.082 53.4905C204.968 54.1495 204.694 54.665 204.26 55.0283C203.825 55.3959 203.294 55.5775 202.666 55.5775C201.962 55.5775 201.367 55.3367 200.886 54.8551C200.583 54.5509 200.389 54.1749 200.304 53.7313C200.254 53.4524 200.229 52.9159 200.229 52.1301C200.229 51.3443 200.254 50.8077 200.304 50.5289C200.389 50.0853 200.579 49.7092 200.886 49.4051C201.367 48.9234 201.962 48.6826 202.666 48.6826C203.298 48.6826 203.834 48.8643 204.264 49.2276C204.694 49.591 204.968 50.1022 205.082 50.7697H204.036C203.855 49.9965 203.395 49.6079 202.666 49.6079C202.252 49.6079 201.919 49.743 201.666 50.0177C201.464 50.2416 201.337 50.5796 201.287 51.0274C201.27 51.1879 201.257 51.5555 201.257 52.1343C201.257 52.7131 201.266 53.0807 201.287 53.2412C201.337 53.6933 201.464 54.0312 201.666 54.2509C201.919 54.5255 202.252 54.6607 202.666 54.6607C203.399 54.6607 203.863 54.2721 204.045 53.4947H205.082V53.4905Z" fill="#0054A3"/>
<path d="M211.074 52.1301C211.074 52.9243 211.049 53.4567 210.998 53.7313C210.922 54.1749 210.732 54.5509 210.429 54.8551C209.948 55.3367 209.349 55.5775 208.641 55.5775C207.933 55.5775 207.346 55.3367 206.866 54.8551C206.562 54.5509 206.368 54.1749 206.284 53.7313C206.233 53.4524 206.208 52.9159 206.208 52.1301C206.208 51.3443 206.233 50.8077 206.284 50.5289C206.368 50.0853 206.562 49.7092 206.866 49.4051C207.346 48.9234 207.941 48.6826 208.641 48.6826C209.341 48.6826 209.948 48.9234 210.429 49.4051C210.732 49.7092 210.922 50.0853 210.998 50.5289C211.049 50.7993 211.074 51.3358 211.074 52.1301ZM210.049 52.1301C210.049 51.5513 210.037 51.1837 210.02 51.0232C209.978 50.5711 209.851 50.2374 209.649 50.0219C209.387 49.743 209.054 49.6036 208.641 49.6036C208.228 49.6036 207.895 49.743 207.637 50.0219C207.435 50.2374 207.313 50.5711 207.266 51.0232C207.249 51.1837 207.237 51.5513 207.237 52.1301C207.237 52.7089 207.245 53.0764 207.266 53.237C207.313 53.689 207.435 54.0228 207.637 54.2383C207.899 54.5171 208.232 54.6565 208.645 54.6565C209.058 54.6565 209.396 54.5171 209.653 54.2383C209.855 54.0228 209.978 53.689 210.024 53.237C210.041 53.0807 210.054 52.7089 210.054 52.1301H210.049Z" fill="#0054A3"/>
<path d="M217.534 55.5184H216.336L214.911 52.6624H213.629V55.5184H212.601V48.7375H215.228C215.86 48.7375 216.37 48.9234 216.754 49.291C217.138 49.6586 217.327 50.136 217.327 50.719C217.327 51.1837 217.201 51.5724 216.952 51.885C216.703 52.1977 216.374 52.4089 215.978 52.5188L217.538 55.5184H217.534ZM216.294 50.7274C216.294 50.3937 216.189 50.136 215.982 49.9458C215.776 49.7557 215.493 49.6586 215.147 49.6586H213.625V51.7879H215.147C215.497 51.7879 215.776 51.6949 215.982 51.5048C216.193 51.3189 216.294 51.057 216.294 50.7274Z" fill="#0054A3"/>
<path d="M223.563 50.795C223.563 51.3907 223.365 51.885 222.969 52.2695C222.572 52.6581 222.045 52.8483 221.396 52.8483H219.857V55.5141H218.828V48.7333H221.396C222.05 48.7333 222.572 48.9276 222.969 49.3163C223.365 49.705 223.563 50.1951 223.563 50.795ZM222.535 50.795C222.535 50.4401 222.425 50.1613 222.206 49.9585C221.986 49.7599 221.695 49.6585 221.337 49.6585H219.853V51.9188H221.337C221.7 51.9188 221.986 51.8174 222.206 51.6188C222.425 51.4203 222.535 51.1457 222.535 50.795Z" fill="#0054A3"/>
<path d="M229.428 52.1301C229.428 52.9243 229.403 53.4567 229.353 53.7313C229.277 54.1749 229.087 54.5509 228.783 54.8551C228.303 55.3367 227.704 55.5775 226.995 55.5775C226.287 55.5775 225.697 55.3367 225.216 54.8551C224.912 54.5509 224.719 54.1749 224.638 53.7313C224.588 53.4524 224.562 52.9159 224.562 52.1301C224.562 51.3443 224.588 50.8077 224.638 50.5289C224.723 50.0853 224.912 49.7092 225.216 49.4051C225.697 48.9234 226.291 48.6826 226.995 48.6826C227.7 48.6826 228.303 48.9234 228.783 49.4051C229.087 49.7092 229.277 50.0853 229.353 50.5289C229.403 50.7993 229.428 51.3358 229.428 52.1301ZM228.404 52.1301C228.404 51.5513 228.395 51.1837 228.374 51.0232C228.328 50.5711 228.206 50.2374 228.003 50.0219C227.742 49.743 227.409 49.6036 226.995 49.6036C226.582 49.6036 226.245 49.743 225.988 50.0219C225.785 50.2374 225.663 50.5711 225.617 51.0232C225.596 51.1837 225.587 51.5513 225.587 52.1301C225.587 52.7089 225.596 53.0764 225.617 53.237C225.659 53.689 225.785 54.0228 225.988 54.2383C226.249 54.5171 226.582 54.6565 226.995 54.6565C227.409 54.6565 227.742 54.5171 228.003 54.2383C228.206 54.0228 228.328 53.689 228.374 53.237C228.391 53.0807 228.404 52.7089 228.404 52.1301Z" fill="#0054A3"/>
<path d="M235.888 55.5184H234.691L233.266 52.6624H231.984V55.5184H230.955V48.7375H233.582C234.215 48.7375 234.725 48.9234 235.108 49.291C235.492 49.6586 235.682 50.136 235.682 50.719C235.682 51.1837 235.555 51.5724 235.307 51.885C235.054 52.1977 234.729 52.4089 234.333 52.5188L235.893 55.5184H235.888ZM234.653 50.7274C234.653 50.3937 234.548 50.136 234.341 49.9458C234.134 49.7557 233.852 49.6586 233.506 49.6586H231.984V51.7879H233.506C233.856 51.7879 234.134 51.6949 234.341 51.5048C234.552 51.3189 234.653 51.057 234.653 50.7274Z" fill="#0054A3"/>
<path d="M242.167 55.5184H241.075L240.611 54.158H237.938L237.474 55.5184H236.382L238.861 48.7375H239.688L242.167 55.5184ZM240.324 53.2835L239.296 50.2669L238.241 53.2835H240.324Z" fill="#0054A3"/>
<path d="M247.286 49.6585H245.422V55.5183H244.393V49.6585H242.529V48.7333H247.286V49.6585Z" fill="#0054A3"/>
<path d="M249.479 55.5184H248.45V48.7375H249.479V55.5184Z" fill="#0054A3"/>
<path d="M255.871 52.1301C255.871 52.9243 255.846 53.4567 255.795 53.7313C255.719 54.1749 255.529 54.5509 255.226 54.8551C254.745 55.3367 254.146 55.5775 253.438 55.5775C252.729 55.5775 252.139 55.3367 251.658 54.8551C251.355 54.5509 251.161 54.1749 251.081 53.7313C251.03 53.4524 251.005 52.9159 251.005 52.1301C251.005 51.3443 251.03 50.8077 251.081 50.5289C251.165 50.0853 251.355 49.7092 251.658 49.4051C252.139 48.9234 252.734 48.6826 253.438 48.6826C254.142 48.6826 254.745 48.9234 255.226 49.4051C255.529 49.7092 255.719 50.0853 255.795 50.5289C255.846 50.7993 255.871 51.3358 255.871 52.1301ZM254.842 52.1301C254.842 51.5513 254.834 51.1837 254.812 51.0232C254.766 50.5711 254.644 50.2374 254.441 50.0219C254.18 49.743 253.847 49.6036 253.434 49.6036C253.02 49.6036 252.683 49.743 252.426 50.0219C252.223 50.2374 252.101 50.5711 252.055 51.0232C252.034 51.1837 252.025 51.5513 252.025 52.1301C252.025 52.7089 252.034 53.0764 252.055 53.237C252.097 53.689 252.223 54.0228 252.426 54.2383C252.687 54.5171 253.02 54.6565 253.434 54.6565C253.847 54.6565 254.18 54.5171 254.441 54.2383C254.644 54.0228 254.766 53.689 254.812 53.237C254.829 53.0807 254.842 52.7089 254.842 52.1301Z" fill="#0054A3"/>
<path d="M262.487 55.5184H261.546L258.418 50.7443V55.5184H257.389V48.7375H258.329L261.458 53.4989V48.7375H262.487V55.5184Z" fill="#0054A3"/>
<path d="M54.2346 2.77991C52.2444 1.00126 49.5458 0.00842285 46.8176 0.00842285H46.4972C46.4972 0.00842285 46.4761 0.00842285 46.4634 0.00842285C43.7606 0.109819 40.8174 1.11533 38.8398 3.05029C40.2904 1.54626 43.3263 1.45754 44.8696 3.03762L52.0293 10.3212C54.0449 12.2308 57.0133 13.2068 59.7162 13.2659H64.5357L54.2346 2.77991Z" fill="url(#paint0_linear_3_2107)"/>
<path d="M46.4504 0L36.8576 0.00844964C34.1506 0.00844964 31.1441 1.09845 29.1455 3.05032L19.1016 13.2659H24.0308C26.6535 13.2068 29.5208 12.29 31.5321 10.4902L38.8436 3.05032C40.817 1.11535 43.7602 0.109845 46.463 0.00844964C46.7076 0 46.4504 0 46.4504 0Z" fill="url(#paint1_linear_3_2107)"/>
<path d="M25.405 16.0374C23.3979 16.0374 22.3606 17.1655 22.3606 19.1469V30.8708H22.3564C22.3564 31.8847 21.5552 32.6283 20.6107 32.6283H10.7312C9.77827 32.6283 8.97712 31.8847 8.97712 30.8708V16.0332H3.16244H3.15401C1.1174 16.0332 0 17.0303 0 19.0033V55.9916H8.9729V40.3977C8.9729 39.3838 9.77405 38.6402 10.727 38.6402H20.6065C21.551 38.6402 22.3521 39.3838 22.3521 40.3977H22.3564V55.9916H31.3293V16.0374H25.4007H25.405Z" fill="#0054A3"/>
<path d="M40.3066 16.0375C38.232 16.0375 37.123 17.1571 37.123 19.2314V56.0001H46.1002V40.4062C46.1002 39.4007 46.8887 38.6614 47.8332 38.6487H59.4246C61.4949 38.6487 62.6081 37.5291 62.6081 35.4548V32.6072H47.8458C46.9266 32.6072 46.0959 31.8341 46.0959 30.8708V23.8323C46.0959 22.8183 46.8929 22.0747 47.8458 22.0747H61.3431C63.4177 22.0747 64.5267 20.9594 64.5267 18.885V16.0375H40.2981H40.3066Z" fill="#0054A3"/>
<path d="M128.16 30.8539V33.5028H136.328V41.4793H139.798V33.5028H147.965V30.8539H128.164H128.16Z" fill="#0054A3"/>
<path d="M129.576 28.957C132.726 28.3528 136.547 26.0418 138.06 23.8618C139.835 26.4136 143.727 28.45 146.544 28.957L146.641 28.9739L147.995 26.4263L147.847 26.3756C144.655 25.2645 141.185 23.7647 140.118 20.2116H147.172V17.5626H128.948V20.2116H136.003C134.932 23.7858 131.466 25.2729 128.274 26.3756L128.126 26.4263L129.48 28.9781L129.572 28.9612L129.576 28.957Z" fill="#0054A3"/>
<path d="M214.443 30.6385H218.723V27.9895H197.817V30.6385H202.097V32.9494H203.417C200.647 33.8493 198.893 35.5055 198.893 37.3306C198.893 40.7569 203.754 42.3159 208.27 42.3159C210.707 42.3159 212.976 41.8807 214.663 41.0907C216.594 40.1866 217.618 38.8853 217.618 37.3306C217.618 35.4463 216.004 33.9169 213.077 32.9494H214.439V30.6385H214.443ZM205.593 30.6385H210.948V32.4509C209.147 32.2017 207.393 32.2017 205.593 32.4509V30.6385ZM213.916 37.301C213.916 38.1375 212.989 38.6487 212.209 38.9276C211.18 39.2994 209.797 39.5021 208.304 39.5021C205.496 39.5021 202.654 38.7459 202.654 37.301C202.654 36.4603 203.573 35.9491 204.345 35.6702C205.361 35.3027 206.74 35.0957 208.224 35.0957C211.049 35.0957 213.912 35.8519 213.912 37.301H213.916ZM201.865 25.7926C203.565 26.6207 205.846 27.0769 208.283 27.0769C212.782 27.0769 217.618 25.4462 217.618 21.8762C217.618 18.3062 212.778 16.5909 208.283 16.5909C205.842 16.5909 203.56 17.0557 201.861 17.8964C199.917 18.8554 198.893 20.2327 198.893 21.8762C198.893 23.5196 199.917 24.8505 201.861 25.7968L201.865 25.7926ZM208.283 19.3244C211.079 19.3244 213.912 20.1905 213.912 21.8508C213.912 23.5112 211.079 24.335 208.283 24.335C205.487 24.335 202.65 23.4816 202.65 21.8508C202.65 20.2201 205.483 19.3244 208.283 19.3244Z" fill="#0054A3"/>
<path d="M85.4285 22.3536C84.7454 23.0972 84.3828 24.1449 84.3828 25.3913C84.3828 28.2388 86.1285 29.5316 87.7477 29.5316C88.6247 29.5316 89.4427 29.1598 90.0499 28.488C90.7246 27.736 91.083 26.6629 91.083 25.3913C91.083 22.5944 89.3542 21.3228 87.7519 21.3228C86.8706 21.3228 86.0442 21.6903 85.4285 22.3536ZM84.6442 25.3955C84.6442 22.7803 86.255 21.5931 87.7477 21.5931C89.2403 21.5931 90.8131 22.7845 90.8131 25.3955C90.8131 26.6038 90.48 27.6135 89.8475 28.3148C89.2909 28.9317 88.5446 29.2696 87.7434 29.2696C86.2508 29.2696 84.6485 28.0571 84.6485 25.3955H84.6442Z" fill="#0054A3"/>
<path d="M81.1781 25.3955C81.1781 29.84 84.5808 31.8637 87.7433 31.8637C90.9057 31.8637 94.3127 29.84 94.3127 25.3955C94.3127 23.3549 93.402 22.0663 91.9261 20.7355H94.591V18.0865H89.6155V16.4811H85.8585V18.0865H80.9082V20.7355H83.5604C81.9623 22.1339 81.1823 23.6168 81.1823 25.3955H81.1781ZM90.9479 25.3955C90.9479 30.7694 84.5134 30.7145 84.5134 25.3955C84.5134 20.0764 90.9479 20.106 90.9479 25.3955ZM86.2717 33.486H82.7761L82.8057 37.5798C82.8057 39.7134 84.4544 41.4498 86.4825 41.4498H100.452V38.8008H86.2717V33.486ZM100.191 23.4309V17.005H97.9854C97.1674 17.005 96.7246 17.4317 96.7246 18.2006V34.5253H100.195V26.0503H102.742V23.4309H100.195H100.191Z" fill="#0054A3"/>
<path d="M257.558 36.663C253.868 34.3224 252 30.951 252 26.6375V17.5583H248.53V26.6079C248.53 31.6862 246.304 34.2971 242.964 36.663L242.867 36.7306L244.246 39.3288L244.36 39.2739C246.274 38.3276 249.023 35.9828 250.272 33.769C252.017 36.3292 254.218 38.3867 256.192 39.2739L256.305 39.3246L257.655 36.7221L257.554 36.6588L257.558 36.663Z" fill="#0054A3"/>
<path d="M169.225 17.005C168.411 17.005 167.96 17.4317 167.96 18.2006V21.5763H166.337V17.005H164.367C163.549 17.005 163.107 17.4317 163.107 18.2006V27.0981C161.386 27.8501 159.767 27.9177 157.988 27.9177H155.365V25.1927H160.72V22.5437H155.365V20.2074H161.273V17.5585H151.895V26.6629C151.882 27.7107 152.291 28.7331 153.021 29.4725C153.712 30.1738 154.619 30.5625 155.572 30.5625H157.806C159.485 30.5625 161.403 30.4864 163.107 29.7851V31.23H166.337V24.2252H167.96V31.23H171.194V17.005H169.225Z" fill="#0054A3"/>
<path d="M152.94 32.4341V35.083H167.698V41.4794H171.181V36.304C171.181 34.1705 169.524 32.4341 167.492 32.4341H152.94Z" fill="#0054A3"/>
<path d="M124.896 29.6541V27.0051H122.868C123.407 25.4969 123.525 24.4575 123.525 23.2873L123.454 22.4465H120.089V23.6168C120.089 24.9645 120.055 25.594 119.448 27.0009H105.095V29.6499H113.262V32.5692H106.145V35.2182H120.363V41.4794H123.846V36.4434C123.846 34.3098 122.189 32.5692 120.152 32.5692H116.728V29.6499H124.896V29.6541Z" fill="#0054A3"/>
<path d="M106.145 17.5626V20.2116H120.089V23.2915H123.525V21.4368C123.525 19.3032 121.915 17.5626 119.878 17.5626H106.145Z" fill="#0054A3"/>
<path d="M176.127 31.382L176.152 37.5798C176.152 39.7302 177.801 41.4793 179.829 41.4793H193.828V31.382H176.127ZM190.463 38.9655H179.488V33.8957H190.463V38.9655Z" fill="#0054A3"/>
<path d="M179.353 33.7605V39.0964H190.594V33.7605H179.353ZM190.333 34.0309V38.8345H179.622V34.0309H190.333Z" fill="#0054A3"/>
<path d="M192.854 26.8656C193.318 25.6573 193.487 24.4533 193.541 23.2872H193.558V22.7676C193.558 22.6366 193.562 22.5056 193.562 22.3746C193.562 22.2226 193.562 22.0747 193.562 21.9268V21.7958V21.4325C193.562 19.299 191.905 17.5583 189.873 17.5583H176.139V20.2073H190.08V21.7958H190.075V23.7604C190.075 24.8757 189.839 25.8643 189.354 26.8656H175.372V29.5146H194.646V26.8656H192.858H192.854Z" fill="#0054A3"/>
<path d="M239.435 27.1445C239.865 25.8602 240.013 24.6265 240.059 23.2915H240.089V21.4368C240.089 19.3032 238.432 17.5626 236.395 17.5626H222.662V20.2116H236.606V24.0393C236.606 25.6574 236.353 26.777 235.914 27.1445H230.698V23.1014H227.228V27.1445H221.898V29.7935H241.177V27.1445H239.435Z" fill="#0054A3"/>
<path d="M262.454 24.2083V17.0092H260.244C259.43 17.0092 258.983 17.4359 258.983 18.2048V41.454H262.454V26.8572H265V24.2083H262.454Z" fill="#0054A3"/>
<path d="M231.423 31.458C229.108 31.458 226.945 31.9354 225.326 32.7973C223.483 33.7817 222.505 35.1843 222.505 36.8573C222.505 40.5498 227.101 42.2355 231.368 42.2355C233.675 42.2355 235.821 41.7623 237.419 40.9089C239.245 39.9288 240.206 38.5304 240.206 36.8573C240.206 33.1479 235.652 31.458 231.419 31.458H231.423ZM234.893 38.8895C233.961 39.3415 232.709 39.595 231.36 39.595C228.906 39.595 226.27 38.7374 226.27 36.8616C226.27 34.9857 228.847 34.1281 231.389 34.1281C233.932 34.1281 236.453 34.9815 236.453 36.8616C236.453 37.9093 235.606 38.5473 234.897 38.8895H234.893Z" fill="#0054A3"/>
</g>
<defs>
<linearGradient id="paint0_linear_3_2107" x1="63.4774" y1="13.8658" x2="39.7105" y2="-1.53777" gradientUnits="userSpaceOnUse">
<stop offset="0.01" stop-color="#FFC216"/>
<stop offset="0.14" stop-color="#FDBC16"/>
<stop offset="0.3" stop-color="#F9AE18"/>
<stop offset="0.47" stop-color="#F3961A"/>
<stop offset="0.66" stop-color="#EB741E"/>
<stop offset="0.84" stop-color="#DF4A22"/>
<stop offset="1" stop-color="#D52027"/>
</linearGradient>
<linearGradient id="paint1_linear_3_2107" x1="40.096" y1="-0.371784" x2="23.9753" y2="13.1294" gradientUnits="userSpaceOnUse">
<stop stop-color="#E4E51B"/>
<stop offset="1" stop-color="#0EA84F"/>
</linearGradient>
<clipPath id="clip0_3_2107">
<rect width="265" height="56" fill="white"/>
</clipPath>
</defs>
</svg>
