<svg width="509" height="56" viewBox="0 0 509 56" fill="none" xmlns="http://www.w3.org/2000/svg">
<g clip-path="url(#clip0_540_3951)">
<path d="M286.428 36.7904H288.478V41.1856L292.171 36.7904H294.685L290.486 41.6069L294.868 47.0131H292.185L288.506 42.2668H288.478V47.0131H286.428V36.7904Z" fill="#003994"/>
<path d="M298.659 39.2899C300.906 39.2899 302.619 40.8065 302.619 43.2919C302.619 45.4685 301.173 47.1956 298.659 47.1956C296.145 47.1956 294.713 45.4685 294.713 43.2919C294.713 40.8065 296.426 39.2899 298.659 39.2899ZM298.659 45.665C300.176 45.665 300.569 44.317 300.569 43.0532C300.569 41.8877 299.951 40.8065 298.659 40.8065C297.367 40.8065 296.763 41.9158 296.763 43.0532C296.763 44.303 297.156 45.665 298.659 45.665Z" fill="#003994"/>
<path d="M303.925 39.4725H305.667V41.1856H305.695C305.779 40.4835 306.593 39.2899 307.759 39.2899C307.956 39.2899 308.447 39.3601 308.7 39.5005V41.3682C308.517 41.2699 308.11 41.1575 307.759 41.1575C306.158 41.1575 305.877 43.1515 305.877 44.2327V46.999H303.911V39.4444L303.925 39.4725Z" fill="#003994"/>
<path d="M315.89 46.5918C315.174 46.985 314.345 47.1956 313.292 47.1956C310.792 47.1956 309.346 45.7633 309.346 43.2779C309.346 41.0873 310.497 39.2899 312.842 39.2899C315.637 39.2899 316.438 41.2137 316.438 43.8536H311.213C311.298 45.0753 312.154 45.7633 313.362 45.7633C314.317 45.7633 315.132 45.4123 315.876 45.0051V46.6059L315.89 46.5918ZM314.57 42.5056C314.514 41.5507 314.064 40.7363 312.969 40.7363C311.874 40.7363 311.312 41.4945 311.228 42.5056H314.57Z" fill="#003994"/>
<path d="M318.207 39.8656C318.965 39.5146 319.991 39.2899 320.833 39.2899C323.136 39.2899 324.091 40.2448 324.091 42.4775V43.4464C324.091 44.2047 324.105 44.7804 324.119 45.3421C324.133 45.9178 324.161 46.4374 324.204 47.0271H322.476C322.406 46.634 322.406 46.1284 322.392 45.9038H322.364C321.915 46.7322 320.932 47.2097 320.033 47.2097C318.699 47.2097 317.393 46.4093 317.393 44.9629C317.393 43.8396 317.94 43.1796 318.685 42.8145C319.429 42.4494 320.398 42.3792 321.226 42.3792H322.308C322.308 41.1575 321.76 40.7503 320.609 40.7503C319.78 40.7503 318.937 41.0733 318.277 41.5647L318.221 39.8797L318.207 39.8656ZM320.51 45.7633C321.114 45.7633 321.578 45.4965 321.886 45.0893C322.209 44.6681 322.294 44.1204 322.294 43.5306H321.451C320.566 43.5306 319.26 43.6711 319.26 44.8366C319.26 45.4825 319.808 45.7633 320.51 45.7633Z" fill="#003994"/>
<path d="M335.452 38.6579C334.806 38.3771 334.09 38.2226 333.374 38.2226C332.658 38.2226 331.759 38.5316 331.759 39.6409C331.759 41.4102 336.253 40.666 336.253 44.0922C336.253 46.339 334.483 47.1815 332.405 47.1815C331.295 47.1815 330.284 46.999 329.428 46.5637L329.695 44.8084C330.355 45.3701 331.478 45.5807 332.293 45.5807C333.107 45.5807 334.104 45.1875 334.104 44.2607C334.104 42.3089 329.624 43.1233 329.624 39.7251C329.624 37.4363 331.394 36.6078 333.205 36.6078C334.09 36.6078 334.905 36.7201 335.649 36.9729L335.452 38.6579Z" fill="#003994"/>
<path d="M337.896 36.7904H341.183L343.612 44.5417H343.64L346.07 36.7904H349.356V47.0131H347.39V38.5738H347.362L344.609 47.0131H342.643L339.891 38.5738L339.863 38.6018V47.0131H337.896V36.7904Z" fill="#003994"/>
<path d="M351.519 36.7904H357.557V38.3912H353.569V40.9188H357.22V42.5336H353.569V45.3982H357.585V47.0131H351.519V36.7904Z" fill="#003994"/>
<path d="M363.764 41.0452C363.16 40.8346 362.724 40.7222 362.008 40.7222C361.475 40.7222 360.843 40.9188 360.843 41.5507C360.843 42.7583 364.255 41.986 364.255 44.7102C364.255 46.4655 362.682 47.1676 361.081 47.1676C360.337 47.1676 359.579 47.0412 358.849 46.8446L358.961 45.2297C359.579 45.5387 360.225 45.7353 360.899 45.7353C361.39 45.7353 362.191 45.5387 362.191 44.8085C362.191 43.3341 358.778 44.3451 358.778 41.6069C358.778 39.978 360.197 39.2618 361.741 39.2618C362.668 39.2618 363.272 39.4023 363.876 39.5427L363.75 41.0171L363.764 41.0452Z" fill="#003994"/>
<path d="M453.754 41.0452C453.15 40.8346 452.715 40.7222 451.999 40.7222C451.465 40.7222 450.833 40.9188 450.833 41.5507C450.833 42.7583 454.245 41.986 454.245 44.7102C454.245 46.4655 452.673 47.1676 451.072 47.1676C450.327 47.1676 449.569 47.0412 448.839 46.8446L448.951 45.2297C449.569 45.5387 450.215 45.7353 450.889 45.7353C451.381 45.7353 452.181 45.5387 452.181 44.8085C452.181 43.3341 448.769 44.3451 448.769 41.6069C448.769 39.978 450.187 39.2618 451.732 39.2618C452.659 39.2618 453.262 39.4023 453.88 39.5427L453.754 41.0171V41.0452Z" fill="#003994"/>
<path d="M403.661 38.6579C403.015 38.3771 402.299 38.2226 401.583 38.2226C400.867 38.2226 399.968 38.5316 399.968 39.6409C399.968 41.4102 404.448 40.666 404.448 44.0922C404.448 46.339 402.678 47.1815 400.6 47.1815C399.491 47.1815 398.985 47.027 397.974 46.7883L398.17 44.9348C398.873 45.3139 399.687 45.5667 400.488 45.5667C401.288 45.5667 402.313 45.1735 402.313 44.2467C402.313 42.2949 397.819 43.1093 397.819 39.7111C397.819 37.4222 399.589 36.5938 401.4 36.5938C402.285 36.5938 403.1 36.7061 403.844 36.9588L403.647 38.6439L403.661 38.6579Z" fill="#003994"/>
<path d="M406.4 40.9047H404.953V39.4724H406.4V37.9559L408.366 37.324V39.4584H410.107V40.8907H408.366V44.4152C408.366 45.0612 408.534 45.665 409.293 45.665C409.644 45.665 409.981 45.5948 410.191 45.4544L410.247 47.013C409.84 47.1254 409.377 47.1815 408.801 47.1815C407.256 47.1815 406.414 46.2267 406.414 44.7382V40.8907L406.4 40.9047Z" fill="#003994"/>
<path d="M411.862 39.8656C412.621 39.5146 413.646 39.2899 414.488 39.2899C416.792 39.2899 417.746 40.2448 417.746 42.4775V43.4464C417.746 44.2047 417.761 44.7804 417.775 45.3421C417.775 45.9178 417.817 46.4374 417.859 47.0271H416.132C416.061 46.634 416.061 46.1284 416.047 45.9038H416.019C415.57 46.7322 414.587 47.2097 413.688 47.2097C412.354 47.2097 411.048 46.4093 411.048 44.9629C411.048 43.8396 411.596 43.1796 412.34 42.8145C413.084 42.4494 414.053 42.3792 414.882 42.3792H415.963C415.963 41.1575 415.429 40.7503 414.264 40.7503C413.435 40.7503 412.593 41.0733 411.933 41.5647L411.876 39.8797L411.862 39.8656ZM414.165 45.7633C414.769 45.7633 415.233 45.4965 415.542 45.0893C415.865 44.6681 415.949 44.1204 415.949 43.5306H415.106C414.236 43.5306 412.93 43.6711 412.93 44.8366C412.93 45.4825 413.477 45.7633 414.179 45.7633" fill="#003994"/>
<path d="M370.111 39.8656C370.87 39.5146 371.895 39.2899 372.738 39.2899C375.041 39.2899 375.996 40.2448 375.996 42.4775V43.4464C375.996 44.2047 376.01 44.7804 376.024 45.3421C376.038 45.9178 376.066 46.4374 376.108 47.0271H374.381C374.31 46.634 374.31 46.1284 374.296 45.9038H374.268C373.819 46.7322 372.836 47.2097 371.937 47.2097C370.603 47.2097 369.297 46.4093 369.297 44.9629C369.297 43.8396 369.845 43.1796 370.589 42.8145C371.333 42.4494 372.302 42.3792 373.131 42.3792H374.212C374.212 41.1575 373.664 40.7503 372.513 40.7503C371.684 40.7503 370.842 41.0733 370.182 41.5647L370.125 39.8797L370.111 39.8656ZM372.414 45.7633C373.018 45.7633 373.482 45.4965 373.791 45.0893C374.114 44.6681 374.198 44.1204 374.198 43.5306H373.341C372.457 43.5306 371.165 43.6711 371.165 44.8366C371.165 45.4825 371.712 45.7633 372.414 45.7633Z" fill="#003994"/>
<path d="M419.193 39.4725H420.934V41.1856H420.962C421.046 40.4835 421.861 39.2899 423.027 39.2899C423.209 39.2899 423.42 39.2899 423.63 39.3461V41.2137C423.448 41.1716 423.097 41.1435 422.746 41.1716C421.089 41.2699 421.145 43.1655 421.145 44.2468V47.0131H419.179V39.4584L419.193 39.4725Z" fill="#003994"/>
<path d="M426.046 40.9047H424.6V39.4724H426.046V37.9559L428.012 37.324V39.4584H429.753V40.8907H428.012V44.4152C428.012 45.0612 428.181 45.665 428.939 45.665C429.29 45.665 429.627 45.5948 429.838 45.4544L429.894 47.013C429.487 47.1254 429.023 47.1815 428.447 47.1815C426.903 47.1815 426.06 46.2267 426.06 44.7382V40.8907L426.046 40.9047Z" fill="#003994"/>
<path d="M438.376 47.013H436.508V45.988H436.48C435.876 46.7181 435.034 47.1956 434.008 47.1956C432.225 47.1956 431.438 45.9318 431.438 44.2327V39.4724H433.405V43.5025C433.405 44.4293 433.419 45.679 434.682 45.679C436.101 45.679 436.41 44.1344 436.41 43.1655V39.4724H438.376V47.0271V47.013Z" fill="#003994"/>
<path d="M440.173 39.4725H442.055V40.5397H442.083C442.518 39.8095 443.263 39.2899 444.428 39.2899C446.746 39.2899 447.588 41.1435 447.588 43.2217C447.588 45.2999 446.731 47.1956 444.372 47.1956C443.544 47.1956 442.841 46.985 442.153 46.1565H442.125V50.1024H440.159V39.4725H440.173ZM442.153 43.2217C442.153 44.2889 442.575 45.665 443.881 45.665C445.187 45.665 445.538 44.2608 445.538 43.2217C445.538 42.1826 445.187 40.8205 443.909 40.8205C442.631 40.8205 442.153 42.1686 442.153 43.2217Z" fill="#003994"/>
<path d="M392.553 47.0131H390.671V45.9459H390.643C390.207 46.6761 389.463 47.1956 388.297 47.1956C385.98 47.1956 385.138 45.3561 385.138 43.2638C385.138 41.1715 385.994 39.2899 388.354 39.2899C389.182 39.2899 389.87 39.5005 390.572 40.329H390.601V36.3832H392.567V47.0131H392.553ZM390.502 43.2357C390.502 42.1826 390.081 40.8345 388.803 40.8345C387.525 40.8345 387.188 42.2107 387.188 43.2357C387.188 44.2608 387.539 45.5808 388.775 45.5808C390.011 45.5808 390.502 44.2608 390.502 43.2357Z" fill="#003994"/>
<path d="M461.45 36.7904H463.767L467.783 47.0271H465.508L464.623 44.6821H460.467L459.568 47.0271H457.447L461.436 36.7904H461.45ZM462.587 38.8406H462.559L461.084 43.0672H464.076L462.601 38.8406H462.587Z" fill="#003994"/>
<path d="M475.647 39.4725V46.2829C475.647 48.333 474.833 50.2709 471.659 50.2709C470.887 50.2709 469.988 50.1585 469.047 49.7653L469.201 48.0943C469.805 48.4173 470.788 48.7543 471.406 48.7543C473.569 48.7543 473.681 47.1254 473.681 45.8195H473.653C473.288 46.4654 472.403 47.0271 471.308 47.0271C469.075 47.0271 468.232 45.2438 468.232 43.2217C468.232 41.4103 469.173 39.304 471.434 39.304C472.431 39.304 473.204 39.641 473.751 40.5116H473.78V39.4865H475.661L475.647 39.4725ZM473.681 43.1655C473.681 41.8737 473.19 40.8205 472.038 40.8205C470.704 40.8205 470.283 42.0562 470.283 43.2077C470.283 44.2327 470.83 45.4965 471.954 45.4965C473.19 45.4965 473.681 44.4293 473.681 43.1655Z" fill="#003994"/>
<path d="M483.511 46.5918C482.795 46.985 481.966 47.1956 480.913 47.1956C478.413 47.1956 476.967 45.7633 476.967 43.2779C476.967 41.0873 478.132 39.2899 480.478 39.2899C483.272 39.2899 484.073 41.2137 484.073 43.8536H478.849C478.933 45.0753 479.789 45.7633 481.011 45.7633C481.966 45.7633 482.781 45.4123 483.525 45.0051V46.6059L483.511 46.5918ZM482.191 42.5056C482.135 41.5507 481.699 40.7363 480.59 40.7363C479.481 40.7363 478.933 41.4945 478.849 42.5056H482.191Z" fill="#003994"/>
<path d="M485.379 39.4725H487.247V40.4975H487.275C487.893 39.6269 488.721 39.2899 489.746 39.2899C491.53 39.2899 492.316 40.5537 492.316 42.2528V47.0131H490.35V42.983C490.35 42.0562 490.336 40.8205 489.072 40.8205C487.654 40.8205 487.345 42.3651 487.345 43.3341V47.0271H485.379V39.4725Z" fill="#003994"/>
<path d="M377.231 39.4725H379.099V40.4975H379.127C379.745 39.6269 380.574 39.2899 381.599 39.2899C383.382 39.2899 384.169 40.5537 384.169 42.2528V47.0131H382.203V42.983C382.203 42.0562 382.189 40.8205 380.925 40.8205C379.506 40.8205 379.198 42.3651 379.198 43.3341V47.0271H377.231V39.4725Z" fill="#003994"/>
<path d="M498.622 41.0873C498.271 40.9188 497.891 40.8065 497.288 40.8065C496.066 40.8065 495.293 41.7754 495.293 43.1936C495.293 44.6119 495.954 45.651 497.33 45.651C497.892 45.651 498.495 45.4404 498.846 45.2999L498.931 46.9288C498.355 47.0973 497.765 47.1816 496.965 47.1816C494.493 47.1816 493.243 45.4965 493.243 43.1936C493.243 41.0171 494.535 39.2759 496.894 39.2759C497.681 39.2759 498.257 39.3601 498.804 39.5286L498.636 41.0873H498.622Z" fill="#003994"/>
<path d="M503.551 44.9769H503.579L505.39 39.4584H507.385L504.562 46.9428C503.93 48.6138 503.481 50.2568 501.43 50.2568C500.967 50.2568 500.489 50.1866 500.04 50.0461L500.166 48.5998C500.419 48.6841 500.7 48.7262 501.177 48.7262C501.964 48.7262 502.455 48.1785 502.455 47.3781L499.562 39.4443H501.725L503.537 44.9629L503.551 44.9769Z" fill="#003994"/>
<path d="M208.768 47.8836V24.7843L195.118 47.2798H185.765L172.087 24.7843V47.8836H161.54V8.11633H172.69L190.708 37.4503L208.768 8.11633H219.609V47.8836H208.768Z" fill="#003994"/>
<path d="M143.129 22.8044H121.91C121.025 22.8044 120.239 22.4955 119.579 21.8917C119.017 21.2598 118.694 20.5717 118.666 19.8134C118.694 18.9007 119.017 18.1705 119.579 17.6088C120.183 17.005 120.899 16.6961 121.755 16.6961H154.125V8.13037H120.59C116.644 8.13037 113.568 9.26778 111.265 11.5707C108.864 13.9298 107.67 16.7382 107.67 20.0381C107.67 23.338 108.864 26.2728 111.265 28.7021C113.666 31.1314 116.784 32.325 120.59 32.325H142.862C143.846 32.325 144.632 32.662 145.292 33.3641C145.952 34.0241 146.289 34.8385 146.289 35.7934C146.289 36.7482 145.938 37.5627 145.25 38.2507C144.562 38.9388 143.705 39.2898 142.694 39.2898H109.875V47.8977H143.101C147.005 47.8977 150.193 46.6339 152.679 44.1203C155.136 41.6349 156.372 38.6439 156.372 35.1755C156.372 31.7071 155.15 28.9408 152.679 26.4553C150.291 24.0401 147.104 22.8325 143.101 22.8325" fill="#003994"/>
<path d="M270.151 16.682V8.11633H226.266V47.8836H270.151V39.2758H237.079V32.2969H270.151V23.7031H237.093V16.682H270.151Z" fill="#003994"/>
<path d="M51.0896 42.4493C54.2072 47.673 62.7455 55.3119 74.233 55.9579C80.7069 56.3089 86.8158 54.666 91.7029 51.1695C99.3003 46.0863 103.808 37.5486 103.303 28.351C102.797 19.3781 94.9047 11.5286 86.9703 11.8515C82.2658 12.0341 78.2915 14.3932 76.0867 18.1565C79.3728 18.6199 83.979 20.5998 85.3412 25.5988C86.7175 30.682 82.9258 35.9619 78.6426 37.4784C78.5583 37.6329 78.6426 37.8435 78.8813 37.8154C85.1165 37.0291 92.2084 32.7462 90.762 21.4704C92.4472 27.4102 91.2816 35.1615 86.7315 40.2588C83.7122 43.6429 78.9796 46.002 72.5759 45.6088C72.1967 45.5948 72.0422 46.1143 72.5056 46.2126C79.106 47.6309 85.0182 45.6509 89.2031 42.7161C94.034 39.3179 96.7444 33.7011 97.1376 27.9438C97.896 36.6921 94.2587 44.6399 84.6672 49.4283C73.8538 54.8345 58.4764 50.3129 51.7637 42.0421C51.23 41.3962 50.6964 41.7472 51.1177 42.4634" fill="#003994"/>
<path d="M100.409 13.5507C97.2917 8.32698 88.7675 0.688067 77.28 0.0421288C70.8061 -0.322966 64.6972 1.334 59.8101 4.83049C52.2127 9.91374 47.7048 18.4514 48.2104 27.6489C48.73 36.8887 56.538 44.4714 64.5427 44.1484C69.2472 43.9659 73.2215 41.6068 75.4263 37.8435C72.1402 37.3801 67.534 35.4002 66.1858 30.4012C64.8096 25.318 68.6013 20.0381 72.8845 18.5216C72.9687 18.3811 72.8845 18.1565 72.6457 18.1846C66.4105 18.9569 59.3186 23.2538 60.7791 34.5296C59.0939 28.5898 60.2455 20.8385 64.8096 15.7412C67.8289 12.3571 72.5615 9.998 78.9652 10.3771C79.3444 10.3912 79.5129 9.87162 79.0354 9.77332C72.421 8.34103 66.5228 10.335 62.352 13.2698C57.5211 16.668 54.8107 22.2989 54.4175 28.0421C53.6732 19.2939 57.3104 11.346 66.902 6.54363C77.7294 1.13741 93.0928 5.67302 99.8055 13.9298C100.325 14.5757 100.873 14.2106 100.451 13.5085" fill="#E60021"/>
<path d="M24.5758 26.7783L50.5981 47.8836H35.2066L10.8976 28.9268V47.8836H0V8.11633H10.8976V25.0371L33.2686 8.11633H48.1967L24.5758 26.7783Z" fill="#003994"/>
<path d="M474.243 13.4945H470.942V18.648H464.146V20.5998H485.154V18.648H474.243V13.4945Z" fill="#003994"/>
<path d="M505.643 13.5365V8.27075H502.329V23.9418H505.643V15.4884H509V13.5365H505.643Z" fill="#003994"/>
<path d="M375.42 10.6018H382.399V11.9638C382.399 15.025 381.473 19.7011 375.237 21.9759V24.1665C383.944 21.8074 386.065 15.8114 386.065 12.5817V8.6499H375.406V10.6018H375.42Z" fill="#003994"/>
<path d="M498.959 20.1364V18.1845H493.089C491.881 18.1845 490.912 17.2156 490.912 16.008V10.6018H498.945V8.6499H487.598V15.9518C487.598 18.2688 489.465 20.1364 491.783 20.1364H498.945H498.959Z" fill="#003994"/>
<path d="M479.242 14.688C479.242 15.5727 478.962 16.3871 478.498 17.0611H481.798C482.262 16.3871 482.543 15.5727 482.543 14.688V8.6499H466.126V10.6018H479.228V14.688H479.242Z" fill="#003994"/>
<path d="M493.089 26.7362V23.2538H489.774V26.666C489.774 28.983 491.656 30.8506 493.959 30.8506H506.065V28.8987H495.251C494.044 28.8987 493.075 27.9298 493.075 26.7222" fill="#003994"/>
<path d="M474.65 21.2457C470.76 21.2457 467.601 23.6469 467.601 26.6239C467.601 29.6008 470.76 32.002 474.65 32.002C478.54 32.002 481.7 29.6008 481.7 26.6239C481.7 23.6469 478.54 21.2457 474.65 21.2457ZM474.65 30.0642C472.586 30.0642 470.901 28.5336 470.901 26.6379C470.901 24.7422 472.586 23.2116 474.65 23.2116C476.715 23.2116 478.4 24.7422 478.4 26.6379C478.4 28.5336 476.715 30.0642 474.65 30.0642Z" fill="#003994"/>
<path d="M319.527 20.7823H316.227V26.6098H306.2V28.5617H329.554V26.6098H319.527V20.7823Z" fill="#003994"/>
<path d="M283.661 20.0241H293.14V21.4143C290.036 21.976 287.733 24.0963 287.733 26.638C287.733 29.6149 290.893 32.0161 294.783 32.0161C298.673 32.0161 301.833 29.6149 301.833 26.638C301.833 24.0963 299.529 21.976 296.426 21.4143V20.0241H305.905V18.0723H283.646V20.0241H283.661ZM298.532 26.6239C298.532 28.5196 296.847 30.0502 294.783 30.0502C292.718 30.0502 291.033 28.5196 291.033 26.6239C291.033 24.7282 292.718 23.1976 294.783 23.1976C296.847 23.1976 298.532 24.7282 298.532 26.6239Z" fill="#003994"/>
<path d="M462.896 18.6479H441.873V20.5998H462.896V18.6479Z" fill="#003994"/>
<path d="M452.377 21.2457C448.487 21.2457 445.327 23.6469 445.327 26.6239C445.327 29.6008 448.487 32.002 452.377 32.002C456.267 32.002 459.427 29.6008 459.427 26.6239C459.427 23.6469 456.267 21.2457 452.377 21.2457ZM452.377 30.0642C450.313 30.0642 448.627 28.5336 448.627 26.6379C448.627 24.7422 450.299 23.2116 452.377 23.2116C454.455 23.2116 456.126 24.7422 456.126 26.6379C456.126 28.5336 454.441 30.0642 452.377 30.0642Z" fill="#003994"/>
<path d="M445.959 13.3822C445.959 15.9238 448.838 17.988 452.377 17.988C455.916 17.988 458.795 15.9238 458.795 13.3822C458.795 12.3852 458.346 11.4584 457.601 10.7142H460.368V8.76235H454.034V7.42834H450.72V8.76235H443.951V10.7142H447.139C446.395 11.4725 445.945 12.3852 445.945 13.3822M452.377 16.0502C450.65 16.0502 449.26 14.8005 449.26 13.2699C449.26 11.7393 450.65 10.4895 452.377 10.4895C454.104 10.4895 455.495 11.7393 455.495 13.2699C455.495 14.8005 454.104 16.0502 452.377 16.0502Z" fill="#003994"/>
<path d="M438.502 8.27075H435.202V23.9418H438.502V8.27075Z" fill="#003994"/>
<path d="M412.789 12.2869H408.997C408.183 9.8295 405.767 8.0321 402.917 8.0321C399.392 8.0321 396.541 10.7563 396.541 14.0983C396.541 17.4403 399.392 20.1785 402.917 20.1785C406.442 20.1785 409.208 17.5246 409.292 14.2387H412.789V20.6139H416.103V8.27082H412.789V12.3009V12.2869ZM402.917 18.2126C401.217 18.2126 399.841 16.3731 399.841 14.0983C399.841 11.8235 401.217 9.98396 402.917 9.98396C404.616 9.98396 405.992 11.8235 405.992 14.0983C405.992 16.3731 404.616 18.2126 402.917 18.2126Z" fill="#003994"/>
<path d="M425.976 26.7362V23.2538H422.662V26.666C422.662 28.983 424.53 30.8506 426.847 30.8506H438.952V28.8987H428.139C426.931 28.8987 425.962 27.9298 425.962 26.7222" fill="#003994"/>
<path d="M336.759 26.7362V23.2538H333.444V26.666C333.444 28.983 335.312 30.8506 337.629 30.8506H349.735V28.8987H338.921C337.728 28.8987 336.745 27.9298 336.745 26.7222" fill="#003994"/>
<path d="M412.789 24.4333H404.04V21.9058H400.74V26.6801C400.74 28.997 402.608 30.8646 404.925 30.8646H416.104V21.9058H412.789V24.4333ZM406.217 28.9128C405.023 28.9128 404.04 27.9439 404.04 26.7363V26.3852H412.789V28.9128H406.217Z" fill="#003994"/>
<path d="M426.046 15.6288C427.169 17.7211 429.206 19.8555 432.899 20.9929V18.8304C428.293 16.6399 427.829 12.8906 427.843 11.1213V10.5877H432.309V8.63586H419.825V10.5877H424.276V11.1213C424.276 12.8766 423.827 16.6258 419.221 18.8304V20.9929C422.9 19.8555 424.936 17.7211 426.074 15.6288" fill="#003994"/>
<path d="M294.783 12.9187C296.202 14.5476 298.772 16.3871 303.364 17.1875V14.9969C298.589 14.0561 296.96 11.5285 296.426 10.2226H302.999V8.27075H286.582V10.2226H293.154C292.621 11.5285 290.992 14.0561 286.217 14.9969V17.1875C290.809 16.3871 293.365 14.5616 294.783 12.9187Z" fill="#003994"/>
<path d="M393.536 8.27075H390.222V30.8645H393.536V8.27075Z" fill="#003994"/>
<path d="M339.469 20.6419V14.7582H341.828V23.9418H344.777V8.27075H341.828V12.8064H339.469V8.64989H336.52V12.8064H333.037V8.64989H330.088V17.8896C330.088 19.4062 331.324 20.6419 332.84 20.6419H339.469ZM334.469 18.69C333.683 18.69 333.037 18.0441 333.037 17.2577V14.7582H336.52V18.69H334.469Z" fill="#003994"/>
<path d="M349.3 8.27075H346.351V23.9418H349.3V8.27075Z" fill="#003994"/>
<path d="M368.862 13.691H364.635V15.6429H368.862V30.8645H372.162V8.27075H368.862V13.691Z" fill="#003994"/>
<path d="M361.054 13.8596V11.9218H365.519V9.96993H361.054V7.98999H357.613V9.96993H353.021V11.9218H357.613V13.8596C357.613 15.2919 357.093 19.8837 352.417 22.0462V24.1665C355.801 23.1555 358.02 21.2317 359.326 19.0692C360.632 21.2317 362.851 23.1555 366.236 24.1665V22.0462C361.559 19.8837 361.04 15.3059 361.04 13.8596" fill="#003994"/>
<path d="M317.884 15.1233C319.654 18.1845 322.884 20.5155 326.956 21.6108V19.1955C322.238 17.3981 319.64 14.0842 319.654 9.56264V8.6499H316.115V9.56264C316.115 14.0842 313.531 17.3981 308.812 19.1955V21.6108C312.885 20.5015 316.115 18.1845 317.884 15.1233Z" fill="#003994"/>
</g>
<defs>
<clipPath id="clip0_540_3951">
<rect width="509" height="56" fill="white"/>
</clipPath>
</defs>
</svg>
